<?xml version="1.0" standalone="no"?>
<!DOCTYPE svg PUBLIC "-//W3C//DTD SVG 1.1//EN" "http://www.w3.org/Graphics/SVG/1.1/DTD/svg11.dtd" >
<svg>
<metadata>
Created by FontForge 20090914 at Thu May 25 11:19:27 2017
 By www-data
</metadata>
<defs>
<font id="iconfont" horiz-adv-x="512" >
  <font-face 
    font-family="iconfont"
    font-weight="400"
    font-stretch="normal"
    units-per-em="512"
    panose-1="2 0 5 9 0 0 0 0 0 0"
    ascent="480"
    descent="-32"
    x-height="443.497"
    cap-height="439"
    bbox="-37 -0.5 549 513.241"
    underline-thickness="0"
    underline-position="0"
    unicode-range="U+0021-U+E055"
  />
<missing-glyph 
 />
    <glyph glyph-name=".notdef" 
 />
    <glyph glyph-name=".notdef" 
 />
    <glyph glyph-name="moon" unicode="!" 
d="M350 169c-25.333 -24.667 -55.666 -37 -90.999 -37s-65.333 12.333 -90 37s-37 54.667 -37 90s12.333 65.666 37 90.999c12.667 13.333 28.667 23.333 48 30c6 2 11.333 0.666992 16 -4c5.33301 -4 6.66602 -9.66699 3.99902 -17c-13.333 -38 -6 -71.333 22 -100
c28.667 -28 62 -35.333 100 -22c7.33301 2.66699 13 1.33398 17 -3.99902c4.66699 -4.66699 6 -10 4 -16c-6.66699 -19.333 -16.667 -35.333 -30 -48zM191 327c-18.667 -18.667 -28 -41.1689 -28 -67.502s9.33301 -49.166 28 -68.499c20 -20 44.667 -29.167 74 -27.5
s52.333 13.834 69 36.501c-38 -3.33301 -70.333 9 -97 37c-28 26.667 -40.333 59 -37 97c-4 -2.66699 -7 -5 -9 -7z" />
    <glyph glyph-name="sipka-jih-plna" unicode="&#x22;" 
d="M274 37c-2 -8.66699 -8 -13 -18 -13s-16 4.33301 -18 13l-148 449l166 -126l166 126z" />
    <glyph glyph-name="sipka-jih" unicode="#" 
d="M274 37c-2 -8.66699 -8 -13 -18 -13s-16 4.33301 -18 13l-148 449l166 -126l166 126zM356 393l-100 -76l-100 76l100 -304z" />
    <glyph glyph-name="fog" unicode="$" 
d="M112 352h288c10.667 0 16 5.33301 16 16s-5.33301 16 -16 16h-288c-10.667 0 -16 -5.33301 -16 -16s5.33301 -16 16 -16zM400 320h-288c-10.667 0 -16 -5.33301 -16 -16s5.33301 -16 16 -16h288c10.667 0 16 5.33301 16 16s-5.33301 16 -16 16zM400 256h-288
c-10.667 0 -16 -5.33301 -16 -16s5.33301 -16 16 -16h288c10.667 0 16 5.33301 16 16s-5.33301 16 -16 16zM400 192h-288c-10.667 0 -16 -5.33301 -16 -16s5.33301 -16 16 -16h288c10.667 0 16 5.33301 16 16s-5.33301 16 -16 16z" />
    <glyph glyph-name="cloud-moon" unicode="%" 
d="M435 250c5.33301 2.66699 10 6.33301 14 11c14 14 24 30 30 48c2.66699 7.33301 1.33398 13 -3.99902 17c-4.66699 4.66699 -10 6 -16 4c-38 -14 -71.333 -6.66699 -100 22s-36 62 -22 100c2 6 0.666992 11.333 -4 16s-10.334 6 -17.001 4c-18 -6 -34 -16 -48 -30
c-34.667 -34.667 -45.334 -75.667 -32.001 -123c-44.667 -6 -80.667 -27.333 -108 -64c-3.33301 0.666992 -8.66602 1 -15.999 1c-30.667 0 -57 -11 -79 -33s-33 -48.333 -33 -79s11 -57 33 -79s48.333 -33 79 -33c14.667 0 28 2.33301 40 7c30 -26 64.667 -39 104 -39
s74 13 104 39c12 -4.66699 25.333 -7 40 -7c30.667 0 57 11 79 33s33 48.333 33 79c0 24 -7.16699 45.833 -21.5 65.5s-32.833 33.167 -55.5 40.5zM291 419.999c3.33301 3.33301 5.99902 5.66602 7.99902 6.99902c-2 -37.333 10.333 -70 37 -98
c28 -26.667 60.667 -39 98 -37c-13.333 -16.667 -31 -27.667 -53 -33c-29.333 36.667 -66.666 56.667 -111.999 60c-6 16.667 -7.16699 34.334 -3.5 53.001s12.167 34.667 25.5 48zM399.999 63.999c-17.333 0 -32.6641 4.99902 -45.9971 14.999
c-24.667 -31.333 -57.334 -47 -98.001 -47s-73.334 15.667 -98.001 47c-13.333 -10 -28.666 -15 -45.999 -15c-22 0 -40.833 7.83301 -56.5 23.5s-23.5 34.5 -23.5 56.5s7.83301 40.833 23.5 56.5s34.5 23.5 56.5 23.5c10.667 0 20.667 -2 30 -6c24 44 59.667 67 107 69
c1.33301 0.666992 3.66602 1 6.99902 1c12.667 0 25 -2 37 -6c14 -3.33301 28.333 -10.666 43 -21.999c11.333 -9.33301 21.333 -21 30 -35c1.33301 -2.66699 2.66602 -5 3.99902 -7c9.33301 4 19.333 6 30 6c22 0 40.833 -7.83301 56.5 -23.5s23.5 -34.5 23.5 -56.5
s-7.83301 -40.833 -23.5 -56.5s-34.5 -23.5 -56.5 -23.5z" />
    <glyph glyph-name="cloud-sun" unicode="&#x26;" 
d="M208 448c10.667 0 16 5.33301 16 16v32c0 10.667 -5.33301 16 -16 16s-16 -5.33301 -16 -16v-32c0 -10.667 5.33301 -16 16 -16zM332 406l23.001 21.999c7.33301 8 7.33301 15.667 0 23s-15 7.33301 -23 0l-22 -23c-7.33301 -7.33301 -7.33301 -14.666 0 -21.999
s14.666 -7.33301 21.999 0zM16.001 287.999h32c10.667 0 16 5.33301 16 16s-5.33301 16 -16 16h-32c-10.667 0 -16 -5.33301 -16 -16s5.33301 -16 16 -16zM352.001 303.999c0 -10.667 5.33301 -16 16 -16h32c10.667 0 16 5.33301 16 16s-5.33301 16 -16 16h-32
c-10.667 0 -16 -5.33301 -16 -16zM84.001 405.999c7.33301 -7.33301 14.667 -7.33203 22 0.000976562s7.33301 14.666 0 21.999l-22 23c-8 7.33301 -15.667 7.33301 -23 0s-7.33301 -15 0 -23zM400.002 256c-7.33301 0 -12.668 -0.333008 -16.001 -1
c-16.667 22.667 -38 39.667 -64 51c-1.33301 30.667 -12.666 56.667 -33.999 78s-47.333 32 -78 32s-57 -11 -79 -33s-33 -48.333 -33 -79c0 -18 4 -34 12 -48c-30 -1.33301 -55.5 -12.833 -76.5 -34.5s-31.5 -47.5 -31.5 -77.5c0 -30.667 11 -57 33 -79s48.333 -33 79 -33
c14.667 0 28 2.33301 40 7c30 -26 64.667 -39 104 -39s74 13 104 39c12 -4.66699 25.333 -7 40 -7c30.667 0 57 11 79 33s33 48.333 33 79s-11 57 -33 79s-48.333 33 -79 33zM208 384c20 0 37.333 -6.33301 52 -19s23.667 -28.667 27 -48c-10 2 -20.333 3 -31 3
c-46.667 0 -86 -17.667 -118 -53c-6.66699 12 -10 24.333 -10 37c0 22 7.83301 40.833 23.5 56.5s34.5 23.5 56.5 23.5zM400 64c-17.333 0 -32.667 5 -46 15c-24.667 -31.333 -57.334 -47 -98.001 -47s-73.334 15.667 -98.001 47c-13.333 -10 -28.666 -15 -45.999 -15
c-22 0 -40.833 7.83301 -56.5 23.5s-23.5 34.5 -23.5 56.5s7.83301 40.833 23.5 56.5s34.5 23.5 56.5 23.5c8.66699 0 16 -1.33301 22 -4c2.66699 0 5.33398 -0.666992 8.00098 -2c6.66699 10.667 12 18.667 16 24c26 30.667 58.667 46 98 46c11.333 0 21 -1.33301 29 -4
c10 -2 20 -5.66699 30 -11c24 -12.667 42.333 -31 55 -55c9.33301 4 19.333 6 30 6c22 0 40.833 -7.83301 56.5 -23.5s23.5 -34.5 23.5 -56.5s-7.83301 -40.833 -23.5 -56.5s-34.5 -23.5 -56.5 -23.5z" />
    <glyph glyph-name="direction-move-1" unicode="'" 
d="M257 512l-96 -128h63v-96h-96v64l-128 -96l128 -96v64h96v-96h-63l96 -128l96 128h-65v96h96v-64l128 96l-128 96v-64h-96v96h65z" />
    <glyph glyph-name="fog-moon" unicode="(" 
d="M64 193h384c10.667 0 16 5.33301 16 16s-5.33301 16 -16 16h-384c-10.667 0 -16 -5.33301 -16 -16s5.33301 -16 16 -16zM448 161h-384c-10.667 0 -16 -5.33301 -16 -16s5.33301 -16 16 -16h384c10.667 0 16 5.33301 16 16s-5.33301 16 -16 16zM448 97h-384
c-10.667 0 -16 -5.33301 -16 -16s5.33301 -16 16 -16h384c10.667 0 16 5.33301 16 16s-5.33301 16 -16 16zM205 257l-0.99707 0.996094c-18.667 18.667 -28 41.334 -28 68.001s9.33301 49.334 28 68.001c1.33301 0.666992 2.66602 1.83398 3.99902 3.50098
s2.66602 2.83398 3.99902 3.50098c-2 -38.667 10.333 -71.334 37 -98.001c28 -26.667 60.667 -39 98 -37l-9 -9h42c4.66699 7.33301 8.66699 16 12 26c2 6.66699 0.666992 12.334 -4 17.001s-10 6 -16 4c-38 -14 -71.333 -6.66699 -100 22s-36 62 -22 100
c2 6 0.666992 11.333 -4 16s-10.334 6 -17.001 4c-16 -5.33301 -32 -15.333 -48 -30c-21.333 -21.333 -33.5 -47 -36.5 -77s3.5 -57.333 19.5 -82h41z" />
    <glyph glyph-name="tools" unicode=")" 
d="M143 279l41 -42.001l18 18l-28 30l54 57l-14 14c12 42.667 2.66699 79.334 -28 110.001c-29.333 31.333 -64.333 41.333 -105 30l62 -64l-17 -63l-60 -17l-62 64c-11.333 -42 -2 -78.333 28 -109c31.333 -32 68.333 -41.333 111 -28zM349 216.999l-74 -73.002l123 -128
c10 -10 22 -15 36 -15c14.667 0 27 5 37 15c10 10.667 15 23.334 15 38.001s-5 27.334 -15 38.001zM512 430.997l-78 81l-231 -239l28 -29l-138 -143l-32 -16l-44 -73l11 -12l70 46l17 33l138 143l28 -30z" />
    <glyph glyph-name="x-alt" unicode="*" 
d="M256 512c-70.667 0 -131 -25 -181 -75s-75 -110.333 -75 -181s25 -131 75 -181s110.333 -75 181 -75s131 25 181 75s75 110.333 75 181s-25 131 -75 181s-110.333 75 -181 75zM383 175l-46 -46l-81 82l-81 -82l-46 46l82 81l-82 81l46 46l81 -82l81 82l46 -46l-82 -81z
" />
    <glyph glyph-name="play-alt" unicode="+" 
d="M256 512c-70.667 0 -131 -25 -181 -75s-75 -110.333 -75 -181s25 -131 75 -181s110.333 -75 181 -75s131 25 181 75s75 110.333 75 181s-25 131 -75 181s-110.333 75 -181 75zM160 128v256l256 -128z" />
    <glyph glyph-name="measure" unicode="," 
d="M64 213h21v22h-21v-22zM85 427h-21v-22h21v22zM85 43h-21v-22h-43v-21h107v21h-43v22zM64 341h21v22h-21v-22zM64 277h21v22h-21v-22zM192 512v-512h277v512h-277zM363 43h-128v426h128v-426zM427 43h-43v42h43v-42zM427 107h-43v42h43v-42zM427 171h-43v42h43v-42z
M427 235h-43v42h43v-42zM427 299h-43v42h43v-42zM427 363h-43v42h43v-42zM427 427h-43v42h43v-42zM21 491h43v-22h21v22h43v21h-107v-21zM64 85h21v22h-21v-22zM64 149h21v22h-21v-22z" />
    <glyph glyph-name="fullscreen" unicode="-" 
d="M439 119l-74 73l-45 -45l73 -74l-73 -73h192v192zM192 512h-192v-192l73 73l73 -72l45 45l-72 73zM192 147l-45 45l-74 -73l-73 73v-192h192l-73 73zM512 512h-192l73 -73l-72 -73l45 -45l73 72l73 -73v192z" />
    <glyph glyph-name="download" unicode="." 
d="M384 128c0 4 -1.66699 8.33301 -5 13c-4.66699 3.33301 -9 5 -13 5c-5.33301 0 -9.66602 -1.66699 -12.999 -5c-4 -4 -6 -8.33301 -6 -13s2 -9 6 -13c3.33301 -3.33301 7.66602 -5 12.999 -5c4 0 8.33301 1.66699 13 5c3.33301 4.66699 5 9 5 13zM457 128
c0 4 -1.66699 8.33105 -5 12.998c-4.66699 3.33301 -9 5 -13 5s-8.33301 -1.66699 -13 -5c-3.33301 -3.33301 -5 -7.66602 -5 -12.999s1.66699 -9.66602 5 -12.999c4.66699 -3.33301 9 -5 13 -5s8.33301 1.66699 13 5c3.33301 4.66699 5 9 5 13zM494 191.998l0.00195312 -91
c0 -8 -2.66699 -14.667 -8 -20c-6.66699 -5.33301 -13.334 -8 -20.001 -8h-420c-6.66699 0 -13.334 2.66699 -20.001 8c-5.33301 5.33301 -8 12 -8 20v91c0 7.33301 2.66699 13.666 8 18.999s12 8 20 8h133l38 -38c10.667 -10.667 23.667 -16 39 -16s28.333 5.33301 39 16
l39 38h132c8 0 14.667 -2.66699 20 -8s8 -11.666 8 -18.999zM401.002 354.998c3.33301 -8.66699 2 -15.334 -4 -20.001l-128 -128c-4 -4 -8.33301 -6 -13 -6s-9 2 -13 6l-128 128c-6 4.66699 -7.33301 11.334 -4 20.001c3.33301 7.33301 9 11 17 11h73v128
c0 4.66699 2 9 6 13c3.33301 3.33301 7.33301 5 12 5h74c4.66699 0 8.66699 -1.66699 12 -5c4 -4 6 -8.33301 6 -13v-128h73c8 0 13.667 -3.66699 17 -11z" />
    <glyph glyph-name="kreslici-platno-1-kopie-18" unicode="/" 
d="M507 292l-62.002 150l-63 -150c-5.33301 -14 -6.16602 -28.333 -2.49902 -43s11.834 -26.667 24.501 -36c12 -9.33301 25.5 -14 40.5 -14s28.833 4.66699 41.5 14c12 9.33301 20 21.333 24 36s3 29 -3 43zM254.998 292l-62 150l-62 -150c-6 -14 -7 -28.333 -3 -43
s12 -26.667 24 -36s25.667 -14 41 -14s29 4.66699 41 14s20 21.333 24 36s3 29 -3 43zM380.998 164l-62 149l-62 -149c-6 -14 -7 -28.5 -3 -43.5s12 -27.167 24 -36.5s25.667 -14 41 -14s29 4.66699 41 14s20 21.5 24 36.5s3 29.5 -3 43.5zM129.998 164l-63.002 149
l-62 -149c-6 -14 -7 -28.5 -3 -43.5s12 -27.167 24 -36.5c12.667 -9.33301 26.5 -14 41.5 -14s28.5 4.66699 40.5 14c12.667 9.33301 20.834 21.5 24.501 36.5s2.83398 29.5 -2.49902 43.5z" />
    <glyph glyph-name="keyboard" unicode="0" 
d="M102 183v-25c0 -2.66699 -1.33301 -4 -4 -4h-25c-3.33301 0 -5 1.33301 -5 4v25c0 3.33301 1.66699 5 5 5h25c2.66699 0 4 -1.66699 4 -5zM137 252v-26c0 -2.66699 -1.66699 -4 -5 -4h-59c-3.33301 0 -5 1.33301 -5 4v26c0 2.66699 1.66699 4 5 4h59
c3.33301 0 5 -1.33301 5 -4zM102 320v-26c0 -2.66699 -1.33301 -4 -4 -4h-25c-3.33301 0 -5 1.33301 -5 4v26c0 2.66699 1.66699 4 5 4h25c2.66699 0 4 -1.33301 4 -4zM375 183v-25c0 -2.66699 -1.33301 -4 -4 -4h-230c-2.66699 0 -4 1.33301 -4 4v25
c0 3.33301 1.33301 5 4 5h230c2.66699 0 4 -1.66699 4 -5zM205 252v-26c0 -2.66699 -1.33301 -4 -4 -4h-26c-2.66699 0 -4 1.33301 -4 4v26c0 2.66699 1.33301 4 4 4h26c2.66699 0 4 -1.33301 4 -4zM171 320v-26c0 -2.66699 -1.66699 -4 -5 -4h-25
c-2.66699 0 -4 1.33301 -4 4v26c0 2.66699 1.33301 4 4 4h25c3.33301 0 5 -1.33301 5 -4zM273 252v-26c0 -2.66699 -1.33301 -4 -4 -4h-26c-2.66699 0 -4 1.33301 -4 4v26c0 2.66699 1.33301 4 4 4h26c2.66699 0 4 -1.33301 4 -4zM239 320v-26c0 -2.66699 -1.33301 -4 -4 -4
h-26c-2.66699 0 -4 1.33301 -4 4v26c0 2.66699 1.33301 4 4 4h26c2.66699 0 4 -1.33301 4 -4zM341 252v-26c0 -2.66699 -1.33301 -4 -4 -4h-26c-2.66699 0 -4 1.33301 -4 4v26c0 2.66699 1.33301 4 4 4h26c2.66699 0 4 -1.33301 4 -4zM444 183v-25
c0 -2.66699 -1.66699 -4 -5 -4h-25c-2.66699 0 -4 1.33301 -4 4v25c0 3.33301 1.33301 5 4 5h25c3.33301 0 5 -1.66699 5 -5zM307 320v-26c0 -2.66699 -1.33301 -4 -4 -4h-26c-2.66699 0 -4 1.33301 -4 4v26c0 2.66699 1.33301 4 4 4h26c2.66699 0 4 -1.33301 4 -4zM375 320
v-26c0 -2.66699 -1.33301 -4 -4 -4h-25c-3.33301 0 -5 1.33301 -5 4v26c0 2.66699 1.66699 4 5 4h25c2.66699 0 4 -1.33301 4 -4zM444 320v-94c0 -2.66699 -1.66699 -4 -5 -4h-59c-3.33301 0 -5 1.33301 -5 4v26c0 2.66699 1.66699 4 5 4h30v64c0 2.66699 1.33301 4 4 4h25
c3.33301 0 5 -1.33301 5 -4zM478 119v239h-444v-239h444zM512 358v-239c0 -9.33301 -3.33301 -17.333 -10 -24c-8 -6.66699 -16 -10 -24 -10h-444c-8 0 -16 3.33301 -24 10c-6.66699 6.66699 -10 14.667 -10 24v239c-0 10 3.33301 18.333 10 25c8 6.66699 16 10 24 10h444
c8 0 16 -3.33301 24 -10c6.66699 -6.66699 10 -15 10 -25z" />
    <glyph glyph-name="cog-gear" unicode="1" 
d="M329 256c0 20 -7 37.333 -21 52c-14.667 14 -32 21 -52 21s-37.333 -7 -52 -21c-14 -14.667 -21 -32 -21 -52s7 -37.333 21 -52c14.667 -14 32 -21 52 -21s37.333 7 52 21c14 14.667 21 32 21 52zM475 287l-0.000976562 -63.001
c0 -3.33301 -0.666992 -5.66602 -2 -6.99902c-0.666992 -1.33301 -2.66699 -2.66602 -6 -3.99902l-52 -8c-4.66699 -11.333 -8.66699 -20 -12 -26l31 -39c2 -2 3 -4.33301 3 -7s-1 -5 -3 -7c-5.33301 -6.66699 -14.666 -17 -27.999 -31c-14.667 -13.333 -23.667 -20 -27 -20
c-2.66699 0 -5 1 -7 3l-40 31c-5.33301 -3.33301 -14 -7 -26 -11c-2.66699 -23.333 -5.33398 -41 -8.00098 -53c-0.666992 -5.33301 -4 -8 -10 -8h-64c-3.33301 0 -5.66602 0.666992 -6.99902 2c-2 2 -3 4 -3 6l-8 53c-12 4 -20.667 7.33301 -26 10l-40 -30
c-2 -2 -4.33301 -3 -7 -3s-5 1 -7 3c-24.667 22.667 -40.334 38.667 -47.001 48c-1.33301 1.33301 -2 3.66602 -2 6.99902c0 2.66699 0.666992 4.66699 2 6c0.666992 1.33301 2.66699 4.16602 6 8.49902l8 10.5c2.66699 2.66699 5.66699 6.33398 9 11.001l7 10
c-4.66699 8 -8.66699 17.333 -12 28l-52 8c-3.33301 0 -5.33301 1 -6 3c-1.33301 1.33301 -2 3.66602 -2 6.99902v63c0 3.33301 0.666992 5.66602 2 6.99902c0.666992 1.33301 2.33398 2.66602 5.00098 3.99902l53 8c3.33301 9.33301 7.33301 18 12 26
c-10 13.333 -20.333 26.333 -31 39c-2 2.66699 -3 5 -3 7s1 4.33301 3 7c5.33301 8 14.666 18 27.999 30c14 14 23 21 27 21c2.66699 0 5 -1 7 -3l40 -31c5.33301 3.33301 14 7 26 11c2.66699 23.333 5.33398 41 8.00098 53c0.666992 5.33301 4 8 10 8h64
c3.33301 0 5.66602 -0.666992 6.99902 -2c2 -2 3 -4 3 -6l8 -53c12 -4 20.667 -7.33301 26 -10l40 30c2 2 4.33301 3 7 3s5 -1 7 -3c26 -24 41.667 -40.333 47 -49c1.33301 -0.666992 2 -2.66699 2 -6c0 -2.66699 -0.666992 -4.66699 -2 -6
c-0.666992 -1.33301 -2.66699 -4.16602 -6 -8.49902l-8 -10.5c-2.66699 -2.66699 -5.66699 -6.5 -9 -11.5s-5.66602 -8.16699 -6.99902 -9.5c5.33301 -9.33301 9.33301 -18.666 12 -27.999l52 -8c3.33301 0 5.33301 -1 6 -3c1.33301 -1.33301 2 -3.66602 2 -6.99902z" />
    <glyph glyph-name="sipka-sever" unicode="2" 
d="M422 24l-166 126l-166 -126l148 449c2 8.66699 8 13 18 13s16 -4.33301 18 -13zM256 421l-100 -304l100 76l100 -76z" />
    <glyph glyph-name="arrow-doubled-up" unicode="3" 
d="M343 28v195h105l-191 261l-193 -261h105v-195h174z" />
    <glyph glyph-name="arrow-doubled-down" unicode="4" 
d="M169 484v-195h-105l191 -261l193 261h-105v195h-174z" />
    <glyph glyph-name="fog-sunrise" unicode="5" 
d="M256 417c10.667 0 16 5.33301 16 16v32c0 10.667 -5.33301 16 -16 16s-16 -5.33301 -16 -16v-32c0 -10.667 5.33301 -16 16 -16zM380 375l23.001 21.999c7.33301 8 7.33301 15.667 0 23s-15 7.33301 -23 0l-22 -23c-7.33301 -7.33301 -7.33301 -14.666 0 -21.999
s14.666 -7.33301 21.999 0zM64.001 256.999h32c10.667 0 16 5.33301 16 16s-5.33301 16 -16 16h-32c-10.667 0 -16 -5.33301 -16 -16s5.33301 -16 16 -16zM400.001 272.999c0 -10.667 5.33301 -16 16 -16h32c10.667 0 16 5.33301 16 16s-5.33301 16 -16 16h-32
c-10.667 0 -16 -5.33301 -16 -16zM132.001 374.999c7.33301 -7.33301 14.667 -7.33203 22 0.000976562s7.33301 14.666 0 21.999l-22 23c-8 7.33301 -15.667 7.33301 -23 0s-7.33301 -15 0 -23zM146.002 257h32c-1.33301 6.66699 -2 12 -2 16c0 22 7.83301 40.833 23.5 56.5
s34.5 23.5 56.5 23.5s40.833 -7.83301 56.5 -23.5s23.5 -34.5 23.5 -56.5c0 -4 -0.666992 -9.33301 -2 -16h32c1.33301 6.66699 2 12 2 16c0 31.333 -11 57.833 -33 79.5s-48.333 32.5 -79 32.5s-57 -10.833 -79 -32.5s-33 -48.167 -33 -79.5c0 -4 0.666992 -9.33301 2 -16z
M448.002 225h-384c-10.667 0 -16 -5.33301 -16 -16s5.33301 -16 16 -16h384c10.667 0 16 5.33301 16 16s-5.33301 16 -16 16zM448.002 161h-384c-10.667 0 -16 -5.33301 -16 -16s5.33301 -16 16 -16h384c10.667 0 16 5.33301 16 16s-5.33301 16 -16 16zM448.002 97h-384
c-10.667 0 -16 -5.33301 -16 -16s5.33301 -16 16 -16h384c10.667 0 16 5.33301 16 16s-5.33301 16 -16 16z" />
    <glyph glyph-name="sun" unicode="6" 
d="M256 368c-30.667 0 -57 -11 -79 -33s-33 -48.333 -33 -79s11 -57 33 -79s48.333 -33 79 -33s57 11 79 33s33 48.333 33 79s-11 57 -33 79s-48.333 33 -79 33zM256 176c-22 0 -40.833 7.83301 -56.5 23.5s-23.5 34.5 -23.5 56.5s7.83301 40.833 23.5 56.5
s34.5 23.5 56.5 23.5s40.833 -7.83301 56.5 -23.5s23.5 -34.5 23.5 -56.5s-7.83301 -40.833 -23.5 -56.5s-34.5 -23.5 -56.5 -23.5zM256 400c10.667 0 16 5.33301 16 16v32c0 10.667 -5.33301 16 -16 16s-16 -5.33301 -16 -16v-32c0 -10.667 5.33301 -16 16 -16zM256 112
c-10.667 0 -16 -5.33301 -16 -16v-32c0 -10.667 5.33301 -16 16 -16s16 5.33301 16 16v32c0 10.667 -5.33301 16 -16 16zM380 358l23.001 21.999c7.33301 8 7.33301 15.667 0 23s-15 7.33301 -23 0l-22 -23c-7.33301 -7.33301 -7.33301 -14.666 0 -21.999
s14.666 -7.33301 21.999 0zM132.001 153.999l-23.001 -21.999c-7.33301 -8 -7.33301 -15.667 0 -23s15 -7.33301 23 0l22 23c7.33301 7.33301 7.33301 14.666 0 21.999s-14.666 7.33301 -21.999 0zM112 256c0 10.667 -5.33301 16 -16 16h-32c-10.667 0 -16 -5.33301 -16 -16
s5.33301 -16 16 -16h32c10.667 0 16 5.33301 16 16zM448 272h-32c-10.667 0 -16 -5.33301 -16 -16s5.33301 -16 16 -16h32c10.667 0 16 5.33301 16 16s-5.33301 16 -16 16zM132 358c7.33301 -7.33301 14.667 -7.33203 22 0.000976562s7.33301 14.666 0 21.999l-22 23
c-8 7.33301 -15.667 7.33301 -23 0s-7.33301 -15 0 -23zM380.001 154.001c-7.33301 7.33301 -14.667 7.33203 -22 -0.000976562s-7.33301 -14.666 0 -21.999l22 -23c8 -7.33301 15.667 -7.33301 23 0s7.33301 15 0 23z" />
    <glyph glyph-name="cloud-2" unicode="7" 
d="M512 272c0 24.667 -8.66797 45.667 -26.001 63s-38.333 26 -63 26h-7c-24 30.667 -56 46 -96 46s-72 -15.333 -96 -46h-7c-24.667 0 -45.667 -8.66699 -63 -26s-26 -38.333 -26 -63c0 -3.33301 0.666992 -8.33301 2 -15l-2 -2c-3.33301 0.666992 -8.66602 1 -15.999 1
c-30.667 0 -57 -11 -79 -33s-33 -48.333 -33 -79s11 -57 33 -79s48.333 -33 79 -33c14.667 0 28 2.33301 40 7c30 -26 64.667 -39 104 -39s74 13 104 39c12 -4.66699 25.333 -7 40 -7c30.667 0 57 11 79 33s33 48.333 33 79c0 25.333 -8 48 -24 68
c16 17.333 24 37.333 24 60zM399.999 64c-17.333 0 -32.667 5.00098 -46 15.001c-24.667 -31.333 -57.334 -47 -98.001 -47s-73.334 15.667 -98.001 47c-13.333 -10 -28.666 -15 -45.999 -15c-22 0 -40.833 7.83301 -56.5 23.5s-23.5 34.5 -23.5 56.5
s7.83301 40.833 23.5 56.5s34.5 23.5 56.5 23.5c10.667 0 20.667 -2 30 -6c1.33301 1.33301 2 2.33301 2 3c7.33301 11.333 14.333 20.666 21 27.999c24.667 26 55 39 91 39c24.667 0 47 -6.33301 67 -19s35.667 -29.667 47 -51c6 2.66699 11.667 4.33398 17 5.00098l13 1
c12 0 23.333 -2.66699 34 -8c10.667 -4.66699 20.334 -12.334 29.001 -23.001c11.333 -16 17 -32.333 17 -49c0 -22 -7.83301 -40.833 -23.5 -56.5s-34.5 -23.5 -56.5 -23.5zM465.998 234.001c-20 14.667 -42 22 -66 22c-7.33301 0 -12.666 -0.333008 -15.999 -1
c-32 43.333 -74.667 65 -128 65c-33.333 0 -64.333 -10 -93 -30c9.33301 26 27.333 39 54 39c8.66699 0 16 -1.33301 22 -4c17.333 33.333 44.333 50 81 50s63.667 -16.667 81 -50c6 2.66699 13.333 4 22 4c15.333 0 28.666 -5.5 39.999 -16.5s17 -24.5 17 -40.5
c0 -13.333 -4.66699 -26 -14 -38z" />
    <glyph glyph-name="snow-4" unicode="8" 
d="M326 68l-17.998 11c0.666992 2 1 5 1 9c0 4.66699 -0.333008 8 -1 10l18 10c9.33301 6 11.666 14 6.99902 24c-6 10.667 -14.333 13 -25 7l-18 -11c-4.66699 4.66699 -10 8 -16 10v21c0 4.66699 -1.66699 8.83398 -5 12.501s-7.66602 5.5 -12.999 5.5
s-9.66602 -1.83301 -12.999 -5.5s-5 -7.83398 -5 -12.501v-21c-6 -2 -11.333 -5.33301 -16 -10l-18 11c-11.333 6 -19.333 3.66699 -24 -7c-6 -10 -4 -18 6 -24l18 -10c-0.666992 -2 -1 -5.33301 -1 -10c0 -4 0.333008 -7 1 -9l-18 -11c-9.33301 -6 -11.333 -14 -6 -24
s13.333 -12 24 -6l18 10c5.33301 -4 10.666 -7 15.999 -9v-21c0 -5.33301 1.66699 -9.66602 5 -12.999s7.66602 -5 12.999 -5s9.66602 1.66699 12.999 5s5 7.66602 5 12.999v21c5.33301 2 10.666 5 15.999 9l18 -10c10.667 -6 19 -4 25 6
c4.66699 10.667 2.33398 18.667 -6.99902 24zM256.002 71c-4.66699 0 -8.83008 1.66699 -12.4971 5s-5.5 7.33301 -5.5 12c0 5.33301 1.66699 9.66602 5 12.999s7.66602 5 12.999 5s9.66602 -1.66699 12.999 -5s5 -7.66602 5 -12.999c0 -4.66699 -1.83301 -8.66699 -5.5 -12
s-7.83398 -5 -12.501 -5zM474.006 116l-12.0029 2.99902c0 3.33301 -1 7 -3 11l9 9c4.66699 4.66699 4.66699 9.66699 0 15c-5.33301 5.33301 -10.333 5.33301 -15 0l-9 -9c-2 0.666992 -5.66699 1.66699 -11 3l-3 12c-1.33301 7.33301 -5.66602 9.66602 -12.999 6.99902
c-7.33301 -1.33301 -9.66602 -5.66602 -6.99902 -12.999l3 -12c-0.666992 -0.666992 -2 -1.66699 -4 -3c-2 -2 -3.33301 -3.66699 -4 -5l-12 3c-6.66699 2 -11 -0.333008 -13 -7c-1.33301 -6.66699 1.33398 -11 8.00098 -13l12 -3c0 -4 1 -7.66699 3 -11l-9 -9
c-5.33301 -5.33301 -5.33301 -10.333 0 -15s10.333 -4.66699 15 0l8 9c4 -2 7.66699 -3 11 -3l4 -12c1.33301 -7.33301 5.33301 -9.66602 12 -6.99902c6.66699 1.33301 9.33398 5.66602 8.00098 12.999l-3 12c0.666992 0.666992 2 1.66699 4 3c2 2 3.33301 3.66699 4 5
l12 -4c6.66699 -1.33301 11 1.33398 13 8.00098c1.33301 6.66699 -1.33398 11 -8.00098 13zM438.003 108.999c-4.66699 -4.66699 -9.66699 -4.66699 -15 0c-4.66699 4.66699 -4.66699 9.66699 0 15c5.33301 4.66699 10.333 4.66699 15 0
c5.33301 -5.33301 5.33301 -10.333 0 -15zM119.003 168.999l-12.0049 -2.99902c-0.666992 1.33301 -2 3 -4 5c-1.33301 1.33301 -2.66602 2.33301 -3.99902 3l3 12c2.66699 7.33301 0.333984 11.666 -6.99902 12.999c-7.33301 2.66699 -11.666 0.333984 -12.999 -6.99902
l-3 -12c-5.33301 -1.33301 -9 -2.33301 -11 -3l-9 9c-4.66699 5.33301 -9.66699 5.33301 -15 0c-4.66699 -5.33301 -4.66699 -10.333 0 -15l9 -9c-2 -4 -3 -7.66699 -3 -11l-12 -3c-6.66699 -2 -9.33398 -6.33301 -8.00098 -13c2 -6.66699 6.33301 -9.33398 13 -8.00098
l12 4c0.666992 -1.33301 2 -3 4 -5c0.666992 0 1.33398 -0.333008 2.00098 -1l2 -2l-3 -12c-1.33301 -7.33301 1.33398 -11.666 8.00098 -12.999c6.66699 -2.66699 10.667 -0.333984 12 6.99902l4 12c3.33301 0 7 1 11 3l8 -9c5.33301 -4.66699 10.333 -4.66699 15 0
c5.33301 4.66699 5.33301 9.66699 0 15l-9 9c2 3.33301 3 7 3 11l12 3c6.66699 2 9.33398 6.33301 8.00098 13c-2 6.66699 -6.33301 9 -13 7zM88.998 141c-5.33301 -4.66699 -10.333 -4.66699 -15 0c-5.33301 4.66699 -5.33301 9.66699 0 15
c4.66699 4.66699 9.66699 4.66699 15 0c4.66699 -5.33301 4.66699 -10.333 0 -15zM511.998 336c0 30.667 -11.002 57 -33.002 79s-48.333 33 -79 33c-7.33301 0 -12.666 -0.333008 -15.999 -1c-32 43.333 -74.667 65 -128 65s-96 -21.667 -128 -65
c-3.33301 0.666992 -8.66602 1 -15.999 1c-30.667 0 -57 -11 -79 -33s-33 -48.333 -33 -79s11 -57 33 -79s48.333 -33 79 -33c14.667 0 28 2.33301 40 7c30 -26 64.667 -39 104 -39s74 13 104 39c12 -4.66699 25.333 -7 40 -7c30.667 0 57 11 79 33s33 48.333 33 79z
M353.996 271c-24.667 -31.333 -57.334 -47 -98.001 -47s-73.334 15.667 -98.001 47c-13.333 -10 -28.666 -15 -45.999 -15c-22 0 -40.833 7.83301 -56.5 23.5s-23.5 34.5 -23.5 56.5s7.83301 40.833 23.5 56.5s34.5 23.5 56.5 23.5c10.667 0 20.667 -2 30 -6
c11.333 21.333 27 38.333 47 51s42.333 19 67 19s47 -6.33301 67 -19s35.667 -29.667 47 -51c9.33301 4 19.333 6 30 6c22 0 40.833 -7.83301 56.5 -23.5s23.5 -34.5 23.5 -56.5s-7.83301 -40.833 -23.5 -56.5s-34.5 -23.5 -56.5 -23.5c-17.333 0 -32.666 5 -45.999 15z" />
    <glyph glyph-name="rain-2" unicode="9" 
d="M400 448c-7.33301 0 -12.668 -0.333008 -16.001 -1c-32 43.333 -74.667 65 -128 65s-96 -21.667 -128 -65c-3.33301 0.666992 -8.66602 1 -15.999 1c-30.667 0 -57 -11 -79 -33s-33 -48.333 -33 -79s11 -57 33 -79s48.333 -33 79 -33c14.667 0 28 2.33301 40 7
c30 -26 64.667 -39 104 -39s74 13 104 39c12 -4.66699 25.333 -7 40 -7c30.667 0 57 11 79 33s33 48.333 33 79s-11 57 -33 79s-48.333 33 -79 33zM399.998 256c-17.333 0 -32.666 5 -45.999 15c-24.667 -31.333 -57.334 -47 -98.001 -47s-73.334 15.667 -98.001 47
c-13.333 -10 -28.666 -15 -45.999 -15c-22 0 -40.833 7.83301 -56.5 23.5s-23.5 34.5 -23.5 56.5s7.83301 40.833 23.5 56.5s34.5 23.5 56.5 23.5c10.667 0 20.667 -2 30 -6c11.333 21.333 27 38.333 47 51s42.333 19 67 19s47 -6.33301 67 -19s35.667 -29.667 47 -51
c9.33301 4 19.333 6 30 6c22 0 40.833 -7.83301 56.5 -23.5s23.5 -34.5 23.5 -56.5s-7.83301 -40.833 -23.5 -56.5s-34.5 -23.5 -56.5 -23.5zM224.998 32c0 -9.33301 3.16602 -17 9.49902 -23s13.833 -9 22.5 -9s16.167 3 22.5 9s9.5 13.667 9.5 23
c0 5.33301 -2.66699 13.333 -8 24s-10.666 20 -15.999 28l-8 12c-21.333 -30.667 -32 -52 -32 -64zM351.997 64c0 -9.33301 2.99902 -17 8.99902 -23s13.667 -9 23 -9s17 3 23 9s9 13.667 9 23c0 5.33301 -2.66699 13.333 -8 24s-10.666 20 -15.999 28l-8 12
c-21.333 -30.667 -32 -52 -32 -64zM95.9961 128c0 -9.33301 2.99902 -17 8.99902 -23s13.667 -9 23 -9s17 3 23 9s9 13.667 9 23c0 5.33301 -2.66699 13.333 -8 24s-10.666 20 -15.999 28l-8 12c-21.333 -30.667 -32 -52 -32 -64z" />
    <glyph glyph-name="kreslici-platno-1-kopie-19" unicode=":" 
d="M499 396l-388.999 -0.00195312c-8.66699 0 -13 -4.33301 -13 -13c0 -8 4.33301 -12 13 -12h179v-14c2 0.666992 5 1 9 1c1.33301 0 2.66602 -1.16699 3.99902 -3.5s2.5 -4.66602 3.5 -6.99902s2 -4.16602 3 -5.49902s2 -0.833008 3 1.5s1.83301 6.83301 2.5 13.5h6v14
h179c8 0 12 4 12 12c0 8.66699 -4 13 -12 13zM47.001 290.998c0 -9.33301 4.33496 -14.999 13.002 -16.999l150 -29c2.66699 -13.333 5 -23 7 -29c5.33301 -14.667 15.166 -28.167 29.499 -40.5s30.833 -18.5 49.5 -18.5h103c12.667 0 23.834 3.66699 33.501 11
s16.167 16.666 19.5 27.999c5.33301 12 6.16602 24.5 2.49902 37.5s-12.834 29.5 -27.501 49.5c-13.333 18 -30.166 30.833 -50.499 38.5s-37.833 11.5 -52.5 11.5c-1.33301 0 -5.66602 0.166992 -12.999 0.5s-13.333 0.333008 -18 0s-10.834 -1 -18.501 -2
s-15.334 -3.5 -23.001 -7.5s-15.167 -9.33301 -22.5 -16h-165c-4.66699 0 -8.66699 -1.66699 -12 -5c-3.33301 -2.66699 -5 -6.66699 -5 -12zM324.003 310.999c11.333 0 25.6699 -3.33203 43.0029 -9.99902s31.333 -17.334 42 -32.001c15.333 -20 23.666 -36 24.999 -48h-64
c-13.333 0 -25.333 4.66699 -36 14s-17.667 19.333 -21 30c-3.33301 8 -5.33301 17 -6 27c-0.666992 4 0.666016 8.33301 3.99902 13c3.33301 4 7.66602 6 12.999 6zM23.0068 292c0 10.667 3.83008 20.002 11.4971 28.002s16.834 12 27.501 12h58
c-8.66699 10.667 -19.667 18 -33 22s-26.666 3.66699 -39.999 -1c-13.333 -4 -24.166 -11.5 -32.499 -22.5s-12.833 -23.5 -13.5 -37.5c-2 -30 11 -51.667 39 -65c28.667 -12 53.667 -7.33301 75 14l-60 12c-9.33301 1.33301 -17 5.66602 -23 12.999s-9 15.666 -9 24.999z
M474.004 177.002l-24 -23c-9.33301 -10.667 -21.333 -16 -36 -16h-203c-8 0 -12 -3.66699 -12 -11s4 -11 12 -11h203c20 0 37.333 7.33301 52 22l24 23c4.66699 6 4.66699 11.333 0 16c-6 6 -11.333 6 -16 0z" />
    <glyph glyph-name="level-up" unicode=";" 
d="M401 340c-4 -7.33301 -9.66797 -11 -17.001 -11h-55v-247c0 -2.66699 -0.666992 -4.66699 -2 -6c-2 -2 -4.33301 -3 -7 -3h-201c-4 0 -6.66699 1.66699 -8 5c-2 4 -1.66699 7.33301 1 10l45 55c2 2 4.66699 3 8 3h91v183h-55c-7.33301 0 -12.666 3.66699 -15.999 11
c-4 6.66699 -3.33301 13 2 19l92 110c3.33301 4 8 6 14 6c5.33301 0 10 -2 14 -6l91 -110c4.66699 -6 5.66699 -12.333 3 -19z" />
    <glyph glyph-name="chevron-left" unicode="&#x3c;" 
d="M303 63l-186 186.002c-6.66699 6.66699 -10 15 -10 25c0 10.667 3.33301 19.334 10 26.001l186 186c7.33301 7.33301 16 11 26 11s18.667 -3.66699 26 -11l22 -21c6.66699 -6.66699 10 -15.334 10 -26.001s-3.33301 -19.334 -10 -26.001l-139 -139l139 -138
c6.66699 -7.33301 10 -16 10 -26c0 -10.667 -3.33301 -19.334 -10 -26.001l-22 -21c-7.33301 -7.33301 -16 -11 -26 -11s-18.667 3.66699 -26 11z" />
    <glyph glyph-name="world" unicode="=" 
d="M248 512c-68.667 0 -127.167 -24.167 -175.5 -72.5s-72.5 -106.833 -72.5 -175.5s24.167 -127.167 72.5 -175.5s106.833 -72.5 175.5 -72.5s127.167 24.167 175.5 72.5s72.5 106.833 72.5 175.5s-24.167 127.167 -72.5 175.5s-106.833 72.5 -175.5 72.5zM464 272
l-96 -0.000976562c-0.666992 34 -7 67.333 -19 100c21.333 8.66699 41.333 20.334 60 35.001c34.667 -39.333 53 -84.333 55 -135zM239 47.999c-28.667 25.333 -50.333 53.666 -65 84.999c22.667 6.66699 44.667 10.334 66 11.001v-96h-1zM257.001 479.999
c32 -27.333 55.667 -59.999 71 -97.999c-24 -8.66699 -48 -13.334 -72 -14.001v112h1zM283.001 477c44.667 -8 83 -27.333 115 -58c-18 -14 -36.333 -24.667 -55 -32c-13.333 33.333 -33.333 63.333 -60 90zM240.001 480v-112.001c-24 0.666992 -48 5.33398 -72 14.001
c15.333 38 39 70.667 71 98h1zM153.001 386.999c-18.667 7.33301 -37 18 -55 32c32 30.667 70.333 50 115 58c-26.667 -26.667 -46.667 -56.667 -60 -90zM162.001 366.999c24 -8.66699 50 -13.668 78 -15.001v-80h-96c1.33301 34.667 7.33301 66.334 18 95.001z
M240.001 255.998l0.000976562 -96.001c-26.667 -1.33301 -51 -5.66602 -73 -12.999c-14.667 36.667 -22.334 73 -23.001 109h96zM213.002 50.9971c-40 7.33301 -75 23.667 -105 49c16 10.667 33 19.667 51 27c14 -28.667 32 -54 54 -76zM256.002 47.998l0.000976562 96
c21.333 -0.666992 43.333 -4.33398 66 -11.001c-14.667 -31.333 -36.334 -59.666 -65.001 -84.999h-1zM337.003 126.998c18 -7.33301 35 -16.334 51 -27.001c-30 -25.333 -65 -41.666 -105 -48.999c22 22 40 47.333 54 76zM329.003 146.997
c-22 7.33301 -46.332 11.667 -72.999 13v96h96c-0.666992 -36 -8.33398 -72.333 -23.001 -109zM256.004 271.998v80.001c28 1.33301 54 6.33301 78 15c10.667 -28.667 16.667 -60.334 18 -95.001h-96zM87.0039 406.999c18.667 -14.667 38.667 -26.333 60 -35
c-12 -32.667 -18.333 -66 -19 -100h-96c2 50.667 20.333 95.667 55 135zM32.0039 256h96.001c0.666992 -38.667 8.66699 -76.667 24 -114c-18.667 -7.33301 -37.334 -17.666 -56.001 -30.999c-40.667 39.333 -62 87.666 -64 144.999zM400.005 111
c-18.667 13.333 -37.333 23.666 -56 30.999c15.333 37.333 23.333 75.333 24 114h96c-2 -57.333 -23.333 -105.666 -64 -144.999z" />
    <glyph glyph-name="chevron-right" unicode="&#x3e;" 
d="M405 274c0 -10 -3.33105 -18.6689 -9.99805 -26.002l-186 -186c-6.66699 -6.66699 -15.334 -10 -26.001 -10s-19.334 3.33301 -26.001 10l-22 22c-6.66699 6.66699 -10 15.334 -10 26.001c0 10 3.33301 18.333 10 25l139 139l-139 139
c-6.66699 6.66699 -10 15.334 -10 26.001s3.33301 19.334 10 26.001l22 21c7.33301 7.33301 16 11 26 11s18.667 -3.66699 26 -11l186 -186c6.66699 -6.66699 10 -15.334 10 -26.001z" />
    <glyph glyph-name="angle-down" unicode="?" 
d="M399 302c0 -2.66699 -1 -5 -3 -7l-133 -133c-2 -2 -4.33301 -3 -7 -3s-5 1 -7 3l-133 133c-2 2 -3 4.33301 -3 7c0 2 1 4 3 6l15 15c1.33301 1.33301 3.33301 2 6 2c2 0 4.33301 -0.666992 7 -2l112 -113l112 113c2.66699 1.33301 5 2 7 2
c2.66699 0 4.66699 -0.666992 6 -2l15 -15c2 -2 3 -4 3 -6z" />
    <glyph glyph-name="thumbs-down" unicode="@" 
d="M163 188c-1.33301 2.66699 -11 5 -29 7c-14 1.33301 -32.667 5.33301 -56 12c-18 6 -27 14 -27 24c0 24 10.667 72.667 32 146c20.667 72.667 38.667 109 54 109c50.667 0 100 -7.33301 148 -22c48.667 -14 73 -29 73 -45v-175c0 -4 -1.33301 -8.33301 -4 -13
c-0.666992 -0.666992 -4.66699 -5.66699 -12 -15c-8 -6.66699 -13.667 -11.667 -17 -15c-10 -8 -17 -13.333 -21 -16c-10 -7.33301 -17 -12.333 -21 -15c-1.33301 -0.666992 -3 -1.66699 -5 -3l-8 -5.5l-8 -5.5l-17 -12c-16.667 -10.667 -34.667 -27.667 -54 -51l-22 -27.5
l-21 -25.5c-10.667 -12.667 -17.667 -17 -21 -13c-16 26 -21 49.333 -15 70c6.66699 20 16.667 40.333 30 61zM384 190c-4.66699 0 -4.33301 2.66797 1 8.00098c16.667 18 25 35.667 25 53v163c0 17.333 -9 35 -27 53c-3.33301 3.33301 -3 5 1 5c10 0 19.333 -1.33301 28 -4
c11.333 -3.33301 22 -11 32 -23c11.333 -13.333 17 -30.333 17 -51v-124c0 -16.667 -3 -30.334 -9 -41.001c-8 -12.667 -15.667 -21 -23 -25c-8.66699 -4.66699 -17 -8 -25 -10c-6 -2.66699 -12.667 -4 -20 -4v0z" />
    <glyph glyph-name="twitter" unicode="A" 
d="M481 395c-14 -19.333 -29.332 -35 -45.999 -47v-12c0 -27.333 -3.66699 -52 -11 -74c-7.33301 -25.333 -18.333 -49 -33 -71c-12.667 -20.667 -30 -41 -52 -61c-22 -18 -46.667 -31.667 -74 -41c-28 -10.667 -58.667 -16 -92 -16c-51.333 0 -98.666 14 -141.999 42
c9.33301 -1.33301 16.666 -2 21.999 -2c42 0 80.333 13.333 115 40c-20 0 -38 6 -54 18s-27 27.333 -33 46c9.33301 -1.33301 15.333 -2 18 -2c8.66699 0 16.667 1.33301 24 4c-20.667 4 -38.334 14.333 -53.001 31c-14 17.333 -21 37 -21 59v1
c13.333 -7.33301 27.333 -11 42 -11c-12.667 8 -22.667 18.667 -30 32c-7.33301 12.667 -11 27.334 -11 44.001c0 17.333 4 33 12 47c23.333 -28.667 51.333 -51.334 84 -68.001c34 -17.333 69.667 -27 107 -29c-2 8 -3 15.333 -3 22c0 25.333 9 47 27 65s40 27 66 27
c26.667 0 49 -9.66699 67 -29c20.667 4 40.334 11.333 59.001 22c-6.66699 -22 -20.334 -39 -41.001 -51c16 2 33.667 6.66699 53 14z" />
    <glyph glyph-name="clock" unicode="B" 
d="M256 492c64 0 119.333 -23.333 166 -70s70 -102 70 -166s-23.333 -119.333 -70 -166s-102 -70 -166 -70s-119.333 23.333 -166 70s-70 102 -70 166s23.333 119.333 70 166s102 70 166 70zM256 72c51.333 0 95.001 17.999 131.001 53.999c35.333 36.667 53 80 53 130
c0 50.667 -17.667 94.334 -53 131.001c-36.667 35.333 -80.334 53 -131.001 53c-50 0 -93.333 -17.667 -130 -53c-36 -36 -54 -79.667 -54 -131c0 -50.667 18 -94 54 -130s79.333 -54 130 -54zM274.001 388.999v-125l77 -77l-25 -25l-87 87v140h35v0z" />
    <glyph glyph-name="sipka-sever-plna" unicode="C" 
d="M422 24l-166 126l-166 -126l148 449c2 8.66699 8 13 18 13s16 -4.33301 18 -13z" />
    <glyph glyph-name="map-pin-5" unicode="D" 
d="M240 512c-19.333 0 -38.502 -2.5 -57.502 -7.5s-37.833 -13 -56.5 -24s-33.667 -27.667 -45 -50s-17 -48.5 -17 -78.5c0 -14.667 7.83301 -39.5 23.5 -74.5s32.334 -68.167 50.001 -99.5l61.5 -106.5c23.333 -39.667 37 -63.5 41 -71.5c4 8 17.667 31.833 41 71.5
l61.5 106.5c17.667 31.333 34.334 64.5 50.001 99.5s23.5 59.833 23.5 74.5c0 30 -5.66699 56.167 -17 78.5s-26.333 39 -45 50s-37.5 19 -56.5 24s-38.167 7.5 -57.5 7.5zM239.998 296c-15.333 0 -28.5 5.5 -39.5 16.5s-16.5 24.167 -16.5 39.5s5.5 28.5 16.5 39.5
s24.167 16.5 39.5 16.5s28.5 -5.5 39.5 -16.5s16.5 -24.167 16.5 -39.5s-5.5 -28.5 -16.5 -39.5s-24.167 -16.5 -39.5 -16.5v0z" />
    <glyph glyph-name="facebook-alt" unicode="E" 
d="M486 410c0 20 -7.66699 37.667 -23 53s-33 23 -53 23h-308c-20 0 -37.667 -7.66699 -53 -23s-23 -33 -23 -53v-308c0 -20 7.66699 -37.667 23 -53s33 -23 53 -23h154v174h-56v76h56v30c0 26 8.5 48.833 25.5 68.5s37.167 29.5 60.5 29.5h62v-76h-62
c-3.33301 0 -6.5 -2 -9.5 -6s-4.5 -9 -4.5 -15v-31h76v-76h-76v-174h82c20 0 37.667 7.66699 53 23s23 33 23 53v308z" />
    <glyph glyph-name="log-out" unicode="F" 
d="M352 134v58.998l38 31v-109c0 -12.667 -6.33301 -19 -19 -19h-288c-5.33301 0 -9.83301 1.83301 -13.5 5.5s-5.5 8.16699 -5.5 13.5v218c0 12.667 6.33301 19 19 19h120c-8.66699 -5.33301 -16.5 -11.166 -23.5 -17.499s-12.167 -11.166 -15.5 -14.499l-4 -6h-58v-180
h250zM320 287.998c-40.667 0 -71.833 -6.66992 -93.5 -20.0029s-43.834 -38.666 -66.501 -75.999c0 4.66699 0.5 10.667 1.5 18s4.5 20.333 10.5 39s14.167 35.334 24.5 50.001s26.333 27.834 48 39.501s46.834 17.5 75.501 17.5v60l128 -96l-128 -96v64z" />
    <glyph glyph-name="toggle-off" unicode="G" 
d="M293 256c0 20 -4 39 -12 57s-18.333 33.333 -31 46c-12 12.667 -27.667 23.334 -47 32.001c-18.667 7.33301 -37.667 11 -57 11c-18.667 0 -37.334 -3.66699 -56.001 -11c-19.333 -8.66699 -35 -19.334 -47 -32.001c-14 -14 -24.333 -29.333 -31 -46
c-8 -18 -12 -37 -12 -57s4 -39 12 -57c6.66699 -16.667 17 -32 31 -46c12 -12.667 27.667 -23.334 47 -32.001c18.667 -7.33301 37.334 -11 56.001 -11c19.333 0 38.333 3.66699 57 11c19.333 8.66699 35 19.334 47 32.001c12.667 12.667 23 28 31 46s12 37 12 57zM512 256
c0 20 -4 38.9961 -12 56.9961c-6.66699 16.667 -17 32 -31 46c-12 12.667 -27.667 23.334 -47 32.001c-18.667 7.33301 -37.334 11 -56.001 11h-111c23.333 -17.333 41.333 -38.666 54 -63.999c13.333 -24 20 -51.333 20 -82s-6.66699 -58 -20 -82
c-12.667 -25.333 -30.667 -46.666 -54 -63.999h111c18.667 0 37.334 3.66699 56.001 11c19.333 8.66699 35 19.334 47 32.001c14 14 24.333 29.333 31 46c8 18 12 37 12 57zM549 255.996c0 -24 -5 -47.667 -15 -71c-10 -22.667 -23 -42 -39 -58
c-15.333 -16.667 -34.666 -29.667 -57.999 -39c-23.333 -10 -47 -15 -71 -15h-220c-24 0 -47.667 5 -71 15c-23.333 9.33301 -42.666 22.333 -57.999 39c-16 16 -29 35.333 -39 58c-10 23.333 -15 47 -15 71s5 47.667 15 71c10 22.667 23 42 39 58
c15.333 16.667 34.666 29.667 57.999 39c23.333 10 47 15 71 15h220c24 0 47.667 -5 71 -15c23.333 -9.33301 42.666 -22.333 57.999 -39c16 -16 29 -35.333 39 -58c10 -23.333 15 -47 15 -71z" />
    <glyph glyph-name="umbrella" unicode="H" 
d="M256 479l-0.00195312 16.998c0 10.667 -5.33301 16 -16 16s-16 -5.33301 -16 -16v-17c-62.667 -4 -115.667 -29 -159 -75s-65 -100.667 -65 -164c0 -7.33301 0.333008 -12.666 1 -15.999h1c3.33301 18.667 12.333 34 27 46s31.667 18 51 18s36.333 -6 51 -18
s23.667 -27.333 27 -46h4c2.66699 15.333 9.83398 28.833 21.501 40.5s25.167 18.834 40.5 21.501v-174c0 -25.333 -2.33301 -44 -7 -56s-9.66699 -19 -15 -21s-14 -3 -26 -3c-22 0 -35.5 3.33301 -40.5 10s-7.5 19.334 -7.5 38.001c0 10.667 -5.33301 16 -16 16
s-16 -5.33301 -16 -16c0 -8.66699 0.166992 -15.667 0.5 -21s1.83301 -12.166 4.5 -20.499s6.66699 -15 12 -20s13.333 -9.33301 24 -13s23.667 -5.5 39 -5.5c26 0 45.833 7 59.5 21s20.5 44.333 20.5 91v174c15.333 -2.66699 28.833 -9.83398 40.5 -21.501
s18.834 -25.167 21.501 -40.5h4c3.33301 18.667 12.333 34 27 46s31.667 18 51 18s36.333 -6 51 -18s23.667 -27.333 27 -46h1c0.666992 3.33301 1 8.66602 1 15.999c0 63.333 -21.667 118 -65 164s-96.333 71 -159 75v0z" />
    <glyph glyph-name="toggle-on" unicode="I" 
d="M-37 256c0 24 5 47.667 15 71c10 22.667 23 42 39 58c15.333 16.667 34.666 29.667 57.999 39c23.333 10 47 15 71 15h220c24 0 47.667 -5 71 -15c23.333 -9.33301 42.666 -22.333 57.999 -39c16 -16 29 -35.333 39 -58c10 -23.333 15 -47 15 -71s-5 -47.667 -15 -71
c-10 -22.667 -23 -42 -39 -58c-15.333 -16.667 -34.666 -29.667 -57.999 -39c-23.333 -10 -47 -15 -71 -15h-220c-24 0 -47.667 5 -71 15c-23.333 9.33301 -42.666 22.333 -57.999 39c-16 16 -29 35.333 -39 58c-10 23.333 -15 47 -15 71zM366 110
c18.667 0 37.334 3.66699 56.001 11c19.333 8.66699 35 19.334 47 32.001c14 14 24.333 29.333 31 46c8 18 12 37 12 57s-4 39 -12 57c-6.66699 16.667 -17 32 -31 46c-12 12.667 -27.667 23.334 -47 32.001c-18.667 7.33301 -37.334 11 -56.001 11
c-19.333 0 -38.333 -3.66699 -57 -11c-19.333 -8.66699 -35 -19.334 -47 -32.001c-12.667 -12.667 -23 -28 -31 -46s-12 -37 -12 -57s4 -39 12 -57s18.333 -33.333 31 -46c12 -12.667 27.667 -23.334 47 -32.001c18.667 -7.33301 37.667 -11 57 -11z" />
    <glyph glyph-name="07d" unicode="J" 
d="M384 366c30.667 0 56.667 -10.667 78 -32s32 -47.333 32 -78s-10.667 -56.667 -32 -78s-47.333 -32 -78 -32h-256c-30.667 0 -56.667 10.667 -78 32s-32 47.333 -32 78s10.667 56.667 32 78s47.333 32 78 32h256zM384 384h-256c-34.667 0 -64.667 -12.667 -90 -38
s-38 -55.333 -38 -90s12.667 -64.667 38 -90s55.333 -38 90 -38h256c34.667 0 64.667 12.667 90 38s38 55.333 38 90s-12.667 64.667 -38 90s-55.333 38 -90 38zM128 355c-27.333 0 -50.666 -9.66699 -69.999 -29s-29 -42.666 -29 -69.999s9.66699 -50.666 29 -69.999
s42.666 -29 69.999 -29s50.666 9.66699 69.999 29s29 42.666 29 69.999s-9.66699 50.666 -29 69.999s-42.666 29 -69.999 29zM95 322l14.999 -25.998c0 -0.666992 -0.333008 -1.33398 -1 -2.00098s-1.66699 -1.33398 -3 -2.00098s-2.66602 -1.66699 -3.99902 -3l-14 26z
M83.999 249.002h-29v14h29v-7v-7zM94.999 190.002l-7.00098 6.99902l14 26c1.33301 -1.33301 3.33301 -2.66602 6 -3.99902s4.33398 -2.33301 5.00098 -3zM94.998 256.001c0 9.33301 3.16699 17.166 9.5 23.499s14.166 9.5 23.499 9.5s17.166 -3.16699 23.499 -9.5
s9.5 -14.166 9.5 -23.499s-3.16699 -17.166 -9.5 -23.499s-14.166 -9.5 -23.499 -9.5s-17.166 3.16699 -23.499 9.5s-9.5 14.166 -9.5 23.499zM160.998 190.001l-18.001 26c2.66699 0 6.33398 2.33301 11.001 7l14 -26zM153.997 289.001
c-1.33301 1.33301 -3.33203 2.66699 -5.99902 4s-4.33398 2.33301 -5.00098 3l14 26l11 -7zM171.998 249.002v7v7h29v-11h-29v-3zM387.998 201.002c-16.667 0 -30.667 5.66797 -42 17.001s-17 25.333 -17 42c0 22 9.66699 39 29 51c-4.66699 -10.667 -7 -20.334 -7 -29.001
c0 -16.667 5.66699 -30.667 17 -42s25.333 -17 42 -17c2 0 11.667 2.33301 29 7c-12 -19.333 -29 -29 -51 -29v0z" />
    <glyph glyph-name="logo-inverzni" unicode="K" 
d="M416 512h-320c-26.667 0 -49.334 -9.33301 -68.001 -28s-28 -41.334 -28 -68.001v-320c0 -26.667 9.33301 -49.334 28 -68.001s41.334 -28 68.001 -28h320c26.667 0 49.334 9.33301 68.001 28s28 41.334 28 68.001v320c0 26.667 -9.33301 49.334 -28 68.001
s-41.334 28 -68.001 28zM432 346c0 -0.666992 -0.65625 -2.99805 -1.98926 -6.99805s-2.33301 -7.66699 -3 -11c-4.66699 -18 -10.667 -39.667 -18 -65c-1.33301 -4.66699 -6 -19 -14 -43c-9.33301 -23.333 -16 -39 -20 -47c-10 -20.667 -19.667 -37 -29 -49
c-8.66699 -10 -16 -17.333 -22 -22c-6.66699 -4 -12 -6.66699 -16 -8c-2 -1.33301 -5 -2.33301 -9 -3c-0.666992 0 -1.33398 -0.166992 -2.00098 -0.5s-1.33398 -0.5 -2.00098 -0.5h-3h-2h-1h-2h-2h-5c-2 0 -5 0.666992 -9 2c-4.66699 1.33301 -9.66699 3.33301 -15 6
c-0.666992 0 -1.5 -0.333008 -2.5 -1s-1.83301 -1 -2.5 -1l-2 -1c-0.666992 -0.666992 -1.33398 -1 -2.00098 -1h-2c-0.666992 -0.666992 -1.33398 -1 -2.00098 -1s-1.5 -0.166992 -2.5 -0.5s-1.83301 -0.5 -2.5 -0.5c-0.666992 -0.666992 -2.33398 -1 -5.00098 -1
c-0.666992 0 -1.33398 -0.166992 -2.00098 -0.5s-1.33398 -0.5 -2.00098 -0.5h-2h-1h-1h-1c-4.66699 0 -8 0.333008 -10 1c-7.33301 1.33301 -13.333 3.33301 -18 6c-9.33301 4 -19 11 -29 21c-10.667 13.333 -17 22 -19 26c-4 6 -8.66699 15 -14 27
c-3.33301 6 -7 15 -11 27c-0.666992 0.666992 -1.33398 1.83398 -2.00098 3.50098s-1 2.83398 -1 3.50098l-1 3c0 2 -0.333008 3.33301 -1 4c0 0.666992 -0.166992 1.66699 -0.5 3s-0.5 2.66602 -0.5 3.99902c-0.666992 0.666992 -1 1.66699 -1 3s-0.333008 2.33301 -1 3
c-2 7.33301 -5.33301 23.333 -10 48c-1.33301 10 -3.5 23 -6.5 39s-4.83301 26.667 -5.5 32l-3 20l-1 7c-1.33301 8 0.5 15.333 5.5 22s11.833 10.667 20.5 12c8 1.33301 15.333 -0.5 22 -5.5s10.667 -11.833 12 -20.5v-2v-1v-6c0.666992 -2 1.16699 -5.33301 1.5 -10
s0.5 -8 0.5 -10c0.666992 -6 1.5 -17.167 2.5 -33.5s1.83301 -28.5 2.5 -36.5l6 -45c0 -0.666992 0.166992 -1.66699 0.5 -3s0.5 -2.33301 0.5 -3s0.166992 -1.66699 0.5 -3s0.5 -2.33301 0.5 -3l1 -3v-3c0.666992 -0.666992 1 -1.66699 1 -3s0.333008 -2.33301 1 -3
c0.666992 -5.33301 3 -13.333 7 -24c6 -18 13.333 -32.667 22 -44c3.33301 -4.66699 8.66602 -10 15.999 -16c2 -1.33301 5 -2.66602 9 -3.99902c0.666992 0 1.33398 -0.166992 2.00098 -0.5s1.33398 -0.5 2.00098 -0.5h1h2h3h2
c-0.666992 1.33301 -1.66699 2.66602 -3 3.99902c-6 9.33301 -10.333 19 -13 29c-4 12 -6.66699 21 -8 27c-2.66699 12 -4.66699 20.667 -6 26c-0.666992 1.33301 -1 3.66602 -1 6.99902c0 0.666992 -0.333008 1.66699 -1 3s-1 2.33301 -1 3
c0 2.66699 -0.666992 6.66699 -2 12c-2.66699 24 -4.33398 39.667 -5.00098 47c-1.33301 18.667 -2 31.667 -2 39c-0.666992 8 -1 18 -1 30v20v7c0 8.66699 3 15.834 9 21.501s13.333 8.5 22 8.5c8 -0.666992 14.833 -3.83398 20.5 -9.50098s8.5 -12.834 8.5 -21.501v-3
c0 -1.33301 -0.333008 -3.33301 -1 -6c0 -1.33301 -0.166992 -4 -0.5 -8s-0.5 -7.33301 -0.5 -10c-1.33301 -10.667 -2 -20.334 -2 -29.001c-0.666992 -7.33301 -1 -19.666 -1 -36.999c0 -18.667 0.333008 -33 1 -43v-12c0.666992 -1.33301 1 -3.33301 1 -6
s0.333008 -4.66699 1 -6c0 -8 1 -16 3 -24c1.33301 -10.667 2.66602 -18.667 3.99902 -24c2 -6.66699 4.66699 -14.334 8 -23.001c1.33301 -2.66699 2.66602 -4.66699 3.99902 -6c0.666992 0.666992 1.83398 1.66699 3.50098 3s2.83398 2.33301 3.50098 3
c9.33301 7.33301 22 20.333 38 39c10.667 14 20.667 28 30 42c8 12 16 25.667 24 41c13.333 24 24 45 32 63l9 25c-1.33301 -6.66699 -3.66602 -15.334 -6.99902 -26.001c-4 -13.333 -12.333 -35.666 -25 -66.999c-8 -18 -15 -32.333 -21 -43
c-6.66699 -14 -15.334 -29.667 -26.001 -47c-16.667 -22.667 -29 -38 -37 -46c0 -1.33301 -0.666992 -2 -2 -2h1h2h2c2 0 3.66699 0.333008 5 1c2 0 5 1.33301 9 4c5.33301 2.66699 11.666 7.66699 18.999 15c12 12.667 22.333 26 31 40
c3.33301 5.33301 7.66602 13 12.999 23l11 21c5.33301 10.667 11.333 24 18 40c12.667 30 21 51 25 63c4 10.667 6.33301 16.667 7 18l2 6c-0.666992 -2 -1.33398 -4.66699 -2.00098 -8z" />
    <glyph glyph-name="info-circled" unicode="L" 
d="M253 492c64.667 0 120.333 -22.333 167 -67c46 -44.667 70 -99.667 72 -165c0 -66 -22.667 -121.667 -68 -167c-44.667 -46.667 -99.667 -71 -165 -73c-66 0 -121.667 22.667 -167 68c-46.667 45.333 -70.667 100.333 -72 165c-1.33301 65.333 21 121 67 167
c46 47.333 101.333 71.333 166 72zM279.999 414c-14.667 0 -25.999 -4.33301 -33.999 -13c-8 -8 -12 -16.333 -12 -25c0 -10 2.66699 -17.667 8 -23c6.66699 -5.33301 15 -8 25 -8c13.333 0 23.666 3.66699 30.999 11c8 8 12 17.333 12 28c0 20 -10 30 -30 30zM218 110
c11.333 0 25.667 4.33398 43 13.001c19.333 9.33301 37.333 22.666 54 39.999l-9 12c-16 -12 -28.333 -18 -37 -18c-4 0 -4.66699 6.33301 -2 19l22 82c8.66699 32.667 5 49 -11 49c-10.667 0 -26 -5 -46 -15c-22.667 -11.333 -42.334 -24 -59.001 -38l8 -13
c18.667 11.333 31.334 17 38.001 17c4 0 4 -5.66699 0 -17l-18 -78c-8.66699 -35.333 -3 -53 17 -53v0z" />
    <glyph glyph-name="bubbles-talk-1" unicode="M" 
d="M448 352l-31.999 0.000976562v-32c0 -24.667 -9.83301 -46.834 -29.5 -66.501s-41.834 -29.5 -66.501 -29.5h-147l-45 -45v-19c0 -16 6.66699 -30.667 20 -44s28 -20 44 -20h160l96 -96v96c16 0 30.667 6.66699 44 20s20 28 20 44v128c0 16 -6.66699 30.667 -20 44
s-28 20 -44 20zM160.001 256.001h160c16 0 30.667 6.66699 44 20s20 28 20 44v128c0 16 -6.66699 30.667 -20 44s-28 20 -44 20h-256c-16 0 -30.667 -6.66699 -44 -20s-20 -28 -20 -44v-128c0 -16 6.66699 -30.667 20 -44s28 -20 44 -20v-96z" />
    <glyph glyph-name="skiing" unicode="N" 
d="M348 231c2.66699 -7.33301 6.66504 -12.001 11.998 -14.001l49 -21c16.667 -7.33301 26.667 -5.66602 30 5.00098c2.66699 9.33301 -1.66602 16.666 -12.999 21.999l-40 17l-34 133l-65 38c-12.667 7.33301 -23.667 12.333 -33 15c-0.666992 0 -2 0.166992 -4 0.5
s-3.66699 0.5 -5 0.5c-12 0 -22 -3.5 -30 -10.5s-12 -17.833 -12 -32.5c0 -5.33301 1 -13 3 -23l15 -61l-80 -49l-72 42c-2 2 -5 2.33301 -9 1c-4.66699 -1.33301 -7 -4.66602 -7 -9.99902c0 -4 2 -7 6 -9l309 -182c10.667 -5.33301 19.667 -8 27 -8c6 0 11.333 1 16 3
c6 2.66699 13.667 8.66699 23 18c2 2 3 5 3 9c0 6 -2.66699 9.33301 -8 10c-4 0 -7.33301 -1.33301 -10 -4c-3.33301 -5.33301 -8.66602 -10 -15.999 -14c-6.66699 -2 -14.667 -0.333008 -24 5l-198 116l76 45c8 6 11 13.333 9 22l-9 36l77 -45zM458.998 340.999
c0 -11.333 -4.16699 -21.166 -12.5 -29.499s-18.5 -12.5 -30.5 -12.5s-22.167 4.16699 -30.5 12.5s-12.5 18.166 -12.5 29.499c0 12 4.16699 22.167 12.5 30.5s18.5 12.5 30.5 12.5s22.167 -4.16699 30.5 -12.5s12.5 -18.5 12.5 -30.5z" />
    <glyph glyph-name="globe-black" unicode="O" 
d="M256 484c-62.667 0 -116.334 -22.333 -161.001 -67s-67 -98.334 -67 -161.001s22.333 -116.334 67 -161.001s98.334 -67 161.001 -67s116.334 22.333 161.001 67s67 98.334 67 161.001s-22.333 116.334 -67 161.001s-98.334 67 -161.001 67zM172 409
c1.33301 4.66699 -0.333008 7.66992 -5 9.00293c4.66699 2.66699 10.334 5.16699 17.001 7.5l17.5 6c5 1.66699 7.83301 2.83398 8.5 3.50098v-1c-1.33301 -4.66699 -1 -8.33398 1 -11.001c1.33301 -2 4.83301 -3.16699 10.5 -3.5s10.5 -1.33301 14.5 -3
s5.33301 -4.83398 4 -9.50098c-2 -8.66699 -10 -18.334 -24 -29.001c-6.66699 -4.66699 -14.667 -7.66699 -24 -9c-18.667 -2.66699 -27.667 0 -27 8c0 3.33301 1.83301 6.16602 5.5 8.49902s8.66699 4.5 15 6.5s9.83301 3.33301 10.5 4c0 4 -0.666992 6.66699 -2 8
s-3.33301 1.5 -6 0.5s-5.5 -2 -8.5 -3s-5.83301 -2 -8.5 -3s-5 -0.833008 -7 0.5c-0.666992 2.66699 0.666016 5 3.99902 7zM134.001 367.003c-0.666992 -1.33301 -1.66895 -4.83398 -3.00195 -10.501s-3.33301 -9.16699 -6 -10.5
c-5.33301 -2.66699 -8.66602 0.333008 -9.99902 9c0 4 -0.666992 6.33301 -2 7s-4.33301 0.333984 -9 -0.999023c12.667 17.333 25.334 30.666 38.001 39.999c8 -1.33301 12 -4.66602 12 -9.99902c-0.666992 -2.66699 -3.66699 -6.66699 -9 -12c-3.33301 -2 -7 -6 -11 -12z
M249.999 71.002c-2 2.66699 -3.66504 7.99707 -4.99805 15.9971c-2 16.667 -3 25.334 -3 26.001c-0.666992 2.66699 -2 7 -4 13s-3.33301 10.333 -4 13c-2.66699 7.33301 -8.33398 11.333 -17.001 12c-2.66699 0 -8.16699 0.166992 -16.5 0.5s-14.666 0.833008 -18.999 1.5
s-9.5 1.83398 -15.5 3.50098s-10.667 4.66699 -14 9s-5.66602 9.83301 -6.99902 16.5c-4 20 2.33301 36.667 19 50c14 11.333 32.667 17 56 17c8 -0.666992 14.667 -3 20 -7c8.66699 -6 16 -9 22 -9c25.333 -2 41.333 -1.33301 48 2v3c0 8.66699 -0.666992 13.334 -2 14.001
s-4.5 0.833984 -9.5 0.500977s-8.16699 0.5 -9.5 2.5c-2.66699 2.66699 -2.33398 5.33398 0.999023 8.00098s8.16602 5.16699 14.499 7.5s9.83301 3.83301 10.5 4.5c6 6 4 9.33301 -6 10c-8.66699 0.666992 -15 -1 -19 -5s-7 -8.66699 -9 -14
c-0.666992 -2.66699 -3.33398 -7.66699 -8.00098 -15l-3 3c-1.33301 1.33301 -2 2.33301 -2 3c-2 2 -3.66699 5 -5 9c-0.666992 0.666992 -1.33398 1.83398 -2.00098 3.50098s-1.16699 3 -1.5 4s-1 2.16699 -2 3.5s-2.16699 2.16602 -3.5 2.49902
s-2.66602 0.166016 -3.99902 -0.500977c0 -3.33301 1.33301 -7 4 -11s4 -7.33301 4 -10c-0.666992 -6.66699 -4 -6.33398 -10 0.999023c-0.666992 0.666992 -1.66699 2.33398 -3 5.00098s-2.5 4.33398 -3.5 5.00098s-2.5 1.5 -4.5 2.5s-4.33301 1.16699 -7 0.5
c-4 0 -7.33301 -1 -10 -3l-8 -8c-0.666992 -5.33301 -5 -8 -13 -8c-0.666992 0 -2.33398 0.166992 -5.00098 0.5s-5 0.666016 -7 0.999023s-3.33301 1.16602 -4 2.49902s-0.333984 4.66602 0.999023 9.99902s2.66602 9 3.99902 11s8.33301 3 21 3
c0.666992 3.33301 -0.166016 6 -2.49902 8s-3.5 3.66699 -3.5 5c-0.666992 2.66699 -0.666992 4.33398 0 5.00098s2.33398 1 5.00098 1l5 1c6.66699 1.33301 11.667 3.66602 15 6.99902c6 6 11 8.33301 15 7c0.666992 0 1.5 -0.666992 2.5 -2s2.16699 -2.33301 3.5 -3
s3.66602 0 6.99902 2c6.66699 1.33301 12 5.66602 16 12.999s4.66699 13 2 17c-2 2.66699 -4.66699 3.66699 -8 3s-5.66602 -2.66699 -6.99902 -6c-0.666992 -0.666992 -1 -1.66699 -1 -3s-0.166992 -2.5 -0.5 -3.5l-1 -3c-0.333008 -1 -0.833008 -2 -1.5 -3
s-1.33398 -1.83301 -2.00098 -2.5c-1.33301 -1.33301 -3.66602 -2.16602 -6.99902 -2.49902s-6 0.166992 -8 1.5c-2.66699 0.666992 -4 5.66699 -4 15c0.666992 4.66699 4.33398 10.334 11.001 17.001c3.33301 3.33301 7 5.5 11 6.5s7 1.5 9 1.5s6.33301 -0.833008 13 -2.5
s10.334 -2.5 11.001 -2.5c5.33301 -0.666992 11 2.33301 17 9l8 8c0.666992 1.33301 1 3 1 5s-0.166992 5.83301 -0.5 11.5s-0.5 10.334 -0.5 14.001s0.333008 7.83398 1 12.501s2 8.66699 4 12c33.333 -12 61 -32.167 83 -60.5s34.667 -60.5 38 -96.5
c-1.33301 -2.66699 -2 -4.66699 -2 -6c-0.666992 -2 -1 -5.33301 -1 -10c0 -12.667 -0.666992 -19.667 -2 -21c-2.66699 -1.33301 -4.5 -1.83301 -5.5 -1.5s-3 1.66602 -6 3.99902s-4.83301 3.83301 -5.5 4.5c-10.667 8 -19.667 10.333 -27 7c-8 -3.33301 -14.667 -5 -20 -5
c-12 0 -19 -0.666992 -21 -2c0 -9.33301 4 -14 12 -14c1.33301 0 2.33301 0.333008 3 1l2 2c0.666992 0.666992 1.66699 1.33398 3 2.00098c2 1.33301 5.66699 2 11 2c1.33301 -5.33301 1.33301 -10.333 0 -15c0 -2 -0.833008 -4 -2.5 -6s-2.83398 -4 -3.50098 -6
c-1.33301 -9.33301 -3.33301 -15 -6 -17c-8 -6 -13.667 -7.33301 -17 -4c-1.33301 1.33301 -2.83301 3 -4.5 5s-3.16699 3.66699 -4.5 5c-2 1.33301 -5.33301 5.66602 -10 12.999c-2 2.66699 -5.5 5.5 -10.5 8.5s-8.16699 5.5 -9.5 7.5
c-1.33301 -1.33301 -2.33301 -3.33301 -3 -6c0 -9.33301 3.33301 -18 10 -26c9.33301 -9.33301 17.666 -14.666 24.999 -15.999c3.33301 -0.666992 8 -0.333984 14 0.999023s10 2 12 2c0.666992 -4 -2.33301 -12.667 -9 -26c-8 -13.333 -13.333 -21.333 -16 -24
c-8.66699 -8.66699 -12 -15.334 -10 -20.001c2.66699 -6 3.33398 -10.333 2.00098 -13c0 -0.666992 -2.66699 -3 -8 -7c-2 -1.33301 -4.66699 -3.33301 -8 -6s-6 -4.66699 -8 -6c-18 -6 -37.333 -9 -58 -9h-6z" />
    <glyph glyph-name="mountains" unicode="P" 
d="M488 112l-170.001 295.001c-4 8.66699 -11 13 -21 13c-9.33301 0 -16.333 -4.66699 -21 -14l-113 -196l-28 48c-2 4.66699 -5.66699 7 -11 7s-9 -2.33301 -11 -7l-81 -140v-1l-8 -13c-1.33301 -2.66699 -2 -4.33398 -2 -5.00098c0 -4.66699 2.66699 -7 8 -7
c0.666992 0 1.33398 0.333008 2.00098 1v-1h445c8.66699 1.33301 13 6 13 14c0 1.33301 -0.666992 3.33301 -2 6z" />
    <glyph glyph-name="plane-airport" unicode="Q" 
d="M448 466c8.66699 -10.667 9.66797 -24.665 3.00098 -41.998c-6 -18.667 -16 -35 -30 -49l-46 -46l45 -199c1.33301 -4 0.333008 -7 -3 -9l-37 -28c-1.33301 -1.33301 -3 -2 -5 -2l-2 1c-2.66699 0 -4.66699 1.33301 -6 4l-80 145l-74 -74l15 -55
c0.666992 -2.66699 0 -5.66699 -2 -9l-27 -27c-2 -2 -4.33301 -3 -7 -3h-1c-3.33301 2 -5.33301 3.33301 -6 4l-54 72l-72 54c-2.66699 0.666992 -4 2.66699 -4 6c0 1.33301 0.666992 4 2 8l28 27c2 2 4 3 6 3h3l55 -16l74 74l-145 80
c-2 1.33301 -3.66699 3.66602 -5 6.99902c0 3.33301 1 6 3 8l36 36c2.66699 2.66699 5.66699 3.66699 9 3l190 -46l46 46c15.333 15.333 31.666 25.666 48.999 30.999c18 6 32 4.66699 42 -4z" />
    <glyph glyph-name="bus" unicode="R" 
d="M496 352h-16v-96h16c10.667 0 16 5.33301 16 16v64c0 10.667 -5.33301 16 -16 16zM352 480h-191.998c-26.667 0 -49.334 -9.33301 -68.001 -28s-28 -41.334 -28 -68.001v-288c0 -9.33301 3 -17 9 -23s13.667 -9 23 -9v-32c0 -9.33301 3 -17 9 -23s13.667 -9 23 -9h32
c9.33301 0 17 3 23 9s9 13.667 9 23v32h128v-32c0 -9.33301 3 -17 9 -23s13.667 -9 23 -9h32c9.33301 0 17 3 23 9s9 13.667 9 23v32c9.33301 0 17 3 23 9s9 13.667 9 23v288c0 26.667 -9.33301 49.334 -28 68.001s-41.334 28 -68.001 28zM192.002 448h128v-32h-128v32z
M128.002 96c-9.33301 0 -17 3 -23 9s-9 13.667 -9 23s3 17 9 23s13.667 9 23 9s17 -3 23 -9s9 -13.667 9 -23s-3 -17 -9 -23s-13.667 -9 -23 -9zM384.002 96c-9.33301 0 -17 3 -23 9s-9 13.667 -9 23s3 17 9 23s13.667 9 23 9s17 -3 23 -9s9 -13.667 9 -23s-3 -17 -9 -23
s-13.667 -9 -23 -9zM416.002 192h-320v192h320v-192zM0.00195312 336v-64c0 -10.667 5.33301 -16 16 -16h16v96h-16c-10.667 0 -16 -5.33301 -16 -16v0z" />
    <glyph glyph-name="train" unicode="S" 
d="M435 198l-50.9971 257c-2.66699 16 -10.834 29.5 -24.501 40.5s-28.834 16.5 -45.501 16.5h-128c-16 0 -30.833 -5.5 -44.5 -16.5s-21.834 -24.5 -24.501 -40.5l-52 -257c-3.33301 -19.333 0.666992 -35.666 12 -48.999c12 -14 27 -21 45 -21h256c18.667 0 34 7 46 21
c11.333 13.333 15 29.666 11 48.999zM218.003 480h64v-32h-64v32zM122.003 320l20 96h217l19 -96l13 -64h-281zM186.003 160c-8.66699 0 -16.167 3.16699 -22.5 9.5s-9.5 13.833 -9.5 22.5s3.16699 16.167 9.5 22.5s13.833 9.5 22.5 9.5c9.33301 0 17 -3 23 -9
s9 -13.667 9 -23s-3 -17 -9 -23s-13.667 -9 -23 -9zM314.003 160c-8.66699 0 -16.167 3.16699 -22.5 9.5s-9.5 13.833 -9.5 22.5s3.16699 16.167 9.5 22.5s13.833 9.5 22.5 9.5c9.33301 0 17 -3 23 -9s9 -13.667 9 -23s-3 -17 -9 -23s-13.667 -9 -23 -9zM304.003 96l14 -32
h-136l15 32h-51l-42 -96h50l14 32h164l14 -32h50l-42 96h-50z" />
    <glyph glyph-name="triangle-down" unicode="T" 
d="M64 320l192 -192l192 192h-384z" />
    <glyph glyph-name="code-html-file-1" unicode="U" 
d="M96 448h211l109 -109v-275h-320v384zM32 512v-512h448v365l-147 147h-301zM128 222l96 -96v45l-51 51l51 50v46l-73 -74zM288 278l51 -51l-51 -51v-45l73 73l23 23l-96 96v-45z" />
    <glyph glyph-name="lodging" unicode="V" 
d="M160 352c0 -12 -4.16699 -22.167 -12.5 -30.5s-18.5 -12.5 -30.5 -12.5c-11.333 0 -21.166 4.16699 -29.499 12.5s-12.5 18.5 -12.5 30.5s4.16699 22.167 12.5 30.5s18.166 12.5 29.499 12.5c12 0 22.167 -4.16699 30.5 -12.5s12.5 -18.5 12.5 -30.5zM331 352h-150
c0 -17.333 -6.16699 -32.333 -18.5 -45s-27.5 -19 -45.5 -19h-32c-6.66699 0 -10 -3.66699 -10 -11v-21c0 -7.33301 3.33301 -11 10 -11h352v43c0 8 -0.666992 14.5 -2 19.5s-4.83301 11.5 -10.5 19.5s-16.5 14.167 -32.5 18.5s-36.333 6.5 -61 6.5zM416 224h-319.998
c-5.33301 0 -10.166 -2.16699 -14.499 -6.5s-6.5 -9.16602 -6.5 -14.499v-64c0 -5.33301 2.16699 -10.333 6.5 -15s9.16602 -7 14.499 -7s10.166 2.33301 14.499 7s6.5 9.66699 6.5 15v42h278v-42c0 -5.33301 2.16699 -10.333 6.5 -15s9.16602 -7 14.499 -7
s10.166 2.33301 14.499 7s6.5 9.66699 6.5 15v64c0 5.33301 -2.16699 10.166 -6.5 14.499s-9.16602 6.5 -14.499 6.5z" />
    <glyph glyph-name="restaurant" unicode="W" 
d="M235 459c-3.33301 0 -5.83105 -0.832031 -7.49805 -2.49902s-2.83398 -3.5 -3.50098 -5.5v-3v-96c0 -7.33301 -3.66699 -11 -11 -11l-10 11v96c0 7.33301 -3.66699 11 -11 11c-3.33301 0 -5.83301 -0.833008 -7.5 -2.5s-2.5 -3.5 -2.5 -5.5l-1 -3v-96
c0 -7.33301 -3.33301 -11 -10 -11c-3.33301 0 -5.83301 0.833008 -7.5 2.5s-2.83398 3.5 -3.50098 5.5v3v96c0 7.33301 -3.66699 11 -11 11l-10 -11v-128c0 -10.667 5.33301 -21.334 16 -32.001c3.33301 -3.33301 5.33301 -6.5 6 -9.5s0.666992 -7.16699 0 -12.5
s-1 -8.66602 -1 -9.99902v-32l-5 -139c-0.666992 -6 2.5 -12.833 9.5 -20.5s15.167 -11.5 24.5 -11.5c10 0 17.333 3.66699 22 11s6.66699 14.333 6 21l-14 139v32c0 10.667 5.33301 21.334 16 32.001c0.666992 0.666992 4 3.66699 10 9s10.167 9.66602 12.5 12.999
s3.5 6.66602 3.5 9.99902v128c0 7.33301 -3.33301 11 -10 11zM299.002 427.001c-7.33301 -14.667 -10.9971 -46.668 -10.9971 -96.001v-107c0 -5.33301 2.16699 -10.166 6.5 -14.499s9.16602 -6.5 14.499 -6.5h22v-128c0 -5.33301 2.16699 -10.333 6.5 -15
s9.16602 -7 14.499 -7s10.166 2.33301 14.499 7s6.5 9.66699 6.5 15v384c-39.333 0 -64 -10.667 -74 -32z" />
    <glyph glyph-name="calendar" unicode="X" 
d="M352 256h-32v-64h32v64zM288 256h-32v-64h32v64zM352 352h-32v-64h32v64zM416 256h-32v-64h32v64zM288 160h-32v-64h32v64zM384 512h-32v-64h32v64zM128 512h-32v-64h32v64zM416 352h-32v-64h32v64zM288 352h-32v-64h32v64zM160 160h-32v-64h32v64zM96 256h-32v-64h32v64
zM160 256h-32v-64h32v64zM416 480v-64h-96v64h-160v-64h-96v64h-64v-448h480v448h-64zM448 64h-416v320h416v-320zM96 160h-32v-64h32v64zM224 352h-32v-64h32v64zM224 160h-32v-64h32v64zM160 352h-32v-64h32v64zM224 256h-32v-64h32v64zM352 160h-32v-64h32v64z" />
    <glyph glyph-name="arrow-left" unicode="Y" 
d="M218 66c6 -5.33301 13.168 -7.99805 21.501 -7.99805s15.166 2.66699 20.499 8c6 6 9 13.167 9 21.5s-3 15.166 -9 20.499l-118 118h312c8 0 15 3 21 9s9 13 9 21s-3 15 -9 21s-13 9 -21 9h-312l118 118c6 5.33301 9 12.166 9 20.499s-3 15.5 -9 21.5
c-6.66699 5.33301 -13.667 8 -21 8s-14.333 -2.66699 -21 -8l-190 -190z" />
    <glyph glyph-name="arrow-right" unicode="Z" 
d="M294 446c-6 5.33301 -13.168 7.99805 -21.501 7.99805s-15.166 -2.66699 -20.499 -8c-6 -6 -9 -13.167 -9 -21.5s3 -15.166 9 -20.499l118 -118h-312c-8 0 -15 -3 -21 -9s-9 -13 -9 -21s3 -15 9 -21s13 -9 21 -9h312l-118 -118c-6 -5.33301 -9 -12.166 -9 -20.499
s3 -15.5 9 -21.5c5.33301 -5.33301 12.333 -8 21 -8s15.667 2.66699 21 8l190 190z" />
    <glyph glyph-name="backspace-outline" unicode="[" 
d="M413 180c2 -2 3 -4 3 -6s-1 -4 -3 -6l-21 -22c-2.66699 -1.33301 -4.66699 -2 -6 -2s-3.33301 0.666992 -6 2l-76 77l-76 -77c-2.66699 -1.33301 -4.66699 -2 -6 -2s-3.33301 0.666992 -6 2l-21 22c-2 2 -3 4 -3 6s1 4 3 6l76 76l-77 76c-4 4 -4 8 0 12l22 22
c2.66699 1.33301 4.66699 2 6 2s3.33301 -0.666992 6 -2l76 -76l76 76c2.66699 1.33301 4.66699 2 6 2s3.33301 -0.666992 6 -2l22 -22c4 -4 4 -8 0 -12l-77 -76zM499 418c-9.33301 9.33301 -20.333 14 -33 14h-298c-24.667 0 -44 -9.33301 -58 -28l-110 -148l110 -146l1 -1
c8 -10 15.667 -16.667 23 -20c10 -6 21.333 -9 34 -9h298c12.667 0 23.5 4.83301 32.5 14.5s13.5 21.167 13.5 34.5v256c0 14 -4.33301 25 -13 33zM480 129c0 -11.333 -4.66699 -17 -14 -17h-298c-12 0 -22.667 5.33301 -32 16l-96 128l96 128c8 10.667 18.667 16 32 16h298
c9.33301 0 14 -5 14 -15v-256z" />
    <glyph glyph-name="angle-right" unicode="\" 
d="M335 238c0 -2.66699 -1 -5 -3 -7l-133 -133c-2 -2 -4.33301 -3 -7 -3s-5 1 -7 3l-14 14c-2 2 -3 4.33301 -3 7c0 3.33301 1 5.33301 3 6l112 113l-112 112c-2 2 -3 4.33301 -3 7c0 2 1 4 3 6l14 14c2 2 4.33301 3 7 3s5 -1 7 -3l133 -133c2 -2 3 -4 3 -6z" />
    <glyph glyph-name="home" unicode="]" 
d="M96 224l32 -192h96v160h64v-160h96l32 192l-160 160zM416 320v128h-64v-64l-96 96l-256 -256h64l192 192l192 -192h64z" />
    <glyph glyph-name="mobile" unicode="^" 
d="M279 110c0 6 -2.33301 11.333 -7 16s-10 7 -16 7s-11.333 -2.33301 -16 -7s-7 -10 -7 -16c0 -6.66699 2.33301 -12 7 -16c4 -4.66699 9.33301 -7 16 -7s12 2.33301 16 7c4.66699 4 7 9.33301 7 16zM338 155v202c0 1.33301 -0.666992 3.33301 -2 6c-2 2 -4.33301 3 -7 3
h-146c-2.66699 0 -5 -1 -7 -3c-1.33301 -2.66699 -2 -4.66699 -2 -6v-202c0 -1.33301 0.666992 -3.33301 2 -6c2 -2 4.33301 -3 7 -3h146c2.66699 0 5 1 7 3c1.33301 2.66699 2 4.66699 2 6zM283 398c0 2.66699 -1.33301 4 -4 4h-46c-2.66699 0 -4 -1.33301 -4 -4
c0 -3.33301 1.33301 -5 4 -5h46c2.66699 0 4 1.66699 4 5zM366 402v-292c0 -10 -3.66699 -18.667 -11 -26s-16 -11 -26 -11h-146c-10 0 -18.667 3.66699 -26 11s-11 16 -11 26v292c0 10 3.66699 18.667 11 26s16 11 26 11h146c10 0 18.667 -3.66699 26 -11s11 -16 11 -26z
" />
    <glyph glyph-name="trash" unicode="_" 
d="M201 119v200.998c0 2 -0.666992 4.33301 -2 7c-2.66699 1.33301 -5 2 -7 2h-18c-2 0 -4.33301 -0.666992 -7 -2c-1.33301 -1.33301 -2 -3.66602 -2 -6.99902v-201c0 -3.33301 0.666992 -5.66602 2 -6.99902c2.66699 -1.33301 5 -2 7 -2h18c2 0 4.33301 0.666992 7 2
c1.33301 2.66699 2 5 2 7zM274 118.998v201c0 2 -0.666992 4.33301 -2 7c-2.66699 1.33301 -5 2 -7 2h-18c-2 0 -4.33301 -0.666992 -7 -2c-1.33301 -2.66699 -2 -5 -2 -7v-201c0 -2 0.666992 -4.33301 2 -7c2.66699 -1.33301 5 -2 7 -2h18c2 0 4.33301 0.666992 7 2
c1.33301 2.66699 2 5 2 7zM347 118.998v201.002c0 3.33301 -0.666992 5.66602 -2 6.99902c-2.66699 1.33301 -5 2 -7 2h-18c-2 0 -4.33301 -0.666992 -7 -2c-1.33301 -2.66699 -2 -5 -2 -7v-201c0 -2 0.666992 -4.33301 2 -7c2.66699 -1.33301 5 -2 7 -2h18
c2 0 4.33301 0.666992 7 2c1.33301 1.33301 2 3.66602 2 6.99902zM192 402h128.002l-14 34c-0.666992 0.666992 -2.33398 1.66699 -5.00098 3h-90c-2.66699 -1.33301 -4.33398 -2.33301 -5.00098 -3zM457.002 393l0.00390625 -18c0 -2 -0.666992 -4.33301 -2 -7
c-2.66699 -1.33301 -5 -2 -7 -2h-27v-271c0 -16 -4.66699 -29.667 -14 -41c-8.66699 -11.333 -19.334 -17 -32.001 -17h-238c-12.667 0 -23.334 5.33301 -32.001 16c-9.33301 11.333 -14 25 -14 41v272h-27c-2 0 -4.33301 0.666992 -7 2c-1.33301 2.66699 -2 5 -2 7v18
c0 2 0.666992 4.33301 2 7c2.66699 1.33301 5 2 7 2h88l20 48c3.33301 7.33301 8.66602 13.333 15.999 18c6.66699 4.66699 14 7 22 7h92c8 0 15.333 -2.33301 22 -7c7.33301 -4.66699 12.666 -10.667 15.999 -18l20 -48h88c2 0 4.33301 -0.666992 7 -2
c1.33301 -2.66699 2 -5 2 -7z" />
    <glyph glyph-name="mouse" unicode="`" 
d="M394 143c10 -26.667 7.33496 -53.333 -7.99805 -80c-16 -26.667 -40 -45.667 -72 -57c-33.333 -9.33301 -63 -7.66602 -89 5.00098c-27.333 12 -45 32 -53 60l-54 196c-6.66699 23.333 -5.66699 46.333 3 69c9.33301 22 23.666 40 42.999 54l-49 95
c-4.66699 12 -2.33398 20.333 6.99902 25c10 6 18 3.66699 24 -7l51 -99c26.667 8 53 5.33301 79 -8c24.667 -12.667 42 -32.334 52 -59.001zM228.002 284.001c10 2.66699 17 8.66797 21 18.001s4.66699 18.666 2 27.999c-3.33301 9.33301 -9.33301 16.333 -18 21
c-9.33301 4 -18.333 4.66699 -27 2c-10 -3.33301 -17 -9.33301 -21 -18c-3.33301 -8 -4 -17.333 -2 -28c4 -8.66699 10 -15.667 18 -21c9.33301 -4 18.333 -4.66699 27 -2v0z" />
    <glyph glyph-name="pencil" unicode="a" 
d="M140 73l26 26l-67 67l-26 -26v-30h37v-37h30zM290 338c0 4.66699 -2.33496 6.99902 -7.00195 6.99902c-1.33301 0 -2.66602 -0.666992 -3.99902 -2l-155 -155c-1.33301 -1.33301 -2 -3 -2 -5c0 -4 2 -6 6 -6c2.66699 0 4.33398 0.666992 5.00098 2l155 154
c1.33301 2.66699 2 4.33398 2 5.00098zM273.998 392.999l119 -119l-238 -237h-118v118zM468.998 365.999c0 -10.667 -3.33398 -19.333 -10.001 -26l-48 -47l-118 118l47 48c6.66699 6.66699 15.334 10 26.001 10c10 0 18.667 -3.33301 26 -10l67 -67
c6.66699 -7.33301 10 -16 10 -26z" />
    <glyph glyph-name="settings-streamline-1" unicode="b" 
d="M480 309l-40 0.000976562c-4 14.667 -9.33301 28 -16 40l28 28c6 6 9 13.333 9 22c0 9.33301 -3 17 -9 23l-30 30c-6 6 -13.5 9 -22.5 9s-16.5 -3 -22.5 -9l-28 -28c-12 6.66699 -25.333 12 -40 16v40c0 9.33301 -3.16699 17 -9.5 23s-13.833 9 -22.5 9h-42
c-8.66699 0 -16.167 -3 -22.5 -9s-9.5 -13.667 -9.5 -23v-40c-14.667 -4 -28 -9.33301 -40 -16l-28 28c-6 6 -13.5 9 -22.5 9s-16.5 -3 -22.5 -9l-30 -30c-6.66699 -6.66699 -10 -14.334 -10 -23.001s3.33301 -16 10 -22l28 -28c-6.66699 -12 -12 -25.333 -16 -40h-40
c-9.33301 0 -17 -3 -23 -9s-9 -13.667 -9 -23v-42c0 -8.66699 3 -16.167 9 -22.5s13.667 -9.5 23 -9.5h40c4 -14.667 9.33301 -28 16 -40l-28 -28c-6.66699 -6.66699 -10 -14 -10 -22c0 -8.66699 3.33301 -16.334 10 -23.001l30 -30c6 -6 13.5 -9 22.5 -9s16.5 3 22.5 9
l28 28c12 -6.66699 25.333 -12 40 -16v-40c0 -9.33301 3.16699 -17 9.5 -23s13.833 -9 22.5 -9h42c8.66699 0 16.167 3 22.5 9s9.5 13.667 9.5 23v40c14.667 4 28 9.33301 40 16l28 -28c6 -6 13.5 -9 22.5 -9s16.5 3 22.5 9l30 30c6.66699 6.66699 10 14.334 10 23.001
s-3.33301 16 -10 22l-28 28c6.66699 12 12 25.333 16 40h40c9.33301 0 17 3 23 9s9 13.667 9 23v42c0 8.66699 -3 16.167 -9 22.5s-13.667 9.5 -23 9.5zM491 235.001c0 -3.33301 -0.999023 -5.99902 -2.99902 -7.99902s-4.66699 -3 -8 -3h-48
c-5.33301 0 -8.66602 -2.66699 -9.99902 -8c-4 -17.333 -10.667 -33.666 -20 -48.999c-2.66699 -4 -2.33398 -8.33301 0.999023 -13l34 -34c4.66699 -5.33301 4.66699 -10.333 0 -15l-30 -30c-4.66699 -4.66699 -9.66699 -4.66699 -15 0l-34 34
c-4.66699 3.33301 -9 3.66602 -13 0.999023c-15.333 -9.33301 -31.666 -16 -48.999 -20c-5.33301 -1.33301 -8 -4.66602 -8 -9.99902v-48c0 -7.33301 -3.66699 -11 -11 -11h-42c-7.33301 0 -11 3.66699 -11 11v48c0 5.33301 -2.66699 8.66602 -8 9.99902
c-17.333 4 -33.666 10.667 -48.999 20c-0.666992 1.33301 -2.33398 2 -5.00098 2c-3.33301 0 -6 -1 -8 -3l-34 -34c-5.33301 -4.66699 -10.333 -4.66699 -15 0l-30 30c-2 2 -3 4.66699 -3 8c0 2.66699 1 5 3 7l34 34c3.33301 4.66699 3.66602 9 0.999023 13
c-9.33301 15.333 -16 31.666 -20 48.999c-1.33301 5.33301 -4.66602 8 -9.99902 8h-48c-7.33301 0 -11 3.66699 -11 11v42c0 3.33301 1 6 3 8s4.66699 3 8 3h48c5.33301 0 8.66602 2.66699 9.99902 8c4 17.333 10.667 33.666 20 48.999
c2.66699 4 2.33398 8.33301 -0.999023 13l-34 34c-4.66699 5.33301 -4.66699 10.333 0 15l30 30c4.66699 4.66699 9.66699 4.66699 15 0l34 -34c4.66699 -3.33301 9 -3.66602 13 -0.999023c15.333 9.33301 31.666 16 48.999 20c5.33301 1.33301 8 4.66602 8 9.99902v48
c0 7.33301 3.66699 11 11 11h42c7.33301 0 11 -3.66699 11 -11v-48c0 -5.33301 2.66699 -8.66602 8 -9.99902c17.333 -4 33.666 -10.667 48.999 -20c4 -2.66699 8.33301 -2.33398 13 0.999023l34 34c5.33301 4.66699 10.333 4.66699 15 0l30 -30c2 -2 3 -4.66699 3 -8
c0 -2.66699 -1 -5 -3 -7l-34 -34c-3.33301 -4.66699 -3.66602 -9 -0.999023 -13c9.33301 -15.333 16 -31.666 20 -48.999c1.33301 -5.33301 4.66602 -8 9.99902 -8h48c7.33301 0 11 -3.66699 11 -11v-42zM256.001 363.002c-29.333 0 -54.5 -10.5 -75.5 -31.5
s-31.5 -46.167 -31.5 -75.5s10.5 -54.5 31.5 -75.5s46.167 -31.5 75.5 -31.5s54.5 10.5 75.5 31.5s31.5 46.167 31.5 75.5s-10.5 54.5 -31.5 75.5s-46.167 31.5 -75.5 31.5zM256.001 171.002c-23.333 0 -43.333 8.33301 -60 25s-25 36.667 -25 60s8.33301 43.333 25 60
s36.667 25 60 25s43.333 -8.33301 60 -25s25 -36.667 25 -60s-8.33301 -43.333 -25 -60s-36.667 -25 -60 -25z" />
    <glyph glyph-name="eye" unicode="c" 
d="M256 448c-51.333 0 -101.166 -16.833 -149.499 -50.5s-83.833 -80.834 -106.5 -141.501c24.667 -48.667 59.667 -87.5 105 -116.5s95.666 -43.5 150.999 -43.5s105.666 14.5 150.999 43.5s80.333 67.833 105 116.5c-22.667 60.667 -58.167 107.834 -106.5 141.501
s-98.166 50.5 -149.499 50.5zM256 128c-46 0 -87.333 13 -124 39s-59.334 55.667 -68.001 89c8.66699 33.333 31.334 63 68.001 89s78 39 124 39s87.333 -13 124 -39s59.334 -55.667 68.001 -89c-8.66699 -33.333 -31.334 -63 -68.001 -89s-78 -39 -124 -39zM256 352
c-8.66699 0 -18.002 -1.66895 -28.002 -5.00195c18.667 -8 28 -22.333 28 -43c0 -13.333 -4.66699 -24.666 -14 -33.999s-20.666 -14 -33.999 -14c-20.667 0 -35 9.33301 -43 28c-3.33301 -10 -5 -19.333 -5 -28c0 -26.667 9.33301 -49.334 28 -68.001
s41.334 -28 68.001 -28s49.334 9.33301 68.001 28s28 41.334 28 68.001s-9.33301 49.334 -28 68.001s-41.334 28 -68.001 28z" />
    <glyph glyph-name="menu" unicode="d" 
d="M410 282c6.66699 0 12.667 -2.66699 18 -8c4.66699 -4.66699 7 -10.667 7 -18s-2.33301 -13.333 -7 -18c-6.66699 -5.33301 -12.667 -8 -18 -8h-308c-5.33301 0 -11.333 2.66699 -18 8c-4.66699 4.66699 -7 10.667 -7 18s2.33301 13.333 7 18
c5.33301 5.33301 11.333 8 18 8h308zM102 333c-6.66699 0 -12.667 2.33301 -18 7c-4.66699 5.33301 -7 11.333 -7 18c0 7.33301 2.33301 13.333 7 18c5.33301 5.33301 11.333 8 18 8h308c6.66699 0 12.667 -2.66699 18 -8c4.66699 -4.66699 7 -10.667 7 -18
c0 -6.66699 -2.33301 -12.667 -7 -18c-5.33301 -4.66699 -11.333 -7 -18 -7h-308zM410 179c7.33301 0 13.333 -2.33301 18 -7c4.66699 -5.33301 7 -11.333 7 -18c0 -7.33301 -2.33301 -13.333 -7 -18c-6.66699 -5.33301 -12.667 -8 -18 -8h-308
c-5.33301 0 -11.333 2.66699 -18 8c-4.66699 4.66699 -7 10.667 -7 18c0 6.66699 2.33301 12.667 7 18c4.66699 4.66699 10.667 7 18 7h308v0z" />
    <glyph glyph-name="pause-1" unicode="e" 
d="M208 410h-2h-53c-7.33301 0 -11 -3.66699 -11 -11v0v-286v0c0 -7.33301 3.66699 -11 11 -11h55c7.33301 0 11 3.66699 11 11v0v286c0 7.33301 -3.66699 11 -11 11zM370 113v286c0 7.33301 -3.66699 11 -11 11h-2h-53c-7.33301 0 -11 -3.66699 -11 -11v0v-286v0
c0 -7.33301 3.66699 -11 11 -11h55c7.33301 0 11 3.66699 11 11z" />
    <glyph glyph-name="play-1" unicode="f" 
d="M394 256c0 4.66699 -2 8 -6 10l-252 146c-2.66699 1.33301 -5 2 -7 2c-7.33301 0 -11 -4 -11 -12v-1v-293c1.33301 -6.66699 5 -10 11 -10c1.33301 0 3.33301 0.666992 6 2l253 146c4 2 6 5.33301 6 10z" />
    <glyph glyph-name="chevron-down" unicode="g" 
d="M479 311c0 -10 -3.66895 -18.666 -11.002 -25.999l-186 -186c-7.33301 -7.33301 -16 -11 -26 -11s-18.667 3.66699 -26 11l-186 186c-7.33301 7.33301 -11 16 -11 26s3.66699 18.667 11 26l21 21c8.66699 7.33301 17.334 11 26.001 11c10 0 18.667 -3.66699 26 -11
l139 -139l139 139c7.33301 7.33301 16 11 26 11c8.66699 0 17.334 -3.66699 26.001 -11l21 -21c7.33301 -8.66699 11 -17.334 11 -26.001z" />
    <glyph glyph-name="instagram-icon-black" unicode="h" 
d="M510 362c-0.666992 22.667 -4.33301 43.335 -11 62.002c-7.33301 17.333 -17.333 32.333 -30 45s-27.667 22.667 -45 30c-18.667 6.66699 -39.334 10.334 -62.001 11.001c-18.667 1.33301 -54 2 -106 2s-87.333 -0.666992 -106 -2
c-24 -0.666992 -44.667 -4.33398 -62 -11.001c-16.667 -7.33301 -31.667 -17.333 -45 -30s-23.333 -27.667 -30 -45c-6.66699 -18.667 -10.334 -39.334 -11.001 -62.001c-1.33301 -18.667 -2 -54 -2 -106s0.666992 -87.333 2 -106
c0.666992 -22.667 4.33398 -43.334 11.001 -62.001c6.66699 -16.667 16.667 -31.667 30 -45s28.333 -23.333 45 -30c18.667 -6.66699 39.334 -10.334 62.001 -11.001c18.667 -1.33301 54 -2 106 -2s87.333 0.666992 106 2c24 0.666992 44.667 4.33398 62 11.001
c17.333 7.33301 32.333 17.333 45 30c12.667 13.333 22.667 28.333 30 45c6 18 10 38.667 12 62c0.666992 18.667 1 54 1 106s-0.666992 87.333 -2 106zM464.001 153.001c-0.666992 -20 -3.66699 -36.0029 -9 -48.0029c-3.33301 -10 -9.66602 -19.667 -18.999 -29
s-19 -16 -29 -20c-14 -4.66699 -30 -7.33398 -48 -8.00098c-18 -1.33301 -52.333 -2 -103 -2c-51.333 0 -86 0.666992 -104 2c-17.333 0.666992 -33 3.33398 -47 8.00098c-11.333 4.66699 -21.333 11.334 -30 20.001c-8 8 -14.333 17.667 -19 29
c-4.66699 13.333 -7.66699 29.333 -9 48c-0.666992 18 -1 52.333 -1 103s0.333008 85.334 1 104.001c0.666992 15.333 3.66699 31 9 47c5.33301 12.667 11.666 22.334 18.999 29.001c8.66699 8.66699 18.667 15.334 30 20.001c14 4.66699 29.667 7.66699 47 9
c18 0.666992 52.667 1 104 1c50.667 0 85 -0.333008 103 -1c18.667 -1.33301 34.667 -4.33301 48 -9c10 -4 19.667 -10.667 29 -20c8.66699 -8 15 -17.667 19 -29c5.33301 -12 8.33301 -27.667 9 -47c1.33301 -18.667 2 -53.334 2 -104.001s-0.666992 -85 -2 -103z
M256.001 386.998c-36.667 0 -67.668 -12.667 -93.001 -38s-38 -56.333 -38 -93s12.667 -67.667 38 -93s56.333 -38 93 -38s67.834 12.667 93.501 38s38.5 56.333 38.5 93c-0.666992 36.667 -13.667 67.667 -39 93s-56.333 38 -93 38zM256 170.998
c-23.333 0 -43.333 8.33301 -60 25s-25 36.667 -25 60s8.33301 43.333 25 60s36.667 25 60 25s43.333 -8.33301 60 -25s25 -36.667 25 -60s-8.33301 -43.333 -25 -60s-36.667 -25 -60 -25zM423 392.998c0 -8.66699 -2.83301 -16 -8.5 -22s-12.834 -9 -21.501 -9s-16 3 -22 9
s-9 13.333 -9 22s3 15.834 9 21.501s13.333 8.5 22 8.5s15.834 -2.83301 21.501 -8.5s8.5 -12.834 8.5 -21.501z" />
    <glyph glyph-name="share" unicode="i" 
d="M384 179c21.333 0 39.333 -7.33105 54 -21.998c15.333 -14 23 -32.333 23 -55c0 -20.667 -7.66699 -38.667 -23 -54c-14.667 -14.667 -32.667 -22 -54 -22s-39.333 7.33301 -54 22c-15.333 15.333 -23 33.333 -23 54c0 3.33301 0.333008 6 1 8v6l-133 80
c-14.667 -11.333 -30.334 -17 -47.001 -17c-20.667 0 -38.667 7.66699 -54 23s-23 33.333 -23 54s7.66699 38.667 23 54s33.333 23 54 23c18.667 0 34.334 -5.33301 47.001 -16l133 80v6c-0.666992 2 -1 4.33301 -1 7c0 20.667 7.66699 38.667 23 54
c14.667 14.667 32.667 22 54 22s39.333 -7.33301 54 -22c15.333 -14 23 -32 23 -54c0 -21.333 -7.66699 -39.666 -23 -54.999c-14.667 -14.667 -32.667 -22 -54 -22c-18 0 -33.333 5.33301 -46 16l-134 -80c0 -0.666992 0.166992 -2.33398 0.5 -5.00098
s0.5 -5.33398 0.5 -8.00098c0 -2 -0.166992 -4.33301 -0.5 -7s-0.5 -4.33398 -0.5 -5.00098l134 -80c12 10 27.333 15 46 15v0z" />
    <glyph glyph-name="location-arrow" unicode="j" 
d="M455 412l-183.002 -365c-2.66699 -6.66699 -8 -10 -16 -10h-4c-4.66699 1.33301 -8 3.66602 -10 6.99902c-2.66699 2.66699 -4 6.33398 -4 11.001v164h-165c-3.33301 0 -7 1.33301 -11 4c-4 4 -6.33301 7.33301 -7 10c-0.666992 4.66699 0 8.66699 2 12
c0.666992 4 3.33398 7 8.00098 9l366 183c2.66699 1.33301 5.33398 2 8.00098 2c4.66699 0 9 -2 13 -6c2 -1.33301 3.66699 -4.33301 5 -9c0.666992 -3.33301 0 -7.33301 -2 -12z" />
    <glyph glyph-name="heart" unicode="k" 
d="M256 37c-5.33301 0 -9.66699 1.66797 -13 5.00098l-178 172c-0.666992 0 -1.83398 1 -3.50098 3s-3.16699 3.33301 -4.5 4l-16 19c-6.66699 8 -13 17.333 -19 28c-5.33301 8.66699 -10.333 20 -15 34c-4.66699 13.333 -7 26.666 -7 39.999c0 41.333 12 74 36 98
c23.333 23.333 57 35 101 35c11.333 0 23.333 -2 36 -6s24 -9.33301 34 -16c9.33301 -6 18.333 -12.667 27 -20c8 -6 15.333 -12.333 22 -19c6.66699 6.66699 14 13 22 19c8.66699 7.33301 17.667 14 27 20c10 6.66699 21.333 12 34 16s24.667 6 36 6
c44 0 77.667 -11.667 101 -35c24 -24 36 -56.667 36 -98s-21.667 -84.333 -65 -129l-178 -171c-3.33301 -3.33301 -7.66602 -5 -12.999 -5z" />
    <glyph glyph-name="video-camera" unicode="l" 
d="M512 411v-310c0 -8 -3.66699 -13.667 -11 -17c-4 -1.33301 -6.33301 -2 -7 -2c-5.33301 0 -9.66602 2 -12.999 6l-115 115v-48c0 -22.667 -8 -42 -24 -58c-17.333 -16 -37 -24 -59 -24h-201c-22.667 0 -42 8 -58 24s-24 35.333 -24 58v202c0 22.667 8 42 24 58
s35.333 24 58 24h201c22 0 41.667 -8 59 -24c16 -16 24 -35.333 24 -58v-48l115 115c3.33301 4 7.66602 6 12.999 6c0.666992 0 3 -0.666992 7 -2c7.33301 -3.33301 11 -9 11 -17z" />
    <glyph glyph-name="heart-empty" unicode="m" 
d="M475 342c0 15.333 -1.99902 29 -5.99902 41c-4.66699 12 -9.66699 21.333 -15 28c-5.33301 5.33301 -13.333 11 -24 17c-9.33301 4 -18.333 7 -27 9c-10.667 1.33301 -20 2 -28 2c-7.33301 0 -18 -2.33301 -32 -7c-13.333 -6 -23.666 -12.333 -30.999 -19
c-6 -4 -14.333 -10.667 -25 -20l-9.50098 -10s-6.16699 -6.66699 -7.5 -8c-2.66699 -4 -7.33398 -6 -14.001 -6c-6 0 -10.667 2 -14 6c-1.33301 1.33301 -3.83301 4 -7.5 8l-9.50098 10c-10.667 9.33301 -19 16 -25 20c-7.33301 6.66699 -17.666 13 -30.999 19
c-14 4.66699 -24.667 7 -32 7c-8 0 -17.333 -0.666992 -28 -2c-8.66699 -2 -17.667 -5 -27 -9c-10.667 -6 -18.667 -11.667 -24 -17c-5.33301 -6.66699 -10.333 -16 -15 -28c-4 -12 -6 -25.667 -6 -41c0 -32.667 17.667 -66.667 53 -102l166 -160l166 160
c35.333 35.333 53 69.333 53 102zM512.001 342c0 -41.333 -21.668 -84.332 -65.001 -128.999l-178 -171c-3.33301 -3.33301 -7.66602 -5 -12.999 -5s-9.66602 1.66699 -12.999 5l-178 172c-0.666992 0 -1.83398 1 -3.50098 3s-3.16699 3.33301 -4.5 4l-16 19
c-6.66699 8 -13 17.333 -19 28c-5.33301 8.66699 -10.333 20 -15 34c-4.66699 13.333 -7 26.666 -7 39.999c0 41.333 12 74 36 98c23.333 23.333 57 35 101 35c11.333 0 23.333 -2 36 -6s24 -9.33301 34 -16c9.33301 -6 18.333 -12.667 27 -20c8 -6 15.333 -12.333 22 -19
c6.66699 6.66699 14 13 22 19c8.66699 7.33301 17.667 14 27 20c10 6.66699 21.333 12 34 16s24.667 6 36 6c44 0 77.667 -11.667 101 -35c24 -24 36 -56.667 36 -98z" />
    <glyph glyph-name="snow-mountain-free-icon-1" unicode="n" 
d="M510 123l-163 245c-2.66699 4 -6.5 6 -11.5 6s-8.83301 -2 -11.5 -6l-32 -46l-12 -17l-64 96c-3.33301 4.66699 -8.16602 7 -14.499 7s-11.166 -2.33301 -14.499 -7l-185 -278c-2.66699 -4.66699 -2.83398 -9 -0.500977 -13s5.83301 -6 10.5 -6h488
c4.66699 0 8.16699 2 10.5 6s2.16602 8.33301 -0.500977 13zM276 261l50.001 77c2 3.33301 5.33301 5 10 5c2.66699 0 4.66699 -0.333008 6 -1l4 -4l43 -67l47 -72l-70 66l-5 -8l-1 -2l-18 20l-2 1v0l-12 -12l-3 -4l-7 12l-1 3v0l-32 -28l16 -24l15 -24l-78 78l-4 4l-1 1v0
l-12 -16l-4 -6l-11 19l-7 11v0l-10 -22l-7 -13l-9 19v0l-13 -6l-36 -35l-36 -34l104 161c2 3.33301 5.33301 5 10 5c3.33301 0 6.66602 -1.66699 9.99902 -5l46 -71z" />
    <glyph glyph-name="star" unicode="o" 
d="M512 352h-192l-64 160l-64 -160h-192l128 -160l-64 -192l192 112l192 -112l-64 192z" />
    <glyph glyph-name="enter" unicode="p" 
d="M260 265l-89 90v-56h-150v-64h150v-59zM192 491v-72l43 -43v72h172l-130 -43v-256h-42v5l-43 -42v-5h85v-86l192 64v406h-277z" />
    <glyph glyph-name="boat" unicode="q" 
d="M391 51c-24.667 -24 -48.9961 -24 -72.9961 0c-39.333 39.333 -79 39.333 -119 0c-24.667 -24 -49.334 -24 -74.001 0c-39.333 39.333 -78.666 39.333 -117.999 0c-0.666992 -0.666992 -1.83398 -1.66699 -3.50098 -3s-2.83398 -2.33301 -3.50098 -3v-37
c10 4 19.667 10.667 29 20c13.333 13.333 25.666 20 36.999 20s23.666 -6.66699 36.999 -20c39.333 -38 78.666 -38 117.999 0c24.667 24 49.334 24.333 74.001 1c19.333 -19.333 39 -29 59 -29c19.333 0 39.333 9.66699 60 29c24 24 48.333 23.667 73 -1
c4 -4 12.333 -10 25 -18v39c-1.33301 1.33301 -2.33301 2 -3 2c-40 40 -79.333 40 -118 0zM509.004 147c-40 40 -79.3271 40 -117.994 0c-0.666992 -0.666992 -1.83398 -1.66699 -3.50098 -3s-2.83398 -2.33301 -3.50098 -3v83l46 46c4 4 5.33301 9 4 15
c-1.33301 5.33301 -5 9 -11 11l-39 13v107h-32v32h-64v48c0 10.667 -5.33301 16 -16 16h-32c-10.667 0 -16 -5.33301 -16 -16v-48h-64v-32h-32v-107l-39 -13c-6 -2 -9.66699 -5.66699 -11 -11c-1.33301 -6 0 -11 4 -15l46 -46v-79c-1.33301 1.33301 -2.33301 2 -3 2
c-39.333 39.333 -78.666 39.333 -117.999 0c-0.666992 -0.666992 -1.83398 -1.66699 -3.50098 -3s-2.83398 -2.33301 -3.50098 -3v-37c10 4 19.667 10.667 29 20c13.333 13.333 25.666 20 36.999 20s23.666 -6.66699 36.999 -20c39.333 -38 78.666 -38 117.999 0l4 4
c22.667 19.333 44.667 19.333 66 0c0.666992 0 1.33398 -0.333008 2.00098 -1l2 -2c19.333 -19.333 39 -29 59 -29c19.333 0 39.333 9.66699 60 29c23.333 23.333 47.666 23 72.999 -1c4 -4 12.333 -10 25 -18v39c-1.33301 1.33301 -2.33301 2 -3 2zM352.01 320l-96 32
l-96 -32v64h32v32h128v-32h32v-64z" />
    <glyph glyph-name="logo-bez-ramecku" unicode="r" 
d="M510 405c-0.666992 -1.33301 -2.16699 -4.99609 -4.5 -10.9961s-4.16602 -11.333 -5.49902 -16c-13.333 -36.667 -25.666 -67.667 -36.999 -93c-9.33301 -22 -18.666 -42 -27.999 -60c-10.667 -22 -22.667 -43.667 -36 -65c-16 -26 -31.333 -46.333 -46 -61
c-6 -6.66699 -15 -14 -27 -22c-4.66699 -2.66699 -9.33398 -4.66699 -14.001 -6c-1.33301 0 -2.66602 -0.166992 -3.99902 -0.5s-2.33301 -0.5 -3 -0.5h-3h-4h1h-2c1.33301 0.666992 2.66602 1.66699 3.99902 3c18.667 20 36.667 43 54 69c14 22.667 27.333 46 40 70
c8 16 18 37.333 30 64c12.667 28.667 25.334 61.667 38.001 99l10 39c-2.66699 -9.33301 -7.33398 -21.666 -14.001 -36.999c-11.333 -26.667 -27 -58.334 -47 -95.001l-36 -60c-16 -25.333 -31 -46.333 -45 -63c-20 -24.667 -38.667 -44 -56 -58c-2 -2 -5.66699 -5 -11 -9
c-2 3.33301 -3.66699 6.66602 -5 9.99902c-4.66699 10 -8.66699 21 -12 33c-2 8 -4.33301 20 -7 36c-1.33301 8 -2.66602 20 -3.99902 36c-0.666992 2 -1 5 -1 9c0 1.33301 -0.166992 3 -0.5 5s-0.5 3.33301 -0.5 4c0 2 -0.166992 5 -0.5 9s-0.5 7 -0.5 9
c-1.33301 14.667 -2 36 -2 64c0 15.333 0.666992 33.666 2 54.999c0.666992 16 1.66699 30.333 3 43c1.33301 14.667 2 23.667 2 27l1 9v4c0.666992 12.667 -3.16602 23.5 -11.499 32.5s-18.833 13.5 -31.5 13.5c-12.667 0.666992 -23.334 -3.33301 -32.001 -12
s-13.334 -19.334 -14.001 -32.001v-10v-29c0 -18.667 0.333008 -33.667 1 -45c1.33301 -26 2.66602 -45.667 3.99902 -59c2.66699 -31.333 5.33398 -54.333 8.00098 -69c0.666992 -2 1.33398 -5.16699 2.00098 -9.5s1 -7.5 1 -9.5s0.666992 -5 2 -9
c0 -0.666992 0.166992 -2.16699 0.5 -4.5s0.5 -4.16602 0.5 -5.49902c3.33301 -12 6.33301 -25 9 -39c5.33301 -17.333 9.66602 -30.666 12.999 -39.999c5.33301 -15.333 11.666 -29.333 18.999 -42c1.33301 -2.66699 2.66602 -4.66699 3.99902 -6h-1
c-0.666992 -0.666992 -1.33398 -1 -2.00098 -1h-4h-4h1h-1c-0.666992 0.666992 -1.83398 1.16699 -3.50098 1.5s-2.83398 0.5 -3.50098 0.5c-3.33301 0.666992 -7.66602 2.66699 -12.999 6c-8 5.33301 -15.667 13 -23 23c-13.333 16.667 -24.666 38.667 -33.999 66
c-5.33301 16 -9 28 -11 36c0 2.66699 -0.666992 5.33398 -2 8.00098v5l-1 4c-1.33301 4 -2 7 -2 9c0 1.33301 -0.166992 3 -0.5 5s-0.5 3.33301 -0.5 4c-4 22.667 -7 45.334 -9 68.001c-4.66699 46.667 -7.33398 81 -8.00098 103c-1.33301 17.333 -2 27.333 -2 30l-1 10v4
c-2 12 -7.83301 21.667 -17.5 29s-20.834 10.333 -33.501 9c-12 -1.33301 -21.667 -7 -29 -17s-10 -21 -8 -33c0 -2.66699 0.333008 -6 1 -10c2 -14.667 3.66699 -24.667 5 -30c2.66699 -24 8.33398 -59 17.001 -105c4 -23.333 9 -47 15 -71c0 -1.33301 0.166992 -3 0.5 -5
s0.833008 -3.66699 1.5 -5c0.666992 -2.66699 1.66699 -6 3 -10c0 -0.666992 0.166992 -1.5 0.5 -2.5s0.833008 -1.83301 1.5 -2.5l1 -6c1.33301 -4 2.33301 -7.33301 3 -10c7.33301 -19.333 13 -32.666 17 -39.999c5.33301 -12.667 12.333 -26 21 -40
c8 -12.667 17.667 -25.334 29 -38.001s25.333 -23.667 42 -33c8.66699 -4 18 -6.66699 28 -8c6.66699 -1.33301 11.667 -2 15 -2h1h2l3 1c3.33301 0 5.66602 0.333008 6.99902 1c3.33301 0 5.66602 0.333008 6.99902 1c0.666992 0 1.83398 0.166992 3.50098 0.5
s2.83398 0.833008 3.50098 1.5c1.33301 0 3.33301 0.666992 6 2c0.666992 0 1.83398 0.166992 3.50098 0.5s2.83398 0.833008 3.50098 1.5c2.66699 1.33301 5 2.66602 7 3.99902c6.66699 -4.66699 14 -8 22 -10c2 -0.666992 4.5 -1.33398 7.5 -2.00098s5.16699 -1 6.5 -1h7
h3h3h1h3h2l2 1c1.33301 0 2.66602 0.166992 3.99902 0.5s2.33301 0.5 3 0.5c6.66699 1.33301 11.334 2.66602 14.001 3.99902c10.667 5.33301 18 9.66602 22 12.999c10.667 7.33301 22 18.333 34 33c14 18 28.333 41.667 43 71c12 26 21.667 49.667 29 71
c10.667 29.333 18 50.666 22 63.999c10 32 19 64.333 27 97c2.66699 9.33301 4.66699 18.333 6 27l2 10c0 -2 -0.666992 -5 -2 -9z" />
    <glyph glyph-name="chevron-up-1" unicode="s" 
d="M479 165c0 -10 -3.66699 -18.667 -11 -26l-21 -22c-7.33301 -6.66699 -16 -10 -26 -10c-10.667 0 -19.334 3.33301 -26.001 10l-139 139l-139 -139c-6.66699 -6.66699 -15.334 -10 -26.001 -10c-10 0 -18.333 3.33301 -25 10l-22 22c-7.33301 7.33301 -11 16 -11 26
c0 8.66699 3.66699 17.334 11 26.001l186 186c6.66699 6.66699 15.334 10 26.001 10s19.334 -3.33301 26.001 -10l186 -186c7.33301 -8.66699 11 -17.334 11 -26.001z" />
    <glyph glyph-name="cross-mark" unicode="t" 
d="M414 159l-96.9961 97l97 97c8.66699 8.66699 13 18.834 13 30.501s-4.33301 21.834 -13 30.501s-18.834 13 -30.501 13s-21.834 -4.33301 -30.501 -13l-97 -97l-97 97c-8.66699 8.66699 -18.834 13 -30.501 13s-21.834 -4.33301 -30.501 -13s-13 -18.834 -13 -30.501
s4.33301 -21.834 13 -30.501l97 -97l-97 -97c-8.66699 -8.66699 -13 -18.834 -13 -30.501s4.33301 -21.834 13 -30.501s18.667 -13 30 -13c12 0 22.333 4.33301 31 13l97 97l97 -97c10 -8.66699 20.333 -13 31 -13c11.333 0 21.333 4.33301 30 13s13 18.834 13 30.501
s-4.33301 21.834 -13 30.501z" />
    <glyph glyph-name="star-outline" unicode="u" 
d="M512 352h-192l-64 160l-64 -160h-192l128 -160l-64 -192l192 112l192 -112l-64 192zM256 154l-126 -74l42 126l-84 105h126l42 105l42 -105h126l-84 -105l42 -126z" />
    <glyph glyph-name="ios-upload-outline" unicode="v" 
d="M288 368v-16h112v-272h-288v272h112v16h-128v-304h320v304h-128zM193 394l-11 11l74 75l75 -75l-12 -11l-55 55v-243h-16v243z" />
    <glyph glyph-name="buffer" unicode="w" 
d="M71 348c-4.66699 2 -7 4.5 -7 7.5s2.33301 5.5 7 7.5l169 82c4 2 9.33301 3 16 3s12 -1 16 -3l169 -82c4.66699 -2 7 -4.5 7 -7.5s-2.33301 -5.5 -7 -7.5l-169 -82c-4 -2 -9.33301 -3 -16 -3s-12 1 -16 3zM441 264c4.66699 -2 6.99805 -4.66699 6.99805 -8
s-2.33301 -6 -7 -8l-169 -81c-5.33301 -2.66699 -10.666 -4 -15.999 -4s-10.666 1.33301 -15.999 4l-169 81c-4.66699 2 -7 4.66699 -7 8s2.33301 6 7 8l33 16c4 2.66699 8.33301 2.66699 13 0l123 -60c4 -2 9.33301 -3 16 -3s12 1 16 3l125 61
c3.33301 1.33301 6.33301 1.33301 9 0zM440.998 164c4.66699 -2 7.00098 -4.5 7.00098 -7.5s-2.33301 -5.5 -7 -7.5l-169 -82c-4 -2 -9.33301 -3 -16 -3s-12 1 -16 3l-169 82c-4.66699 2 -7 4.5 -7 7.5s2.33301 5.5 7 7.5l33 17c3.33301 2 7.66602 1.66699 12.999 -1
l123 -59c4 -2 9.33301 -3 16 -3s12 1 16 3l125 60c3.33301 1.33301 6.33301 1.33301 9 0z" />
    <glyph glyph-name="check-1" unicode="x" 
d="M479 436c-10.667 6.66699 -22.3311 9.16406 -34.998 7.49707s-23 -7.16699 -31 -16.5l-237 -289l-78 89c-8 8.66699 -18.5 13.834 -31.5 15.501s-24.5 -1.16602 -34.5 -8.49902s-15.833 -16.666 -17.5 -27.999s1.5 -21.666 9.5 -30.999l155 -175l310 378
c7.33301 9.33301 10.166 19.666 8.49902 30.999s-7.83398 20.333 -18.501 27v0z" />
    <glyph glyph-name="medal-rank-star" unicode="y" 
d="M256 512c-70.667 0 -131 -25 -181 -75s-75 -110.333 -75 -181s25 -131 75 -181s110.333 -75 181 -75s131 25 181 75s75 110.333 75 181s-25 131 -75 181s-110.333 75 -181 75zM375 91l-119 86l-119 -86l46 139l-119 86h147l45 140l45 -140h147l-119 -86z" />
    <glyph glyph-name="sun-black" unicode="z" 
d="M256 368c-30.667 0 -57 -11 -79 -33s-33 -48.333 -33 -79s11 -57 33 -79s48.333 -33 79 -33s57 11 79 33s33 48.333 33 79s-11 57 -33 79s-48.333 33 -79 33zM256 400c10.667 0 16 5.33301 16 16v32c0 10.667 -5.33301 16 -16 16s-16 -5.33301 -16 -16v-32
c0 -10.667 5.33301 -16 16 -16zM256 112c-10.667 0 -16 -5.33301 -16 -16v-32c0 -10.667 5.33301 -16 16 -16s16 5.33301 16 16v32c0 10.667 -5.33301 16 -16 16zM380 358l23.001 21.999c7.33301 8 7.33301 15.667 0 23s-15 7.33301 -23 0l-22 -23
c-7.33301 -7.33301 -7.33301 -14.666 0 -21.999s14.666 -7.33301 21.999 0zM132.001 153.999l-23.001 -21.999c-7.33301 -8 -7.33301 -15.667 0 -23s15 -7.33301 23 0l22 23c7.33301 7.33301 7.33301 14.666 0 21.999s-14.666 7.33301 -21.999 0zM112 256
c0 10.667 -5.33301 16 -16 16h-32c-10.667 0 -16 -5.33301 -16 -16s5.33301 -16 16 -16h32c10.667 0 16 5.33301 16 16zM448 272h-32c-10.667 0 -16 -5.33301 -16 -16s5.33301 -16 16 -16h32c10.667 0 16 5.33301 16 16s-5.33301 16 -16 16zM132 358
c7.33301 -7.33301 14.667 -7.33203 22 0.000976562s7.33301 14.666 0 21.999l-22 23c-8 7.33301 -15.667 7.33301 -23 0s-7.33301 -15 0 -23zM380.001 154.001c-7.33301 7.33301 -14.667 7.33203 -22 -0.000976562s-7.33301 -14.666 0 -21.999l22 -23
c8 -7.33301 15.667 -7.33301 23 0s7.33301 15 0 23z" />
    <glyph glyph-name="surfer-01" unicode="{" 
d="M488 18c-166 52.667 -320.332 111.334 -462.999 176.001c-6 2.66699 -9.66699 1.33398 -11 -3.99902c-2 -5.33301 -0.666992 -9 4 -11c1.33301 -0.666992 5.83301 -2.66699 13.5 -6s13.5 -6 17.5 -8l-33 -25c-4.66699 -6.66699 -3.66699 -12.334 3 -17.001
c5.33301 -2.66699 10 -2.33398 14 0.999023l57 24c101.333 -42.667 233.333 -89.667 396 -141c3.33301 0 5.66602 1.66699 6.99902 5c0 4 -1.66699 6 -5 6zM127.001 173c2.66699 0 6.66406 0.666016 11.9971 1.99902l88 40c7.33301 3.33301 11.333 9 12 17v44l61 -55
l-11 -93v-1c-0.666992 -6.66699 1.33301 -12.667 6 -18s10.334 -8 17.001 -8c6.66699 -0.666992 12.334 1.16602 17.001 5.49902s7.66699 9.5 9 15.5l13 106v2c0.666992 6.66699 -1.66602 13 -6.99902 19l-57 50l85 42l79 -73c5.33301 -4 10 -6 14 -6
c12.667 1.33301 19 8 19 20c0 4.66699 -2.33301 9.33398 -7 14.001l-109 100h2c10.667 0 20 4 28 12s12 17.333 12 28s-4 20 -12 28s-17.333 12 -28 12s-20 -4 -28 -12s-12 -17.333 -12 -28c0 -7.33301 2.33301 -15 7 -23l-74 26l-39 58c-3.33301 4 -8 6.66699 -14 8
c-5.33301 0.666992 -10 -0.666016 -14 -3.99902s-6.33301 -7.66602 -7 -12.999c0 -4 1 -8 3 -12l41 -59c2.66699 -2.66699 5 -4.66699 7 -6l47 -18l-78 -40c-11.333 -6.66699 -18 -16.334 -20 -29.001v-71l-72 -33c-8 -4 -12.667 -11 -14 -21c0 -16 8 -24.667 24 -26z" />
    <glyph glyph-name="wind" unicode="|" 
d="M431 320c-12.667 0 -23.833 -4.66699 -33.5 -14s-14.5 -20.666 -14.5 -33.999c0 -5.33301 1 -10.666 3 -15.999h-307c-10.667 0 -16 -5.33301 -16 -16s5.33301 -16 16 -16h352c13.333 0 24.666 4.66699 33.999 14s14 20.666 14 33.999s-4.66699 24.666 -14 33.999
s-20.666 14 -33.999 14zM79.001 288h192.001c13.333 0 24.666 4.66699 33.999 14s14 20.666 14 33.999s-4.66699 24.666 -14 33.999s-20.666 14 -33.999 14c-12.667 0 -23.834 -4.66699 -33.501 -14s-14.5 -20.666 -14.5 -33.999c0 -5.33301 1 -10.666 3 -15.999h-147
c-10.667 0 -16 -5.33301 -16 -16s5.33301 -16 16 -16zM335.002 192h-2.99902h-2h-246c-14 0 -21 -5.33301 -21 -16s7 -16 21 -16h206c-2 -5.33301 -3 -10.666 -3 -15.999c0 -13.333 4.66699 -24.666 14 -33.999s20.666 -14 33.999 -14s24.666 4.66699 33.999 14
s14 20.666 14 33.999s-4.66699 24.666 -14 33.999s-20.666 14 -33.999 14z" />
    <glyph glyph-name="angle-left" unicode="}" 
d="M344 357c0 -2.66699 -1 -5 -3 -7l-112 -112l112 -113c2 -0.666992 3 -2.66699 3 -6c0 -2.66699 -1 -5 -3 -7l-14 -14c-2 -2 -4.33301 -3 -7 -3s-5 1 -7 3l-133 133c-2 2 -3 4.33301 -3 7c0 2 1 4 3 6l133 133c2 2 4.33301 3 7 3s5 -1 7 -3l14 -14c2 -2 3 -4 3 -6z" />
    <glyph glyph-name="lightning-3" unicode="~" 
d="M400 448c-7.33301 0 -12.6699 -0.333008 -16.0029 -1c-32 43.333 -74.667 65 -128 65s-96 -21.667 -128 -65c-3.33301 0.666992 -8.66602 1 -15.999 1c-30.667 0 -57 -11 -79 -33s-33 -48.333 -33 -79s11 -57 33 -79s48.333 -33 79 -33c14.667 0 28 2.33301 40 7
c13.333 -11.333 27 -19.666 41 -24.999l25 25c-24.667 7.33301 -44.667 20.666 -60 39.999c-13.333 -10 -28.666 -15 -45.999 -15c-22 0 -40.833 7.83301 -56.5 23.5s-23.5 34.5 -23.5 56.5s7.83301 40.833 23.5 56.5s34.5 23.5 56.5 23.5c10.667 0 20.667 -2 30 -6
c11.333 21.333 27 38.333 47 51s42.333 19 67 19s47 -6.33301 67 -19s35.667 -29.667 47 -51c9.33301 4 19.333 6 30 6c22 0 40.833 -7.83301 56.5 -23.5s23.5 -34.5 23.5 -56.5s-7.83301 -40.833 -23.5 -56.5s-34.5 -23.5 -56.5 -23.5c-17.333 0 -32.666 5 -45.999 15
c-9.33301 -12 -22 -22.333 -38 -31l-13 -40c21.333 6 40.333 16.333 57 31c12 -4.66699 25.333 -7 40 -7c30.667 0 57 11 79 33s33 48.333 33 79s-11 57 -33 79s-48.333 33 -79 33zM191.996 160l32 -32l-32 -96l96 96l-32 32l32 96z" />
    <glyph glyph-name="enter" unicode="&#xfa;" 
d="M260 265l-89 90v-56h-150v-64h150v-59zM192 491v-72l43 -43v72h172l-130 -43v-256h-42v5l-43 -42v-5h85v-86l192 64v406h-277z" />
    <glyph glyph-name="snow-flake" unicode="&#xe000;" 
d="M237 458v-50l-38 22l-19 -34l57 -33v-75l-64 37l-1 67h-38v-44l-44 25l-19 -33l43 -26l-38 -22l20 -33l57 33l65 -37l-65 -38l-57 34l-20 -34l39 -22l-44 -25l19 -34l44 26v-45h38l1 67l64 37v-74l-57 -34l19 -33l38 22v-51h39v51l38 -22l19 33l-57 34v74l64 -37l1 -67
h38v45l44 -26l20 34l-44 25l38 22l-20 34l-57 -34l-65 38l65 37l57 -33l20 33l-39 22l44 26l-19 33l-44 -25v44h-38l-1 -66l-64 -38v75l57 33l-19 34l-38 -23v51h-39z" />
    <glyph glyph-name="angle-up" unicode="&#xe001;" 
d="M399 174c0 -2.66699 -1 -5 -3 -7l-15 -14c-0.666992 -2 -2.66699 -3 -6 -3c-2.66699 0 -5 1 -7 3l-112 112l-112 -112c-2 -2 -4.33301 -3 -7 -3c-3.33301 0 -5.33301 1 -6 3l-15 14c-2 2 -3 4.33301 -3 7c0 2 1 4 3 6l133 133c2 2 4.33301 3 7 3s5 -1 7 -3l133 -133
c2 -2 3 -4 3 -6z" />
    <glyph glyph-name="kite" unicode="&#xe002;" 
d="M82 380c0 -11.333 -4 -21 -12 -29s-17.667 -12 -29 -12s-21 4 -29 12s-12 17.667 -12 29s4 21 12 29s17.667 12 29 12s21 -4 29 -12s12 -17.667 12 -29zM503 75l-36.001 -20.001c-6.66699 -4 -13.667 -4 -21 0l-21 12c-13.333 6.66699 -26 6.33398 -38 -0.999023l-22 -12
c-6.66699 -3.33301 -13.334 -3.33301 -20.001 0l-22 12c-12 8 -24.667 8 -38 0l-21 -12c-7.33301 -3.33301 -14.333 -3.33301 -21 0l-21 12c-13.333 7.33301 -26.333 7.33301 -39 0l-21 -12c-6.66699 -3.33301 -13.667 -3.33301 -21 0l-21 12c-13.333 8 -26 8 -38 0l-36 -20
l9 -16l36 21c6.66699 3.33301 13.334 3.33301 20.001 0l21 -12c13.333 -7.33301 26.333 -7.33301 39 0l21 12c7.33301 3.33301 14.333 3.33301 21 0l21 -12c13.333 -7.33301 26.333 -7.33301 39 0l21 12c6.66699 3.33301 13.667 3.33301 21 0l21 -12c13.333 -8 26 -8 38 0
l22 12c6.66699 3.33301 13.334 3.33301 20.001 0l22 -12c12 -6.66699 24.667 -6.66699 38 0l36 20zM53.999 148.999l10.998 -0.000976562l112 -1l65 -47c-2 -1.33301 -6.83301 -4.33301 -14.5 -9s-13.5 -8.33398 -17.5 -11.001c6.66699 -1.33301 12.334 -3.33301 17.001 -6
l21 -12c1.33301 -0.666992 3 -1 5 -1c2.66699 0 4.66699 0.333008 6 1l21 12c6.66699 4.66699 14.667 7 24 7s17.666 -2.33301 24.999 -7l21 -12c0.666992 -0.666992 2.33398 -1 5.00098 -1s4.33398 0.333008 5.00098 1l22 12c6.66699 4.66699 14.667 7 24 7
c4.66699 0 8 -0.333008 10 -1c50.667 33.333 72.334 58.333 65.001 75c-6 12.667 -27.667 15.834 -65 9.50098s-79.666 -20.166 -126.999 -41.499l-1 -1h-1l-95 70h-69l-28 91l41 -21l53 24l37 -22c1.33301 -1.33301 3.33301 -2 6 -2c1.33301 0 2.66602 0.333008 3.99902 1
l175 65l-8 21l-170 -63l-21 13l166 96l-12 20l-161 -94c-3.33301 2 -7.33301 2 -12 0l-10 -5l-18 11l173 136l-14 18l-185 -146c-4 -2.66699 -5.33301 -5.66699 -4 -9c0 -4 1.66699 -7 5 -9l19 -12l-22 -10l-53 28c-2.66699 2 -6.33398 2.33301 -11.001 1l-64 -19
c-8 -2.66699 -10.667 -7.66699 -8 -15l42 -134c1.33301 -5.33301 5 -8 11 -8z" />
    <glyph glyph-name="minus-circle" unicode="&#xe003;" 
d="M384 238v36c0 5.33301 -1.66699 9.66602 -5 12.999c-4 4 -8.33301 6 -13 6h-220c-4.66699 0 -9 -2 -13 -6c-3.33301 -3.33301 -5 -7.66602 -5 -12.999v-36c0 -5.33301 1.66699 -9.66602 5 -12.999c4 -4 8.33301 -6 13 -6h220c4.66699 0 9 2 13 6
c3.33301 3.33301 5 7.66602 5 12.999zM475 256c0 -41.333 -9.66699 -78 -29 -110c-20 -33.333 -46.667 -60 -80 -80c-32 -19.333 -68.667 -29 -110 -29s-78 9.66699 -110 29c-33.333 20 -60 46.667 -80 80c-19.333 32 -29 68.667 -29 110s9.66699 78 29 110
c20 33.333 46.667 60 80 80c32 19.333 68.667 29 110 29s78 -9.66699 110 -29c33.333 -20 60 -46.667 80 -80c19.333 -32 29 -68.667 29 -110z" />
    <glyph glyph-name="color-palette" unicode="&#xe004;" 
d="M288 480c-45.333 0 -87.002 -10.501 -125.002 -31.501s-68.5 -47.833 -91.5 -80.5s-40.667 -67.167 -53 -103.5s-18.5 -71.166 -18.5 -104.499c0 -6.66699 2.33301 -14 7 -22s10.667 -14.5 18 -19.5s15.166 -8 23.499 -9s16.833 2.66699 25.5 11s16 21.5 22 39.5
c4.66699 14 14.834 22.5 30.501 25.5s30.5 -0.833008 44.5 -11.5s21 -26 21 -46c0 -38 8.33301 -68.833 25 -92.5s40.334 -35.5 71.001 -35.5c36.667 0 69 6 97 18s49.833 26.833 65.5 44.5s28.334 38.5 38.001 62.5s16 46.333 19 67s4.5 42 4.5 64
c0 149.333 -74.667 224 -224 224zM127.998 247.999c-10.667 0 -20 4 -28 12s-12 17.333 -12 28s4 20 12 28s17.333 12 28 12s20 -4 28 -12s12 -17.333 12 -28s-4 -20 -12 -28s-17.333 -12 -28 -12zM199.998 367.999c0 10.667 4 20 12 28s17.333 12 28 12s20 -4 28 -12
s12 -17.333 12 -28s-4 -20 -12 -28s-17.333 -12 -28 -12s-20 4 -28 12s-12 17.333 -12 28zM303.998 87.999c-15.333 0 -28.5 5.5 -39.5 16.5s-16.5 24.167 -16.5 39.5s5.5 28.5 16.5 39.5s24.167 16.5 39.5 16.5s28.5 -5.5 39.5 -16.5s16.5 -24.167 16.5 -39.5
s-5.5 -28.5 -16.5 -39.5s-24.167 -16.5 -39.5 -16.5zM399.998 183.999c-6.66699 0 -12.334 2.33301 -17.001 7s-7 10.334 -7 17.001s2.33301 12.334 7 17.001s10.334 7 17.001 7s12.334 -2.33301 17.001 -7s7 -10.334 7 -17.001s-2.33301 -12.334 -7 -17.001
s-10.334 -7 -17.001 -7zM367.998 279.999c-15.333 0 -28.5 5.5 -39.5 16.5s-16.5 24.167 -16.5 39.5s5.5 28.5 16.5 39.5s24.167 16.5 39.5 16.5s28.5 -5.5 39.5 -16.5s16.5 -24.167 16.5 -39.5s-5.5 -28.5 -16.5 -39.5s-24.167 -16.5 -39.5 -16.5v0z" />
    <glyph glyph-name="thermometer" unicode="&#xe005;" 
d="M303 176v258.002c0 12.667 -4.66699 23.5 -14 32.5s-20.333 13.5 -33 13.5s-23.667 -4.5 -33 -13.5s-14 -19.833 -14 -32.5v-257c-22 -16.667 -33 -38.334 -33 -65.001c0 -22 7.83301 -40.833 23.5 -56.5s34.5 -23.5 56.5 -23.5c22.667 0 41.667 7.83301 57 23.5
s23 34.5 23 56.5c0 27.333 -11 48.666 -33 63.999zM241 434.002c0 9.33301 5 14 15 14s15 -4.66699 15 -14v-50h-30v50zM272 224.002h-16v16h16v-16zM272 256.002h-16v64h16v-64z" />
    <glyph glyph-name="tint" unicode="&#xe006;" 
d="M256 183c0 6 -1.99805 12.668 -5.99805 20.001c-0.666992 1.33301 -2 3.33301 -4 6c-1.33301 1.33301 -2.66602 3.33301 -3.99902 6s-2.33301 4.33398 -3 5.00098c-1.33301 1.33301 -4 5.33301 -8 12c-0.666992 2 -1.33398 3.83301 -2.00098 5.5l-2 5
c-0.666992 1.66699 -1.33398 3.16699 -2.00098 4.5c0 2.66699 -2 4 -6 4c-3.33301 0 -5.33301 -1.33301 -6 -4c-0.666992 -3.33301 -2.66699 -8.33301 -6 -15c-0.666992 -2.66699 -3 -6.66699 -7 -12c0 -0.666992 -0.833008 -2.33398 -2.5 -5.00098
s-3.16699 -4.66699 -4.5 -6l-4 -6c-4 -7.33301 -6 -14 -6 -20c0 -10.667 3.66699 -19.334 11 -26.001c7.33301 -7.33301 15.666 -11 24.999 -11c10 0 18.667 3.66699 26 11s11 16 11 26zM402.002 219.001c0 -40 -14.333 -74.332 -43 -102.999
c-28 -28.667 -62.333 -43 -103 -43s-75 14.333 -103 43c-28.667 28.667 -43 63 -43 103c0 28.667 7.66699 55 23 79c0 0.666992 0.333008 1.33398 1 2.00098s1.5 1.83398 2.5 3.50098s2.16699 3.33398 3.5 5.00098s3 4 5 7s4 5.83301 6 8.5l29 43c10.667 18 20 35 28 51
c10 21.333 18 40.333 24 57c0.666992 5.33301 3.66699 10 9 14c5.33301 3.33301 10.333 5 15 5s9.66699 -1.66699 15 -5c4.66699 -2.66699 7.66699 -7.33398 9 -14.001c6 -16.667 14 -35.667 24 -57c8 -16 17.333 -33 28 -51l29 -43c2 -2.66699 4 -5.5 6 -8.5
s3.66699 -5.33301 5 -7s2.5 -3.33398 3.5 -5.00098s1.83301 -2.83398 2.5 -3.50098s1 -1.33398 1 -2.00098c15.333 -22.667 23 -49 23 -79z" />
    <glyph glyph-name="clock-1" unicode="&#xe007;" 
d="M256 480c-62 0 -114.833 -21.833 -158.5 -65.5s-65.5 -96.5 -65.5 -158.5s21.833 -114.833 65.5 -158.5s96.5 -65.5 158.5 -65.5s114.833 21.833 158.5 65.5s65.5 96.5 65.5 158.5s-21.833 114.833 -65.5 158.5s-96.5 65.5 -158.5 65.5zM392 120
c-10.667 -10.667 -21.667 -19.334 -33 -26.001l-16 27l-14 -8l16 -27c-26.667 -14 -53.667 -21.333 -81 -22v32h-16v-32c-27.333 0.666992 -54.333 8 -81 22l16 27l-14 8l-16 -27c-11.333 6.66699 -22.333 15.334 -33 26.001s-19.334 21.667 -26.001 33l27 16l-8 14l-27 -16
c-14 26.667 -21.333 53.667 -22 81h32v16h-32c0.666992 27.333 8 54.333 22 81l27 -16l8 14l-27 16c6.66699 11.333 15.334 22.333 26.001 33s21.667 19.334 33 26.001l16 -27l14 8l-16 27c26.667 14 53.667 21.333 81 22v-32h16v32c27.333 -0.666992 54.333 -8 81 -22
l-16 -27l14 -8l16 27c11.333 -6.66699 22.333 -15.334 33 -26.001s19.334 -21.667 26.001 -33l-27 -16l8 -14l27 16c14 -26.667 21.333 -53.667 22 -81h-32v-16h32c-0.666992 -27.333 -8 -54.333 -22 -81l-27 16l-8 -14l27 -16
c-6.66699 -11.333 -15.334 -22.333 -26.001 -33zM400 271h-116c-3.33301 6 -7.33301 10.333 -12 13v68h-32v-68c-10.667 -6.66699 -16 -16 -16 -28c0 -9.33301 3 -17 9 -23s13.667 -9 23 -9c11.333 0 20.333 5 27 15h117v32z" />
    <glyph glyph-name="1466253794-96-air-sock" unicode="&#xe008;" 
d="M48 32c-10.667 0 -16 5.33301 -16 16v416c0 10.667 5.33301 16 16 16s16 -5.33301 16 -16v-30l127 65l8 -14l-132 -67l47 -112l-14 -6l-36 84v-336c0 -10.667 -5.33301 -16 -16 -16zM485 241c-5.33301 -12 -11.5 -21.5 -18.5 -28.5s-12.5 -9.5 -16.5 -7.5l-346 90l95 203
l292 -206c9.33301 -4.66699 7.33301 -21.667 -6 -51zM398 282c-9.33301 -20.667 -19.332 -35 -29.999 -43l57 -14c5.33301 -1.33301 13.333 9.66699 24 33c11.333 24.667 14.666 38 9.99902 40l-48 35c1.33301 -13.333 -3 -30.333 -13 -51zM211.001 283
c13.333 13.333 27.3311 35.667 41.998 67c14.667 30.667 22.667 55.667 24 75l61 -44c4 -2 4.83301 -9.33301 2.5 -22s-7.16602 -27 -14.499 -43s-15.166 -29 -23.499 -39s-14.5 -14 -18.5 -12zM122.999 410.001c12.667 28.667 26.5 51.5 41.5 68.5s26.5 23.5 34.5 19.5
l-95 -203c-8 4 -10.167 17.167 -6.5 39.5s12.167 47.5 25.5 75.5zM199.999 481.001c-6 2.66699 -15.167 -3.5 -27.5 -18.5s-24.166 -34.5 -35.499 -58.5s-18.833 -45.5 -22.5 -64.5s-2.5 -29.833 3.5 -32.5s15.167 3.33301 27.5 18s24.166 34 35.499 58
s18.833 45.5 22.5 64.5s2.5 30.167 -3.5 33.5z" />
    <glyph glyph-name="paraglider" unicode="&#xe009;" 
d="M349 235c-7.33301 0 -13.3311 -3.99902 -17.998 -11.999c0 -0.666992 -0.833008 -2.16699 -2.5 -4.5s-2.83398 -4.16602 -3.50098 -5.49902c-8.66699 -12.667 -18.667 -22.667 -30 -30c-10.667 -6 -22.334 -10 -35.001 -12c16 10 24 24.333 24 43
c0 13.333 -4.83301 24.833 -14.5 34.5s-21.167 14.5 -34.5 14.5c-12 0 -22.5 -4 -31.5 -12s-14.5 -18 -16.5 -30c0 0.666992 -0.166992 1.66699 -0.5 3s-0.5 2.33301 -0.5 3l-4 45c0 5.33301 -2 10 -6 14s-8.66699 6 -14 6s-10 -2 -14 -6s-6 -8.66699 -6 -14
c0 -22.667 5 -45.334 15 -68.001c4 -8 8.83301 -16.333 14.5 -25s10.5 -15.334 14.5 -20.001l5 -7l-29 -36c-10.667 3.33301 -20 5.33301 -28 6c-12.667 0 -20.334 -1 -23.001 -3c-2.66699 -1.33301 -5.66699 -5 -9 -11s-6.5 -12.333 -9.5 -19s-4.83301 -10.667 -5.5 -12
c-3.33301 -6.66699 -6.33301 -10.334 -9 -11.001c-0.666992 0 -3.16699 0.333008 -7.5 1s-8.16602 0.333984 -11.499 -0.999023c-1.33301 -0.666992 -1.83301 -2.5 -1.5 -5.5s1.16602 -5.5 2.49902 -7.5c7.33301 -12 16 -17.667 26 -17c6.66699 0 15.334 3.66699 26.001 11
l24 18c2 -2 5.16699 -4.83301 9.5 -8.5s12.5 -8.16699 24.5 -13.5s23.667 -7.66602 35 -6.99902c28 1.33301 44.333 19.666 49 54.999l1 47c10 0 20.333 2 31 6c18.667 6.66699 35.667 15.667 51 27c4.66699 3.33301 9.5 7.83301 14.5 13.5s8.83301 10.5 11.5 14.5l4 6
c2 4 3 7 3 9c0 6 -2 11 -6 15s-9 6 -15 6zM510.002 256.001c-0.666992 10.667 -5.99805 28.668 -15.998 54.001c-8.66699 22 -21.667 44 -39 66c-16.667 22 -41.667 43 -75 63c-40.667 22.667 -91.334 35 -152.001 37c-52 -0.666992 -97 -8.66699 -135 -24
c-18.667 -7.33301 -35.167 -16.166 -49.5 -26.499s-24.333 -18.333 -30 -24s-9.5 -10.5 -11.5 -14.5c-4 -6.66699 -3.66699 -12.334 1 -17.001c4 -7.33301 9.66699 -9 17 -5c2 0.666992 7.83301 3 17.5 7s17.167 7 22.5 9c20 8 47 11.667 81 11c42 0 79 -8 111 -24
c14 -8 32 -20.667 54 -38s38.333 -31.333 49 -42c44 -44 69.667 -68.333 77 -73c8.66699 -5.33301 17 -8 25 -8c8.66699 -0.666992 19.667 2.33301 33 9c11.333 5.33301 17.666 11.666 18.999 18.999c2 6.66699 2.33301 13.667 1 21z" />
    <glyph glyph-name="waves" unicode="&#xe00a;" 
d="M352 304c-32 0 -69.333 12 -112 36c-32.667 18.667 -59.334 28 -80.001 28c-18 0 -37.333 -6.33301 -58 -19s-36.334 -24.667 -47.001 -36l-46 46c55.333 48.667 105.666 73 150.999 73c32 0 69.333 -12 112 -36c32.667 -18.667 59.334 -28 80.001 -28
c18 0 37.333 6.33301 58 19s36.334 24.667 47.001 36l46 -46c-55.333 -48.667 -105.666 -73 -150.999 -73zM352 112c-32 0 -69.333 12 -112 36c-32.667 18.667 -59.334 28 -80.001 28c-18 0 -37.333 -6.33301 -58 -19s-36.334 -24.667 -47.001 -36l-46 46
c55.333 48.667 105.666 73 150.999 73c32 0 69.333 -12 112 -36c32.667 -18.667 59.334 -28 80.001 -28c18 0 37.333 6.33301 58 19s36.334 24.667 47.001 36l46 -46c-55.333 -48.667 -105.666 -73 -150.999 -73z" />
    <glyph glyph-name="speedometer" unicode="&#xe00b;" 
d="M344 256l-84 -64h-4c-9.33301 0 -17 -3 -23 -9s-9 -13.667 -9 -23s3 -17 9 -23s13.667 -9 23 -9s17 3 23 9s9 13.667 9 23v4l64 84zM256 416c-62 0 -114.835 -21.832 -158.502 -65.499s-65.5 -96.5 -65.5 -158.5c0 -33.333 7.33301 -65.333 22 -96h36
c-15.333 25.333 -24 54.666 -26 87.999h32v16h-32c0.666992 27.333 8 54.333 22 81l28 -16l8 14l-28 16c6.66699 11.333 15.334 22.333 26.001 33c9.33301 9.33301 20.333 18 33 26l16 -27l14 8l-16 27c26.667 14 53.667 21.333 81 22v-32h16v32
c27.333 -0.666992 54.333 -8 81 -22l-16 -27l14 -8l16 27c11.333 -6.66699 22.333 -15.334 33 -26.001s19.334 -21.667 26.001 -33l-27 -16l8 -14l27 16c14 -26.667 21.333 -53.667 22 -81h-32v-16h32c-1.33301 -31.333 -10 -60.666 -26 -87.999h36
c14.667 30.667 22 62.667 22 96c0 62 -21.833 114.833 -65.5 158.5s-96.5 65.5 -158.5 65.5z" />
    <glyph glyph-name="pause-circled" unicode="&#xe00c;" 
d="M256 476c-60.667 0 -112.5 -21.5 -155.5 -64.5s-64.5 -94.833 -64.5 -155.5s21.5 -112.5 64.5 -155.5s94.833 -64.5 155.5 -64.5s112.5 21.5 155.5 64.5s64.5 94.833 64.5 155.5s-21.5 112.5 -64.5 155.5s-94.833 64.5 -155.5 64.5zM157 370h67v-228h-67v228zM288 370h67
v-228h-67v228z" />
    <glyph glyph-name="toggle" unicode="&#xe00d;" 
d="M352 352c26.667 0 49.334 -9.33301 68.001 -28s28 -41.334 28 -68.001s-9.33301 -49.334 -28 -68.001s-41.334 -28 -68.001 -28h-192c-26.667 0 -49.334 9.33301 -68.001 28s-28 41.334 -28 68.001s9.33301 49.334 28 68.001s41.334 28 68.001 28h192zM352 384h-192
c-35.333 0 -65.5 -12.5 -90.5 -37.5s-37.5 -55.167 -37.5 -90.5s12.5 -65.5 37.5 -90.5s55.167 -37.5 90.5 -37.5h192c35.333 0 65.5 12.5 90.5 37.5s37.5 55.167 37.5 90.5s-12.5 65.5 -37.5 90.5s-55.167 37.5 -90.5 37.5zM160 304c13.333 0 24.666 -4.66699 33.999 -14
s14 -20.666 14 -33.999s-4.66699 -24.666 -14 -33.999s-20.666 -14 -33.999 -14s-24.666 4.66699 -33.999 14s-14 20.666 -14 33.999s4.66699 24.666 14 33.999s20.666 14 33.999 14zM160 336c-22 0 -40.833 -7.83301 -56.5 -23.5s-23.5 -34.5 -23.5 -56.5
s7.83301 -40.833 23.5 -56.5s34.5 -23.5 56.5 -23.5s40.833 7.83301 56.5 23.5s23.5 34.5 23.5 56.5s-7.83301 40.833 -23.5 56.5s-34.5 23.5 -56.5 23.5z" />
    <glyph glyph-name="toggle-filled" unicode="&#xe00e;" 
d="M352 304c-13.333 0 -24.666 -4.66699 -33.999 -14s-14 -20.666 -14 -33.999s4.66699 -24.666 14 -33.999s20.666 -14 33.999 -14s24.666 4.66699 33.999 14s14 20.666 14 33.999s-4.66699 24.666 -14 33.999s-20.666 14 -33.999 14zM352 384h-192
c-35.333 0 -65.5 -12.5 -90.5 -37.5s-37.5 -55.167 -37.5 -90.5s12.5 -65.5 37.5 -90.5s55.167 -37.5 90.5 -37.5h192c35.333 0 65.5 12.5 90.5 37.5s37.5 55.167 37.5 90.5s-12.5 65.5 -37.5 90.5s-55.167 37.5 -90.5 37.5zM352 176c-22 0 -40.833 7.83301 -56.5 23.5
s-23.5 34.5 -23.5 56.5s7.83301 40.833 23.5 56.5s34.5 23.5 56.5 23.5s40.833 -7.83301 56.5 -23.5s23.5 -34.5 23.5 -56.5s-7.83301 -40.833 -23.5 -56.5s-34.5 -23.5 -56.5 -23.5z" />
    <glyph glyph-name="tasks" unicode="&#xe00f;" 
d="M293 110h182v36h-182v-36zM183 256h292v37h-292v-37zM366 402h109v37h-109v-37zM512 165v-74c0 -4.66699 -1.66699 -8.66699 -5 -12c-4 -4 -8.33301 -6 -13 -6h-476c-4.66699 0 -9 2 -13 6c-3.33301 3.33301 -5 7.33301 -5 12v74c0 4.66699 1.66699 8.66699 5 12
c4 4 8.33301 6 13 6h476c4.66699 0 9 -2 13 -6c3.33301 -3.33301 5 -7.33301 5 -12zM512 311v-73c0 -5.33301 -1.66699 -9.66602 -5 -12.999c-4 -4 -8.33301 -6 -13 -6h-476c-4.66699 0 -9 2 -13 6c-3.33301 3.33301 -5 7.66602 -5 12.999v73c0 4 1.66699 8.33301 5 13
c4.66699 3.33301 9 5 13 5h476c4 0 8.33301 -1.66699 13 -5c3.33301 -4.66699 5 -9 5 -13zM512 457l0.00195312 -73c0 -4 -1.66699 -8.33301 -5 -13c-4.66699 -3.33301 -9 -5 -13 -5h-476c-4 0 -8.33301 1.66699 -13 5c-3.33301 4.66699 -5 9 -5 13v73
c0 4 1.66699 8.33301 5 13c3.33301 3.33301 7.66602 5 12.999 5h476c5.33301 0 9.66602 -1.66699 12.999 -5c3.33301 -4.66699 5 -9 5 -13z" />
    <glyph glyph-name="bell-o" unicode="&#xe010;" 
d="M261 27c0 3.33301 -1.66699 5 -5 5c-11.333 0 -21 4 -29 12s-12 17.667 -12 29c0 3.33301 -1.66699 5 -5 5c-2.66699 0 -4 -1.66699 -4 -5c0 -14 4.66699 -25.667 14 -35c10 -10 22 -15 36 -15c3.33301 0 5 1.33301 5 4zM70 110h372c-50.667 56.667 -76 135.667 -76 237
c0 8.66699 -2.33301 18.667 -7 30c-5.33301 12 -12 22 -20 30c-8 9.33301 -19.667 17 -35 23c-14 6 -30 9 -48 9s-34 -3 -48 -9c-15.333 -6 -27 -13.667 -35 -23c-8 -8 -14.667 -18 -20 -30c-4.66699 -11.333 -7 -21.333 -7 -30c0 -101.333 -25.333 -180.333 -76 -237z
M494 110c0 -10 -3.66699 -18.667 -11 -26s-16 -11 -26 -11h-128c0 -19.333 -7 -36.666 -21 -51.999c-14.667 -14 -32 -21 -52 -21s-37.333 7 -52 21c-14 15.333 -21 32.666 -21 51.999h-128c-10 0 -18.667 3.66699 -26 11s-11 16 -11 26
c8.66699 6.66699 17.334 15 26.001 25c7.33301 8.66699 15.666 20 24.999 34c8 14 15 29 21 45c4.66699 12.667 9.33398 32.334 14.001 59.001c4 23.333 6 48 6 74c0 28.667 11 55.667 33 81c22 24.667 51.333 39.667 88 45c-1.33301 2.66699 -2 6.66699 -2 12
c0 8 2.66699 14.333 8 19c5.33301 5.33301 11.666 8 18.999 8s13.666 -2.66699 18.999 -8c5.33301 -4.66699 8 -11 8 -19c0 -5.33301 -0.666992 -9.33301 -2 -12c36.667 -5.33301 66 -20.333 88 -45c22 -25.333 33 -52.333 33 -81c0 -26 2 -50.667 6 -74
c4.66699 -26.667 9.33398 -46.334 14.001 -59.001c6 -16 13 -31 21 -45c9.33301 -14 17.666 -25.333 24.999 -34c8.66699 -10 17.334 -18.333 26.001 -25z" />
    <glyph glyph-name="07b" unicode="&#xe011;" 
d="M384 384h-256c-34.667 0 -64.667 -12.667 -90 -38s-38 -55.333 -38 -90s12.667 -64.667 38 -90s55.333 -38 90 -38h256c34.667 0 64.667 12.667 90 38s38 55.333 38 90s-12.667 64.667 -38 90s-55.333 38 -90 38zM384 146h-256c-30.667 0 -56.667 10.667 -78 32
s-32 47.333 -32 78s10.667 56.667 32 78s47.333 32 78 32h256c30.667 0 56.667 -10.667 78 -32s32 -47.333 32 -78s-10.667 -56.667 -32 -78s-47.333 -32 -78 -32zM384 355c-27.333 0 -50.665 -9.66895 -69.998 -29.002s-29 -42.666 -29 -69.999s9.66699 -50.666 29 -69.999
s42.666 -29 69.999 -29c28 0 52 9.83301 72 29.5s30 44.167 30 73.5c0 28 -9.83301 50.833 -29.5 68.5s-43.834 26.5 -72.501 26.5zM388.001 200.998c-16.667 0 -30.667 5.66797 -42 17.001s-17 25.333 -17 42c0 22 9.66699 39 29 51
c-4.66699 -10.667 -7 -20.334 -7 -29.001c0 -16.667 5.66699 -30.667 17 -42s25.333 -17 42 -17c2 0 11.667 2.33301 29 7c-12 -19.333 -29 -29 -51 -29zM95.001 321.999l14.999 -25.998c0 -0.666992 -0.333008 -1.33398 -1 -2.00098s-1.66699 -1.33398 -3 -2.00098
s-2.66602 -1.66699 -3.99902 -3l-14 26zM84 249.001h-29v14h29v-7v-7zM95 190.001l-7.00098 6.99902l14 26c1.33301 -1.33301 3.33301 -2.66602 6 -3.99902s4.33398 -2.33301 5.00098 -3zM160.999 256c0 -9.33301 -3.16699 -17.166 -9.5 -23.499s-14.166 -9.5 -23.499 -9.5
s-17.166 3.16699 -23.499 9.5s-9.5 14.166 -9.5 23.499s3.16699 17.166 9.5 23.499s14.166 9.5 23.499 9.5s17.166 -3.16699 23.499 -9.5s9.5 -14.166 9.5 -23.499zM160.999 190l-18.001 26c2.66699 0 6.33398 2.33301 11.001 7l14 -26zM153.998 289
c-1.33301 1.33301 -3.33203 2.66699 -5.99902 4s-4.33398 2.33301 -5.00098 3l14 26l11 -7zM200.999 249.001h-29v7v7h29v-14z" />
    <glyph glyph-name="07c" unicode="&#xe012;" 
d="M128 155c-28 0 -51.833 9.83301 -71.5 29.5s-29.5 43.5 -29.5 71.5s9.83301 51.833 29.5 71.5s43.5 29.5 71.5 29.5s51.833 -9.83301 71.5 -29.5s29.5 -43.5 29.5 -71.5s-9.83301 -51.833 -29.5 -71.5s-43.5 -29.5 -71.5 -29.5zM384 384h-256
c-35.333 0 -65.5 -12.5 -90.5 -37.5s-37.5 -55.167 -37.5 -90.5s12.5 -65.5 37.5 -90.5s55.167 -37.5 90.5 -37.5h256c35.333 0 65.5 12.5 90.5 37.5s37.5 55.167 37.5 90.5s-12.5 65.5 -37.5 90.5s-55.167 37.5 -90.5 37.5zM201 250h-31c0.666992 1.33301 1 3.33301 1 6
s-0.333008 4.66699 -1 6h31v-12zM154 290c-4 2.66699 -7.33301 4.66699 -10 6l15 26l11 -6zM159 190l-15 26c2.66699 1.33301 6 3.33301 10 6l16 -26zM128 287c8.66699 0 16 -3 22 -9s9 -13.333 9 -22s-3 -16 -9 -22s-13.333 -9 -22 -9s-16 3 -22 9s-9 13.333 -9 22
s3 16 9 22s13.333 9 22 9zM97 190l-11 6l16 26c4 -2.66699 7.33301 -4.66699 10 -6zM55 250v12h31c-0.666992 -1.33301 -1 -3.33301 -1 -6s0.333008 -4.66699 1 -6h-31zM97 322l15 -26c-2.66699 -1.33301 -6 -3.33301 -10 -6l-16 26zM388 201
c-16.667 0 -30.666 5.66602 -41.999 16.999s-17 25.333 -17 42c0 22.667 10.333 39.667 31 51c-4.66699 -7.33301 -7 -16.666 -7 -27.999c0 -16 5.66699 -29.667 17 -41s25 -17 41 -17c11.333 0 20.666 2.33301 27.999 7c-11.333 -20.667 -28.333 -31 -51 -31v0z" />
    <glyph glyph-name="android-close" unicode="&#xe013;" 
d="M405 375l-30 30l-119 -119l-119 119l-30 -30l119 -119l-119 -119l30 -30l119 119l119 -119l30 30l-119 119z" />
    <glyph glyph-name="map" unicode="&#xe014;" 
d="M146 512c2.66699 0 5 -1 7 -3c1.33301 -1.33301 2 -3.33301 2 -6v-421c0 -3.33301 -1.33301 -6 -4 -8l-138 -73c-0.666992 -0.666992 -2 -1 -4 -1s-4 1 -6 3s-3 4 -3 6v421c0 3.33301 1.66699 6 5 8l137 73c0.666992 0.666992 2 1 4 1zM503 512c2 0 4 -1 6 -3s3 -4 3 -6
v-421c0 -3.33301 -1.66699 -6 -5 -8l-137 -73c-0.666992 -0.666992 -2 -1 -4 -1c-2.66699 0 -5 1 -7 3c-1.33301 1.33301 -2 3.33301 -2 6v421c0 3.33301 1.33301 6 4 8l138 73c0.666992 0.666992 2 1 4 1zM183 512c2 0 3.33301 -0.333008 4 -1l146 -73
c3.33301 -1.33301 5 -4 5 -8v-421c0 -1.33301 -0.666992 -3.33301 -2 -6c-2 -2 -4.33301 -3 -7 -3c-2 -0 -3.33301 0.333008 -4 1l-146 73c-3.33301 1.33301 -5 4 -5 8v421c0 1.33301 0.666992 3.33301 2 6c2 2 4.33301 3 7 3z" />
    <glyph glyph-name="graph" unicode="&#xe015;" 
d="M352 384h-96v-320h96v320zM480 288h-96v-224h96v224zM32 32v64h32v32h-32v64h32v32h-32v64h32v32h-32v64h32v32h-32v64h32v32h-64v-512h512v32h-480zM224 224h-96v-160h96v160z" />
    <glyph glyph-name="kreslici-platno-27" unicode="&#xe016;" 
d="M217 165v292c0 14.667 -5.33301 27.334 -16 38.001s-23.667 16 -39 16s-28.333 -5.33301 -39 -16s-16 -23.334 -16 -38.001v-292c-15.333 -12 -26 -27.333 -32 -46s-5.66699 -37.334 1 -56.001c6 -18.667 17 -33.667 33 -45s33.667 -17 53 -17s37 5.66699 53 17
s27 26.333 33 45c6.66699 18.667 7 37.334 1 56.001s-16.667 34 -32 46zM180 329h-35.998v128c0 4.66699 1.66699 8.83398 5 12.501s7.66602 5.5 12.999 5.5s9.66602 -1.83301 12.999 -5.5s5 -7.83398 5 -12.501v-128zM435.002 265l-67.9961 164l-68 -164
c-6.66699 -15.333 -7.83398 -31.166 -3.50098 -47.499s13.166 -29.5 26.499 -39.5c13.333 -10.667 28.333 -16 45 -16s31.667 5.33301 45 16c13.333 10 22.166 23.167 26.499 39.5s3.16602 32.166 -3.50098 47.499z" />
    <glyph glyph-name="mrak" unicode="&#xe017;" 
d="M347 456c-9.33301 0 -16.332 -0.667969 -20.999 -2.00098c-8 17.333 -20.167 31.333 -36.5 42s-34.166 16 -53.499 16c-25.333 0 -47.333 -8.5 -66 -25.5s-29.334 -37.833 -32.001 -62.5c-25.333 -3.33301 -46.333 -14.333 -63 -33s-25 -40.667 -25 -66
c0 -27.333 9.66699 -50.666 29 -69.999s42.666 -29 69.999 -29h13l5 32h-18c-18.667 0 -34.667 6.5 -48 19.5s-20 28.833 -20 47.5s6.66699 34.667 20 48s29.333 20 48 20h1l19 -1v17v2v1c0 18.667 6.5 34.667 19.5 48s28.833 20 47.5 20c15.333 0 29 -4.5 41 -13.5
s20 -20.833 24 -35.5l4 -16l16 5c7.33301 2.66699 16 4 26 4c23.333 0 43.166 -8.16699 59.499 -24.5s24.5 -35.833 24.5 -58.5s-8.16699 -42.167 -24.5 -58.5s-36.166 -24.5 -59.499 -24.5h-26l-13 -32h39c32 0 59.167 11.167 81.5 33.5s33.5 49.5 33.5 81.5
c0 31.333 -11.167 58.333 -33.5 81s-49.5 34 -81.5 34zM331.001 181.999h-75l60 151h-106l-30 -197h61l-46 -136z" />
    <glyph glyph-name="vlny-teplomer" unicode="&#xe018;" 
d="M498 63c-2 0 -5 0.668945 -9 2.00195l-34 19c-24.667 14 -49.334 14 -74.001 0l-34 -19c-6.66699 -4.66699 -13 -4.66699 -19 0l-34 19c-7.33301 4 -14.666 6.66699 -21.999 8c12 3.33301 21.333 8 28 14l14 -8c7.33301 -4 15 -6 23 -6s16 2 24 6l34 19
c15.333 8.66699 31 8.66699 47 0l34 -19c8 -3.33301 15 -5 21 -5c4 -0.666992 7.33301 0.333008 10 3s4 6 4 10c0 9.33301 -4.33301 14 -13 14c-2.66699 0 -5.66699 1 -9 3l-34 19c-25.333 13.333 -50.333 13 -75 -1l-34 -19c-6 -3.33301 -12.333 -3.33301 -19 0l-10 6
c6 9.33301 9 20 9 32c0 22.667 -9.33301 41 -28 55v221c0 11.333 -4 21 -12 29s-17.667 12 -29 12s-21.166 -4 -29.499 -12s-12.5 -17.667 -12.5 -29v-221c-18 -14.667 -27 -33 -27 -55c0 -13.333 2.66699 -24 8 -32l-11 -6c-6 -3.33301 -12.333 -3.33301 -19 0l-34 19
c-25.333 15.333 -50.333 15.333 -75 0l-33 -19c-2.66699 -2 -6 -3 -10 -3c-3.33301 0 -6.5 -1.33301 -9.5 -4s-4.5 -6 -4.5 -10c0 -3.33301 1.5 -6.33301 4.5 -9s6.16699 -4 9.5 -4c9.33301 0 17.333 2 24 6l33 19c16 8.66699 32 8.66699 48 0l33 -19
c16 -8.66699 31.667 -8.66699 47 0l15 8c8.66699 -6.66699 18 -11.334 28 -14.001c-8 -0.666992 -15.667 -3.33398 -23 -8.00098l-33 -20c-6.66699 -3.33301 -13.334 -3.33301 -20.001 0l-33 20c-24.667 14 -50 14 -76 0l-33 -20c-4 -1.33301 -7.33301 -2 -10 -2
c-3.33301 0 -6.5 -1.33301 -9.5 -4s-4.5 -6 -4.5 -10c0 -3.33301 1.5 -6.33301 4.5 -9s6.16699 -4 9.5 -4c8 0 16 2 24 6l33 19c16 8.66699 32 8.66699 48 0l33 -19c16 -8.66699 31.667 -8.66699 47 0l34 19c16 8.66699 32 8.66699 48 0l33 -19c6.66699 -4 14.667 -6 24 -6
c8 0 15.667 2 23 6l34 19c15.333 8.66699 31 8.66699 47 0l34 -18c6.66699 -4 13.667 -6 21 -6c4 -0.666992 7.5 0.333008 10.5 3s4.5 6 4.5 10c0 3.33301 -1.33301 6.5 -4 9.5s-6 4.5 -10 4.5zM271 339.002h-27v97c0 9.33301 4.33301 14 13 14
c9.33301 0 14 -4.66699 14 -14v-97z" />
    <glyph glyph-name="kreslici-platno-1-kopie-15" unicode="&#xe019;" 
d="M311 165v292c0 15.333 -5.5 28.333 -16.5 39s-23.833 16 -38.5 16s-27.5 -5.33301 -38.5 -16s-16.5 -23.667 -16.5 -39v-292c-15.333 -12 -26 -27.333 -32 -46s-6 -37.334 0 -56.001c6.66699 -18.667 18 -33.834 34 -45.501s33.667 -17.5 53 -17.5s37 5.83301 53 17.5
s27.333 26.834 34 45.501c6 18.667 6 37.334 0 56.001s-16.667 34 -32 46zM238 457c0 4.66699 1.66895 8.83398 5.00195 12.501s7.66602 5.5 12.999 5.5s9.66602 -1.83301 12.999 -5.5s5 -7.83398 5 -12.501v-128h-36v128z" />
    <glyph glyph-name="reddit" unicode="&#xe01a;" 
d="M355 239c1.33301 -4 2 -7.00098 2 -9.00098c0 -6.66699 -2 -12.667 -6 -18c-4.66699 -6 -9.66699 -9.33301 -15 -10v0c-4 -1.33301 -6.66699 -2 -8 -2c-6.66699 0 -13 2.33301 -19 7s-9.33301 10.334 -10 17.001v0v0c-0.666992 1.33301 -1 3 -1 5
c0 6 1.66699 11.667 5 17c4 5.33301 8.66699 9 14 11v0c2 0.666992 5.33301 1 10 1c6 0 11.667 -1.66699 17 -5s9 -8 11 -14v0zM337 164.999c-4 1.33301 -6.66406 1.99902 -7.99707 1.99902c-2 0 -4.33301 -0.666992 -7 -2c-22 -12.667 -44.667 -19 -68 -19
c-18.667 0 -36 4 -52 12v0c-0.666992 0 -3.33398 1.66699 -8.00098 5c-0.666992 0.666992 -1.5 1.33398 -2.5 2.00098s-1.83301 1 -2.5 1s-1.66699 0.166992 -3 0.5s-2.33301 0.5 -3 0.5c-2.66699 0 -4.33398 -0.333008 -5.00098 -1h-1
c-3.33301 -1.33301 -5.33301 -3.33301 -6 -6c-1.33301 -2.66699 -2 -5.33398 -2 -8.00098c0 -3.33301 0.666992 -5.66602 2 -6.99902c1.33301 -2 3 -3.66699 5 -5c22 -15.333 47.667 -23 77 -23c24 0 47.667 5.33301 71 16v0c2 1.33301 5.66699 3.33301 11 6l2 1l3 3l3 6
c0 0.666992 0.333008 1.66699 1 3v1c0 2 -0.666992 3.66699 -2 5c-0.666992 2 -2.33398 4.33301 -5.00098 7zM175.003 201.998h0.999023c4 -1.33301 7 -2 9 -2c6.66699 0 13.334 2.66699 20.001 8c6 6 9 12.667 9 20v1v1c0 7.33301 -3 14 -9 20
c-6.66699 5.33301 -13.334 8 -20.001 8h-6v0c-11.333 -2 -18.666 -8.66699 -21.999 -20v0c-1.33301 -4 -2 -6.66699 -2 -8c0 -6.66699 2 -12.667 6 -18c3.33301 -4.66699 8 -8 14 -10zM486.002 273.998l-0.00292969 -3.00195c0 -11.333 -3 -21.666 -9 -30.999
s-13.333 -16.333 -22 -21c0 -1.33301 0.166992 -3.33301 0.5 -6s0.5 -5 0.5 -7c0 -24 -7.66699 -46.333 -23 -67v0c-24.667 -32 -61.334 -54.333 -110.001 -67v0c-23.333 -5.33301 -45.666 -8 -66.999 -8c-35.333 0 -68.666 6.33301 -99.999 19v0
c-37.333 14.667 -65 36.667 -83 66c-10.667 16.667 -16 35.667 -16 57v13c-9.33301 6 -16.333 12.667 -21 20c-6.66699 10 -10 20.333 -10 31c0 16.667 5.66699 30 17 40c10.667 12 23.667 18 39 18h1h5c8.66699 0 16 -1.33301 22 -4v0c6 -1.33301 12 -4.66602 18 -9.99902
l6 3c28 16.667 64.667 26.334 110 29.001c0 24 4 42.667 12 56c7.33301 15.333 19.333 25 36 29v0c8 1.33301 14 2 18 2c14.667 0 30.334 -3.33301 47.001 -10c5.33301 9.33301 14 16.666 26 21.999v0c7.33301 2 14 3 20 3c8.66699 0 16 -1.33301 22 -4v0
c10.667 -4.66699 18.334 -11.334 23.001 -20.001c6.66699 -8.66699 10 -18.334 10 -29.001c0 -2.66699 -0.333008 -4.66699 -1 -6v0c-0.666992 -13.333 -6.66699 -25 -18 -35c-10 -8.66699 -21.667 -13 -35 -13h-7c-13.333 1.33301 -24.666 7 -33.999 17
c-10 10 -15 21.667 -15 35v2c-13.333 6.66699 -26 10 -38 10h-5c-11.333 -1.33301 -19 -6.66602 -23 -15.999c-4.66699 -8.66699 -7.66699 -23 -9 -43c41.333 -2 77.333 -12 108 -30v0c0.666992 0 1 -0.333008 1 -1l2 -1c2 2 4.33301 3.66699 7 5
c9.33301 6.66699 20.666 10 33.999 10c6.66699 0 11.667 -0.666992 15 -2v0h1c10.667 -2.66699 21 -9 31 -19c8 -9.33301 12.667 -20.666 14 -33.999zM376.999 395.996v-2c0 -6 2.66699 -11.667 8 -17c6 -4.66699 11.667 -7 17 -7h2c5.33301 0 11 2.33301 17 7
c5.33301 4 8 9.66699 8 17v0v2c0 7.33301 -2.66699 13 -8 17c-5.33301 5.33301 -11.333 8 -18 8c-2.66699 0 -4.66699 -0.333008 -6 -1v0c-5.33301 -0.666992 -10 -3.66699 -14 -9c-4 -4 -6 -9 -6 -15zM102.999 295.996c-6.66699 2.66699 -11.666 4 -14.999 4h-3v0
c-8.66699 0 -15.334 -3 -20.001 -9c-6 -4.66699 -9 -11 -9 -19v0c-0.666992 -0.666992 -1 -1.33398 -1 -2.00098c0 -3.33301 1.33301 -7.66602 4 -12.999c2.66699 -4 5 -6.66699 7 -8c8.66699 17.333 21 33 37 47zM426 204.996c0 16 -5.00195 31.668 -15.002 47.001
c-18 24.667 -45 42.667 -81 54c-8 2.66699 -14 4.33398 -18 5.00098c-18 4 -36.667 6 -56 6c-24 0 -48.667 -3.66699 -74 -11c-36 -11.333 -63 -29.333 -81 -54c-10 -15.333 -15 -31 -15 -47c0 -4 0.666992 -10 2 -18c4 -13.333 10.667 -25.333 20 -36
c7.33301 -10 17.666 -19 30.999 -27c0.666992 0 1.83398 -0.666992 3.50098 -2s2.83398 -2 3.50098 -2c32 -18 68.667 -27 110 -27c8.66699 0 15.334 0.333008 20.001 1c42 3.33301 78 15.666 108 36.999c14 12 22.667 20.667 26 26c8.66699 13.333 13.667 24.666 15 33.999
v0c0.666992 3.33301 1 8 1 14zM456.998 270.997c0 4 -1 8 -3 12v0c-2.66699 5.33301 -6.66699 9.66602 -12 12.999c-5.33301 2.66699 -11.333 4 -18 4c-5.33301 0 -10.333 -1.33301 -15 -4c16 -14 28.333 -29.667 37 -47c2 1.33301 4.33301 4 7 8
c2.66699 6.66699 4 11.334 4 14.001z" />
    <glyph glyph-name="vk" unicode="&#xe01b;" 
d="M529 363c4.66699 -12 -9.32617 -40.0029 -41.9932 -84.0029c-2 -2 -5.16699 -5.83301 -9.5 -11.5l-9.5 -12.5c-13.333 -17.333 -22 -29.666 -26 -36.999c-3.33301 -8.66699 -2 -16.334 4 -23.001c0.666992 -0.666992 3.5 -3.66699 8.5 -9l14.5 -15h1l1 -1
c27.333 -25.333 45.333 -46.333 54 -63c1.33301 -1.33301 2 -2.66602 2 -3.99902c1.33301 -1.33301 2 -3.66602 2 -6.99902c0.666992 -4 0.666992 -7.33301 0 -10s-3 -5.33398 -7 -8.00098c-4 -2 -9.66699 -3 -17 -3l-73 -2c-4 -0.666992 -9.33301 0 -16 2c-6 2 -11 4 -15 6
l-6 4c-6.66699 5.33301 -13.334 11.333 -20.001 18c-12 13.333 -18.333 20.666 -19 21.999c-6 7.33301 -12 13 -18 17c-6.66699 4 -12 5.33301 -16 4c-0.666992 -0.666992 -1.33398 -1 -2.00098 -1s-2.33398 -1.33301 -5.00098 -4c-2 -2 -4 -5 -6 -9
c-0.666992 -0.666992 -2.33398 -5.33398 -5.00098 -14.001c-1.33301 -9.33301 -2 -17 -2 -23c0 -3.33301 -0.333008 -5.66602 -1 -6.99902c0 -2.66699 -0.666992 -4.66699 -2 -6l-1 -1c-2.66699 -4 -7.66699 -6 -15 -6h-33c-14 -1.33301 -28 0 -42 4
c-15.333 4.66699 -27.666 9.66699 -36.999 15c-2 1.33301 -6.66699 4.16602 -14 8.49902s-12.666 7.83301 -15.999 10.5c-9.33301 6.66699 -16 12.334 -20 17.001l-7 7c-2 1.33301 -4.66699 4 -8 8c-0.666992 1.33301 -2 3.16602 -4 5.49902s-4.5 5.5 -7.5 9.5l-8.5 11
l-31 43c-2.66699 4 -7.83398 12.833 -15.501 26.5l-19.5 34.5c-12.667 24.667 -25 50.334 -37 77.001c-1.33301 4 -2 6.66699 -2 8c0 0.666992 0.333008 1.66699 1 3v2l1 1c3.33301 4 9 6 17 6h78c0.666992 0 3 -0.666992 7 -2c1.33301 0 2.66602 -0.666992 3.99902 -2l2 -1
c3.33301 -2 5.33301 -5 6 -9c1.33301 -4 3.66602 -9.33301 6.99902 -16l7 -14c1.33301 -2.66699 3.16602 -6.66699 5.49902 -12s4.16602 -9 5.49902 -11l5 -8c1.33301 -3.33301 6.66602 -13.333 15.999 -30c5.33301 -8.66699 10 -15 14 -19
c4.66699 -5.33301 8.66699 -9 12 -11c2.66699 -2.66699 5.66699 -4 9 -4c4 0 6.66699 0.333008 8 1l1 1c0.666992 0.666992 2 3 4 7c1.33301 2 2.66602 6.33301 3.99902 13c0.666992 2 1.16699 5.66699 1.5 11s0.5 9.33301 0.5 12c0.666992 10 0.666992 22 0 36
c0 6 -0.666992 13 -2 21c-0.666992 4.66699 -2 9 -4 13l-2 3c-4.66699 6.66699 -12.667 11 -24 13c-2 0 -1.66699 2.33301 1 7c6.66699 4.66699 10.334 7.33398 11.001 8.00098c9.33301 4.66699 32 7 68 7c17.333 0 30.333 -1.33301 39 -4
c4 -1.33301 7.33301 -2.66602 10 -3.99902s4.33398 -3.33301 5.00098 -6c2 -2.66699 3 -6 3 -10c0.666992 -2 1 -6.33301 1 -13v-15c0 -8 -0.333008 -14.667 -1 -20v-24v-12v-14c0 -4.66699 0.333008 -8.33398 1 -11.001c0 -4 1 -7.66699 3 -11
c1.33301 -3.33301 3.33301 -5.66602 6 -6.99902c0.666992 -0.666992 1.5 -1 2.5 -1s1.83301 -0.333008 2.5 -1c2 0 4.66699 1.33301 8 4c2 1.33301 5.33301 4.33301 10 9c6.66699 8 11.667 14.667 15 20c7.33301 10 14 20 20 30c10.667 19.333 20.667 41 30 65
c0.666992 0.666992 1.66699 2.33398 3 5.00098l3 3h1l2 1l4 1h5l83 1c5.33301 0.666992 11.333 0.333984 18 -0.999023c4.66699 -0.666992 7.66699 -2.33398 9 -5.00098z" />
    <glyph glyph-name="l-02" unicode="&#xe01c;" 
d="M256 415c30 0 57 -9.16602 81 -27.499s39.667 -41.833 47 -70.5l5 -18l17 -4c22.667 -4.66699 41 -15.834 55 -33.501s21 -38.167 21 -61.5c0 -27.333 -9.5 -50.5 -28.5 -69.5s-42.167 -28.5 -69.5 -28.5h-256c-27.333 0 -50.5 9.5 -69.5 28.5s-28.5 42.167 -28.5 69.5
c0 22.667 7.16699 43 21.5 61s32.5 29.333 54.5 34l18 4l4 18c8 28.667 24 52.167 48 70.5s50.667 27.5 80 27.5zM256 445.001c-37.333 0 -70.332 -11.332 -98.999 -33.999s-47.667 -51.334 -57 -86.001c-28.667 -7.33301 -52.5 -22.5 -71.5 -45.5s-28.5 -49.5 -28.5 -79.5
c0 -35.333 12.5 -65.5 37.5 -90.5s55.167 -37.5 90.5 -37.5h256c35.333 0 65.5 12.5 90.5 37.5s37.5 55.167 37.5 90.5c0 30 -9.33301 56.5 -28 79.5s-42.334 37.833 -71.001 44.5c-9.33301 35.333 -28.5 64.333 -57.5 87s-62.167 34 -99.5 34zM243.001 320.002h-36v-162
h115v30h-79v132z" />
    <glyph glyph-name="number-one" unicode="&#xe01d;" 
d="M256 512c-70.667 0 -131 -25 -181 -75s-75 -110.333 -75 -181s25 -131 75 -181s110.333 -75 181 -75s131 25 181 75s75 110.333 75 181s-25 131 -75 181s-110.333 75 -181 75zM256 40c-59.333 0 -110.166 21.167 -152.499 63.5s-63.5 93.166 -63.5 152.499
s21.167 110.166 63.5 152.499s93.166 63.5 152.499 63.5s110.166 -21.167 152.499 -63.5s63.5 -93.166 63.5 -152.499s-21.167 -110.166 -63.5 -152.499s-93.166 -63.5 -152.499 -63.5zM250 311l-62 0.000976562v25h19c7.33301 0 14 1 20 3
c6 3.33301 11.333 6.66602 16 9.99902c4.66699 4.66699 8 9.66699 10 15c2.66699 5.33301 4 12 4 20h27v-256h-34v183z" />
    <glyph glyph-name="m-01" unicode="&#xe01e;" 
d="M412 352c-16 26.667 -37.8301 47.834 -65.4971 63.501s-57.834 23.5 -90.501 23.5s-62.834 -7.83301 -90.501 -23.5s-49.5 -36.834 -65.5 -63.501c-28 -3.33301 -51.667 -15.833 -71 -37.5s-29 -47.167 -29 -76.5c0 -31.333 11.333 -58.333 34 -81s49.667 -34 81 -34
c6.66699 0 11.334 0.333008 14.001 1c35.333 -34 77.666 -51 126.999 -51s91.666 17 126.999 51c3.33301 -0.666992 8 -1 14 -1c31.333 0 58.333 11.333 81 34s34 49.667 34 81c0 29.333 -9.66699 54.833 -29 76.5s-43 34.167 -71 37.5zM397.003 153
c-4.66699 0 -8 0.333984 -10 1.00098l-15 1l-10 -10c-30 -28.667 -65.333 -43 -106 -43s-76 14.333 -106 43l-10 10l-15 -2h-10c-23.333 0 -43.333 8.33301 -60 25s-25 36.667 -25 60c0 21.333 7 40.166 21 56.499s31.667 25.833 53 28.5l14 1l7 12
c31.333 49.333 75 74 131 74s99.667 -24.333 131 -73l7 -12l14 -2c21.333 -2.66699 39 -12 53 -28s21 -34.667 21 -56c0 -23.333 -8.33301 -43.5 -25 -60.5s-36.667 -25.5 -60 -25.5zM257.003 226.001l-38 111h-50v-162h33v114h1l39 -114h28l39 115h1v-115h33v162h-50z" />
    <glyph glyph-name="h-02" unicode="&#xe01f;" 
d="M289 258h-66v62h-36v-162h36v69h66v-69h36v162h-36v-62zM256 415c30 0 57 -9.16602 81 -27.499s39.667 -41.833 47 -70.5l5 -18l17 -4c22.667 -4.66699 41 -15.834 55 -33.501s21 -38.167 21 -61.5c0 -27.333 -9.5 -50.5 -28.5 -69.5s-42.167 -28.5 -69.5 -28.5h-256
c-27.333 0 -50.5 9.5 -69.5 28.5s-28.5 42.167 -28.5 69.5c0 22.667 7.16699 43 21.5 61s32.5 29.333 54.5 34l18 4l4 18c8 28.667 24 52.167 48 70.5s50.667 27.5 80 27.5zM256 445.001c-37.333 0 -70.332 -11.332 -98.999 -33.999s-47.667 -51.334 -57 -86.001
c-28.667 -7.33301 -52.5 -22.5 -71.5 -45.5s-28.5 -49.5 -28.5 -79.5c0 -35.333 12.5 -65.5 37.5 -90.5s55.167 -37.5 90.5 -37.5h256c35.333 0 65.5 12.5 90.5 37.5s37.5 55.167 37.5 90.5c0 30 -9.33301 56.5 -28 79.5s-42.334 37.833 -71.001 44.5
c-9.33301 35.333 -28.5 64.333 -57.5 87s-62.167 34 -99.5 34z" />
    <glyph glyph-name="number-two" unicode="&#xe020;" 
d="M256 512c-70.667 0 -131 -25 -181 -75s-75 -110.333 -75 -181s25 -131 75 -181s110.333 -75 181 -75s131 25 181 75s75 110.333 75 181s-25 131 -75 181s-110.333 75 -181 75zM256 40c-59.333 0 -110.166 21.167 -152.499 63.5s-63.5 93.166 -63.5 152.499
s21.167 110.166 63.5 152.499s93.166 63.5 152.499 63.5s110.166 -21.167 152.499 -63.5s63.5 -93.166 63.5 -152.499s-21.167 -110.166 -63.5 -152.499s-93.166 -63.5 -152.499 -63.5zM176 302c2.66699 24.667 11 44.332 25 58.999c15.333 15.333 35 23 59 23
c12 0 23 -2 33 -6c8.66699 -5.33301 16.667 -11.333 24 -18c6 -7.33301 10.667 -15.666 14 -24.999c3.33301 -10 5 -19.333 5 -28s-1 -16.667 -3 -24s-5 -13.333 -9 -18c-2 -3.33301 -6.33301 -8.33301 -13 -15c-4.66699 -4.66699 -10 -9 -16 -13
c-12 -10 -23.333 -18 -34 -24c-11.333 -8 -22.333 -17 -33 -27c-2.66699 -2 -6 -5.66699 -10 -11c-2 -4 -4 -9 -6 -15h117v-32h-150v24c0 10 3 20 9 30c6 8.66699 14 18 24 28c13.333 12 24 20.667 32 26c18.667 14 29.667 22.333 33 25c8 6 14.333 12.333 19 19
c4 6.66699 6 15.667 6 27c0 16 -3.66699 27.667 -11 35c-8 8.66699 -18.333 13 -31 13c-14.667 0 -26.667 -4.66699 -36 -14c-9.33301 -10.667 -14 -23.667 -14 -39h-34z" />
    <glyph glyph-name="number-three" unicode="&#xe021;" 
d="M256 512c-70.667 0 -131 -25 -181 -75s-75 -110.333 -75 -181s25 -131 75 -181s110.333 -75 181 -75s131 25 181 75s75 110.333 75 181s-25 131 -75 181s-110.333 75 -181 75zM256 40c-59.333 0 -110.166 21.167 -152.499 63.5s-63.5 93.166 -63.5 152.499
s21.167 110.166 63.5 152.499s93.166 63.5 152.499 63.5s110.166 -21.167 152.499 -63.5s63.5 -93.166 63.5 -152.499s-21.167 -110.166 -63.5 -152.499s-93.166 -63.5 -152.499 -63.5zM183 307c3.33301 24 10.3301 43 20.9971 57c11.333 13.333 29 20 53 20
c20.667 0 37.667 -6 51 -18c12 -12 18 -27.667 18 -47c0 -14 -2.66699 -25.333 -8 -34c-4.66699 -8 -13 -14.667 -25 -20c6.66699 -2 12 -4.33301 16 -7c6.66699 -5.33301 11.334 -9.66602 14.001 -12.999c3.33301 -4 6.66602 -10 9.99902 -18
c2 -7.33301 3 -15.666 3 -24.999c0 -12 -2 -22.667 -6 -32c-6 -10.667 -11.667 -18.334 -17 -23.001c-9.33301 -6.66699 -17.666 -11.334 -24.999 -14.001c-11.333 -3.33301 -21.666 -5 -30.999 -5c-22 0 -40 7 -54 21c-14 12.667 -23 33.334 -27 62.001h33
c3.33301 -20.667 8.66602 -34.667 15.999 -42c8 -8 18.667 -12 32 -12c6 0 12 1 18 3c4 1.33301 9 4.33301 15 9c4.66699 4.66699 8 9.33398 10 14.001c2.66699 5.33301 4 11.666 4 18.999c0 14 -4.33301 25.333 -13 34c-7.33301 9.33301 -18.666 14 -33.999 14h-18v29h18
c7.33301 0 13 1 17 3c5.33301 2 9.33301 5 12 9c2.66699 3.33301 4.66699 7.33301 6 12c1.33301 5.33301 2 9.66602 2 12.999c0 11.333 -3.33301 21 -10 29c-7.33301 7.33301 -16.666 11 -27.999 11c-4.66699 0 -10.334 -1.33301 -17.001 -4
c-5.33301 -3.33301 -9.33301 -7 -12 -11c-3.33301 -3.33301 -6 -8.33301 -8 -15c-1.33301 -4.66699 -2.66602 -11 -3.99902 -19h-32z" />
    <glyph glyph-name="stopwatch" unicode="&#xe022;" 
d="M277 426l-0.00195312 22h11c7.33301 0 11 3.66699 11 11v42c0 7.33301 -3.66699 11 -11 11h-64c-7.33301 0 -11 -3.66699 -11 -11v-42c0 -7.33301 3.66699 -11 11 -11h11v-22c-18.667 -2 -37 -6.66699 -55 -14l-23 22l-39 39l-75 -75l49 -49
c-32.667 -38.667 -49 -84 -49 -136c0 -58.667 20.833 -108.834 62.5 -150.501s91.834 -62.5 150.501 -62.5s108.834 20.833 150.501 62.5s62.5 91.834 62.5 150.501c0 55.333 -18.5 103.333 -55.5 144s-82.5 63.667 -136.5 69zM234.998 491h42v-22h-42v22zM72.998 398l45 45
l25 -25l-45 -45zM255.998 43c-47.333 0 -87.6699 16.667 -121.003 50s-50 73.333 -50 120c0 47.333 16.833 87.666 50.5 120.999s73.834 50 120.501 50s86.834 -16.667 120.501 -50s50.5 -73.666 50.5 -120.999c0 -46.667 -16.667 -86.667 -50 -120
s-73.666 -50 -120.999 -50zM238.994 310c-4 4.66699 -8.99707 6.99805 -14.9971 6.99805s-11 -2.33301 -15 -7c-4 -4 -6 -9 -6 -15s2 -11 6 -15l42 -42l-56 -78c-2.66699 -5.33301 -3.33398 -10.666 -2.00098 -15.999s4.66602 -9.66602 9.99902 -12.999
c3.33301 -2 6.66602 -3 9.99902 -3c8.66699 0 15 3.66699 19 11l64 92c5.33301 9.33301 4 18 -4 26z" />
    <glyph glyph-name="radar-2" unicode="&#xe023;" 
d="M437 448c8.66699 0 16.167 3.16699 22.5 9.5s9.5 13.833 9.5 22.5s-3.16699 16.167 -9.5 22.5s-13.833 9.5 -22.5 9.5s-16.167 -3 -22.5 -9s-9.5 -13.667 -9.5 -23c0 -6.66699 2 -12.334 6 -17.001l-160 -107l-144 144c-11.333 10 -23.666 12.333 -36.999 7
s-20 -15.666 -20 -30.999c0 -102.667 35.333 -189.667 106 -261c70.667 -70.667 157.667 -106 261 -106c15.333 0 25.666 7 30.999 21c5.33301 12.667 3 24.667 -7 36l-128 128l106 160c4.66699 -4 10.667 -6 18 -6zM212 113c-1.33301 4.66699 -3.66699 7.99902 -7 9.99902
c-28.667 16 -55.667 36 -81 60l-1 1v-1l-89 -159c-3.33301 -5.33301 -3.33301 -10.666 0 -15.999s8 -8 14 -8h176c5.33301 0 9.33301 2 12 6c3.33301 4 4.33301 8.66699 3 14z" />
    <glyph glyph-name="android-more-vertical" unicode="&#xe024;" 
d="M296 376c0 10.667 -4 20 -12 28s-17.333 12 -28 12s-20 -4 -28 -12s-12 -17.333 -12 -28s4 -20 12 -28s17.333 -12 28 -12s20 4 28 12s12 17.333 12 28zM296 136c0 10.667 -4 20 -12 28s-17.333 12 -28 12s-20 -4 -28 -12s-12 -17.333 -12 -28s4 -20 12 -28
s17.333 -12 28 -12s20 4 28 12s12 17.333 12 28zM296 256c0 10.667 -4 20 -12 28s-17.333 12 -28 12s-20 -4 -28 -12s-12 -17.333 -12 -28s4 -20 12 -28s17.333 -12 28 -12s20 4 28 12s12 17.333 12 28z" />
    <glyph glyph-name="bell-slash-o" unicode="&#xe025;" 
d="M261 27c0 3.33301 -1.66699 5 -5 5c-11.333 0 -21 4 -29 12s-12 17.667 -12 29c0 3.33301 -1.66699 5 -5 5c-2.66699 0 -4 -1.66699 -4 -5c0 -14 4.66699 -25.667 14 -35c10 -10 22 -15 36 -15c3.33301 0 5 1.33301 5 4zM107 163l250.999 217
c-8 16.667 -20.667 30.667 -38 42s-38.666 17 -63.999 17c-18 0 -34 -3 -48 -9c-15.333 -6 -27 -13.667 -35 -23c-8 -8 -14.667 -18 -20 -30c-4.66699 -11.333 -7 -21.333 -7 -30c0 -72.667 -13 -134 -39 -184zM493.999 110c0 -10 -3.66602 -18.668 -10.999 -26.001
s-16 -11 -26 -11h-128c0 -19.333 -7 -36.666 -21 -51.999c-14.667 -14 -32 -21 -52 -21s-37.333 7 -52 21c-14 14 -21 31.333 -21 52l42 37h217c-32.667 35.333 -54.334 79 -65.001 131l32 28c10.667 -67.333 39 -120.333 85 -159zM518 506.999l24.001 -27
c2 -2 2.66699 -4.33301 2 -7c0 -2 -1 -4 -3 -6l-534 -464c-2.66699 -1.33301 -5 -2 -7 -2c-3.33301 1.33301 -5.33301 2.66602 -6 3.99902l-24 27c-2 2 -2.66699 4.33301 -2 7c0 2 1 4 3 6l53 46c-4 6 -6 12.333 -6 19c8.66699 6.66699 17.334 15 26.001 25
c7.33301 8.66699 15.666 20 24.999 34c8 14 15 29 21 45c4.66699 12.667 9.33398 32.334 14.001 59.001c4 23.333 6 48 6 74c0 28.667 11 55.667 33 81c22 24.667 51.333 39.667 88 45c-1.33301 2.66699 -2 6.66699 -2 12c0 8 2.66699 14.333 8 19
c5.33301 5.33301 11.666 8 18.999 8s13.666 -2.66699 18.999 -8c5.33301 -4.66699 8 -11 8 -19c0 -5.33301 -0.666992 -9.33301 -2 -12c23.333 -2.66699 44.333 -10.334 63 -23.001c18 -12 32 -27 42 -45l119 104c2.66699 1.33301 5 2 7 2
c3.33301 -1.33301 5.33301 -2.66602 6 -3.99902z" />
    <glyph glyph-name="fog-cloud" unicode="&#xe026;" 
d="M34 256c-1.33301 6.66699 -2.00195 12 -2.00195 16c0 22 7.83301 40.833 23.5 56.5s34.5 23.5 56.5 23.5c10.667 0 20.667 -2 30 -6c11.333 21.333 27 38.333 47 51s42.333 19 67 19s47 -6.33301 67 -19s35.667 -29.667 47 -51c9.33301 4 19.333 6 30 6
c22 0 40.833 -7.83301 56.5 -23.5s23.5 -34.5 23.5 -56.5c0 -4 -0.666992 -9.33301 -2 -16h32c1.33301 6.66699 2 12 2 16c0 30.667 -11 57 -33 79s-48.333 33 -79 33c-7.33301 0 -12.666 -0.333008 -15.999 -1c-32 43.333 -74.667 65 -128 65s-96 -21.667 -128 -65
c-3.33301 0.666992 -8.66602 1 -15.999 1c-30.667 0 -57 -11 -79 -33s-33 -48.333 -33 -79c0 -4 0.666992 -9.33301 2 -16h32zM495.998 224h-480c-10.667 0 -16 -5.33301 -16 -16s5.33301 -16 16 -16h480c10.667 0 16 5.33301 16 16s-5.33301 16 -16 16zM495.998 160h-480
c-10.667 0 -16 -5.33301 -16 -16s5.33301 -16 16 -16h480c10.667 0 16 5.33301 16 16s-5.33301 16 -16 16zM495.998 96h-480c-10.667 0 -16 -5.33301 -16 -16s5.33301 -16 16 -16h480c10.667 0 16 5.33301 16 16s-5.33301 16 -16 16z" />
    <glyph glyph-name="bell" unicode="&#xe027;" 
d="M261 27c0 3.33301 -1.66699 5 -5 5c-11.333 0 -21 4 -29 12s-12 17.667 -12 29c0 3.33301 -1.66699 5 -5 5c-2.66699 0 -4 -1.66699 -4 -5c0 -14 4.66699 -25.667 14 -35c10 -10 22 -15 36 -15c3.33301 0 5 1.33301 5 4zM494 110c0 -10 -3.66699 -18.667 -11 -26
s-16 -11 -26 -11h-128c0 -19.333 -7 -36.666 -21 -51.999c-14.667 -14 -32 -21 -52 -21s-37.333 7 -52 21c-14 15.333 -21 32.666 -21 51.999h-128c-10 0 -18.667 3.66699 -26 11s-11 16 -11 26c8.66699 6.66699 17.334 15 26.001 25c7.33301 8.66699 15.666 20 24.999 34
c8 14 15 29 21 45c4.66699 12.667 9.33398 32.334 14.001 59.001c4 23.333 6 48 6 74c0 28.667 11 55.667 33 81c22 24.667 51.333 39.667 88 45c-1.33301 2.66699 -2 6.66699 -2 12c0 8 2.66699 14.333 8 19c5.33301 5.33301 11.666 8 18.999 8s13.666 -2.66699 18.999 -8
c5.33301 -4.66699 8 -11 8 -19c0 -5.33301 -0.666992 -9.33301 -2 -12c36.667 -5.33301 66 -20.333 88 -45c22 -25.333 33 -52.333 33 -81c0 -26 2 -50.667 6 -74c4.66699 -26.667 9.33398 -46.334 14.001 -59.001c6 -16 13 -31 21 -45
c9.33301 -14 17.666 -25.333 24.999 -34c8.66699 -10 17.334 -18.333 26.001 -25z" />
    <glyph glyph-name="plachetnice-01" unicode="&#xe028;" 
d="M448 320c-12.667 25.333 -28 48.668 -46 70.001s-32.667 36.333 -44 45l-17 13c14.667 -52.667 22 -102.334 22 -149.001c0 -74.667 -10 -131 -30 -169l159 15c1.33301 19.333 -2.5 46.833 -11.5 82.5s-19.833 66.5 -32.5 92.5zM320 512.002l-159 -398l159 15v383z
M79 64.002c10 0 20.335 -2.66797 31.002 -8.00098l22 -12l22 12c8.66699 5.33301 19 8 31 8c11.333 0 21.666 -2.66699 30.999 -8l22 -12l23 12c8 5.33301 18 8 30 8c11.333 0 21.666 -2.66699 30.999 -8l20 -11c22.667 4.66699 44 11 64 19
c15.333 6.66699 30 15.334 44 26.001s24.333 19.667 31 27l10 11l-448 -43l12 -25c7.33301 2.66699 15.333 4 24 4zM469.002 30.001l-8 -4.00098c-7.33301 -4 -14.666 -4 -21.999 0l-22 12c-12.667 7.33301 -26 7.33301 -40 0l-22 -13c-7.33301 -4 -14.666 -4 -21.999 0
l-22 13c-13.333 8 -26.666 8 -39.999 0l-22 -13c-7.33301 -4 -14.666 -4 -21.999 0l-22 13c-14 7.33301 -27.333 7.33301 -40 0l-22 -13c-7.33301 -4 -14.666 -4 -21.999 0l-22 13c-14 7.33301 -27.667 7.33301 -41 0l-16 -10v-22l26 15c7.33301 4 14.666 4 21.999 0l22 -13
c13.333 -8 26.666 -8 39.999 0l22 13c7.33301 4 14.666 4 21.999 0l22 -13c13.333 -8 26.666 -8 39.999 0l22 13c7.33301 4 14.666 4 21.999 0l22 -13c14 -7.33301 27.333 -7.33301 40 0l23 13c6.66699 4 13.667 4 21 0l22 -12
c12.667 -7.33301 25.667 -7.66602 39 -0.999023v22z" />
    <glyph glyph-name="plynova-maska" unicode="&#xe029;" 
d="M404 386c-6 36 -22.999 65.999 -50.999 89.999s-60.333 36 -97 36s-69 -12 -97 -36s-45 -54 -51 -90c-9.33301 -13.333 -14 -28.333 -14 -45c0 -31.333 14.333 -54.333 43 -69c13.333 -17.333 24.666 -29.666 33.999 -36.999l38 -96c14 4 29.667 6 47 6s33 -2 47 -6
l38 96c16.667 16.667 28 29 34 37c28.667 14.667 43 37.667 43 69c0 17.333 -4.66699 32.333 -14 45zM171.001 289.999c-14 0 -26.167 5 -36.5 15s-15.5 22 -15.5 36s5.16699 26.167 15.5 36.5s22.5 15.5 36.5 15.5s26 -5.16699 36 -15.5s15 -22.5 15 -36.5s-5 -26 -15 -36
s-22 -15 -36 -15zM341.001 289.999c-14 0 -26 5 -36 15s-15 22 -15 36s5 26.167 15 36.5s22 15.5 36 15.5s26.167 -5.16699 36.5 -15.5s15.5 -22.5 15.5 -36.5s-5.16699 -26 -15.5 -36s-22.5 -15 -36.5 -15zM256.001 127.999c-23.333 0 -43.333 -4.16699 -60 -12.5
s-25 -18.5 -25 -30.5v-42c0 -12 8.33301 -22.167 25 -30.5s36.667 -12.5 60 -12.5s43.333 4.16699 60 12.5s25 18.5 25 30.5v42c0 12 -8.33301 22.167 -25 30.5s-36.667 12.5 -60 12.5zM256.001 10.999c-17.333 0 -32.333 3.16699 -45 9.5s-19 13.833 -19 22.5
s6.33301 16.167 19 22.5s27.667 9.5 45 9.5s32.333 -3.16699 45 -9.5s19 -13.833 19 -22.5s-6.33301 -16.167 -19 -22.5s-27.667 -9.5 -45 -9.5z" />
    <glyph glyph-name="sopka" unicode="&#xe02a;" 
d="M416 218l-49.002 71l-9 15c-8 13.333 -24.667 23.666 -50 30.999c-3.33301 -9.33301 -7 -16 -11 -20c30 -8 45 -20.667 45 -38c0 -11.333 -8.5 -21.166 -25.5 -29.499s-37.167 -12.5 -60.5 -12.5s-43.333 4.16699 -60 12.5s-25 18.166 -25 29.499
c0 17.333 15.667 30 47 38v3c0 4.66699 0.333008 8 1 10c-2 1.33301 -5 4 -9 8c-28 -6.66699 -46.333 -17.334 -55 -32.001c-0.666992 -1.33301 -2 -3.66602 -4 -6.99902s-3.66699 -5.66602 -5 -6.99902l-50 -72c-10 -14.667 -22 -29 -36 -43
c-11.333 -12.667 -17 -25.334 -17 -38.001c0 -26 20.833 -48.167 62.5 -66.5s91.834 -27.5 150.501 -27.5s108.834 9.16699 150.501 27.5s62.5 40.5 62.5 66.5c0 12.667 -5.66699 25.334 -17 38.001c-14 14 -26 28.333 -36 43zM438.998 480
c-2 0 -3.33594 -0.333984 -4.00293 -1.00098c-4 0 -9.33301 -1.33301 -16 -4c-7.33301 10.667 -17.666 16 -30.999 16c-17.333 0 -28.666 -7.66699 -33.999 -23c-3.33301 2.66699 -8 4 -14 4c-7.33301 0 -14 -2.83301 -20 -8.5s-9 -12.5 -9 -20.5
c0 -2.66699 0.666992 -6 2 -10h-2c-6 0 -12.333 -1.66699 -19 -5c-5.33301 3.33301 -11.666 5 -18.999 5c-10.667 0 -19.667 -3.66699 -27 -11s-11 -16.333 -11 -27v-2c-13.333 -4.66699 -20 -13.667 -20 -27c0 -14 7 -23.333 21 -28c0 -1.33301 0.5 -2.83301 1.5 -4.5
s1.5 -2.83398 1.5 -3.50098c-3.33301 -4.66699 -5 -9 -5 -13c0 -4.66699 2 -9 6 -13s8.33301 -6 13 -6c5.33301 0 10 1.83301 14 5.5s6 8.16699 6 13.5v2c12.667 4.66699 19 13.667 19 27c0 4.66699 -1.33301 9.33398 -4 14.001h2l2 1c5.33301 -3.33301 11.666 -5 18.999 -5
c8.66699 0 15.667 2.33301 21 7c6 -17.333 18.333 -26 37 -26c8 0 15.333 2.66699 22 8c8.66699 -5.33301 17.334 -8 26.001 -8c11.333 0 21.333 3.66699 30 11s14 16.333 16 27l6 3c17.333 10.667 26 26.334 26 47.001c0 15.333 -5.5 28.333 -16.5 39s-24.167 16 -39.5 16z
" />
    <glyph glyph-name="tovarna-01" unicode="&#xe02b;" 
d="M355 192l-86 -42.999h-4l-34 192c0 7.33301 -8.66699 13.333 -26 18c-2.66699 -2.66699 -5 -4.33398 -7 -5.00098c0 -2 -0.666992 -3.66699 -2 -5c10.667 -3.33301 16 -7.33301 16 -12c0 -9.33301 -13 -14 -39 -14c-25.333 0 -38 4.66699 -38 14
c0 4 4.33301 7.66699 13 11c-2 2.66699 -3 6.66699 -3 12c-19.333 -4.66699 -29 -11 -29 -19l-35 -192h-25v-128h384v171l-85 -43v43zM461 470.001c-5.33301 0 -10.001 -2.00098 -14.001 -6.00098c-4.66699 4 -10.667 6 -18 6c-9.33301 0 -17.333 -4 -24 -12
c-8.66699 7.33301 -18.334 11 -29.001 11h-5c-8 14.667 -20.333 22 -37 22c-13.333 0 -24.666 -5.66699 -33.999 -17c-5.33301 11.333 -14.333 17 -27 17c-11.333 0 -20 -5.66699 -26 -17c-3.33301 2 -6.33301 3 -9 3c-6 0 -11.167 -2.16699 -15.5 -6.5
s-6.5 -9.5 -6.5 -15.5c0 -3.33301 0.333008 -5.66602 1 -6.99902h-1c-3.33301 0 -8.33301 -1.33301 -15 -4c-5.33301 2.66699 -10 4 -14 4c-8 0 -14.833 -2.83301 -20.5 -8.5s-8.5 -12.5 -8.5 -20.5v-2c-10 -3.33301 -15 -10 -15 -20c0 -10.667 5.33301 -17.667 16 -21
c0 -1.33301 0.666992 -3.33301 2 -6c-2.66699 -4 -4 -7 -4 -9c0 -10 5 -15 15 -15c9.33301 0 14 5 14 15v1c10 3.33301 15 10 15 20c0 4 -1 7.33301 -3 10c0.666992 0.666992 1.66699 1 3 1c4 -2 8.66699 -3 14 -3c7.33301 0 13 1.66699 17 5
c4.66699 -13.333 13.667 -20 27 -20c4.66699 0 10.334 2 17.001 6c8 -4 14.333 -6 19 -6c8.66699 0 16.5 3 23.5 9s11.167 13.333 12.5 22h3h5c8 -14.667 20.333 -22 37 -22c17.333 0 30.333 8.33301 39 25c4 -2 8.66699 -3 14 -3c14.667 0 25 7 31 21h1
c6 0 11.167 2 15.5 6s6.5 9 6.5 15s-2.16699 11.167 -6.5 15.5s-9.5 6.5 -15.5 6.5z" />
    <glyph glyph-name="language" unicode="&#xe055;" 
d="M505 233c10.667 -26.667 9.00098 -56.666 -4.99902 -89.999c-12.667 -32 -35.334 -59 -68.001 -81c-4 0 -6 0.333008 -6 1l-9 9c-2.66699 4 -5.33398 7.33301 -8.00098 10c0 2.66699 0.333008 4.33398 1 5.00098c28.667 20 48.667 46 60 78
c11.333 31.333 9.33301 56.666 -6 75.999c-4.66699 -11.333 -11.334 -24.333 -20.001 -39c-7.33301 -14 -17.333 -27.667 -30 -41c-13.333 -15.333 -28 -26.333 -44 -33c-17.333 -8 -35.333 -10.667 -54 -8c-17.333 2 -31.666 9 -42.999 21c-10.667 11.333 -16 27 -16 47
c0 28.667 10 54 30 76c18 16.667 37.667 28 59 34l-1 51c-48 -8 -73 -12 -75 -12c-2 -1.33301 -3.66699 -0.666016 -5 2.00098c0 0.666992 -0.333008 2.33398 -1 5.00098c-0.666992 4 -1.33398 7.33301 -2.00098 10c0 2.66699 -0.166992 5.16699 -0.5 7.5
s-0.666016 4.16602 -0.999023 5.49902s-0.5 2.33301 -0.5 3c-1.33301 0 -1.33301 0.666992 0 2h2l2 1l80 14v20v16.5c0 4.33301 -0.166992 8.16602 -0.5 11.499s-0.5 5.66602 -0.5 6.99902v3c0 2.66699 1.33301 4 4 4h10c3.33301 0 6 0.166992 8 0.5s3.66699 0.5 5 0.5h3
c4 0 6 -1.33301 6 -4v-53c48.667 7.33301 76.334 11 83.001 11c2.66699 2 4.66699 1 6 -3c0 -2.66699 0.666992 -6.66699 2 -12c0.666992 -2.66699 1.33398 -5.66699 2.00098 -9v-3c1.33301 -4 0.666016 -6 -2.00098 -6l-90 -16v-52h6c29.333 0 54.333 -6 75 -18
c21.333 -12.667 36 -30 44 -52zM316.001 152.001c9.33301 -2 20 -0.999023 32 3.00098l-2 109c-10.667 -4 -21 -10.667 -31 -20c-14.667 -14.667 -22 -33.334 -22 -56.001c0 -22 7.66699 -34 23 -36zM379.001 166.002c9.33301 8 19 19.667 29 35c11.333 16.667 19 30 23 40
c4.66699 12 6 19 4 21c-12.667 6 -29 9 -49 9h-3l-3 -1zM149.001 361.002c4 -8.66699 12.999 -36.667 26.999 -84l43 -134c13.333 -40 20 -61.333 20 -64c0 -1.33301 -0.666992 -2 -2 -2h-44c-2 0 -3 0.666992 -3 2l-25 85h-90l-26 -85c0 -1.33301 -1 -2 -3 -2h-44
c-1.33301 0 -2 0.666992 -2 2c2.66699 6 32.667 100 90 282c0.666992 2.66699 2.33398 4 5.00098 4h49c3.33301 0 5 -1.33301 5 -4zM83 200.002h74l-37 135l-37 -135v0z" />
    <glyph glyph-name=".null" horiz-adv-x="0" 
 />
    <glyph glyph-name="nonmarkingreturn" 
 />
    <glyph glyph-name="info-circled" 
d="M253 492c64.667 0 120.333 -22.333 167 -67c46 -44.667 70 -99.667 72 -165c0 -66 -22.667 -121.667 -68 -167c-44.667 -46.667 -99.667 -71 -165 -73c-66 0 -121.667 22.667 -167 68c-46.667 45.333 -70.667 100.333 -72 165c-1.33301 65.333 21 121 67 167
c46 47.333 101.333 71.333 166 72zM279.999 414c-14.667 0 -25.999 -4.33301 -33.999 -13c-8 -8 -12 -16.333 -12 -25c0 -10 2.66699 -17.667 8 -23c6.66699 -5.33301 15 -8 25 -8c13.333 0 23.666 3.66699 30.999 11c8 8 12 17.333 12 28c0 20 -10 30 -30 30zM218 110
c11.333 0 25.667 4.33398 43 13.001c19.333 9.33301 37.333 22.666 54 39.999l-9 12c-16 -12 -28.333 -18 -37 -18c-4 0 -4.66699 6.33301 -2 19l22 82c8.66699 32.667 5 49 -11 49c-10.667 0 -26 -5 -46 -15c-22.667 -11.333 -42.334 -24 -59.001 -38l8 -13
c18.667 11.333 31.334 17 38.001 17c4 0 4 -5.66699 0 -17l-18 -78c-8.66699 -35.333 -3 -53 17 -53v0z" />
    <glyph glyph-name="logo-mensi-velikosti-bez-ramecku" 
d="M510 398c-0.666992 -2 -3.66016 -10.3252 -8.99316 -24.9922c-10.667 -29.333 -22.667 -59 -36 -89c-16 -36 -24.667 -55.333 -26 -58c-9.33301 -18.667 -21 -39.334 -35 -62.001c-14 -23.333 -28.667 -42.666 -44 -57.999c-10 -10 -18.667 -17 -26 -21
c-5.33301 -3.33301 -9.66602 -5.33301 -12.999 -6c-3.33301 0 -5.66602 -0.333008 -6.99902 -1h-3h-3h-1h-2c-0.666992 0.666992 -1.66699 1 -3 1c-0.666992 0 -1.66699 0.166992 -3 0.5s-2.33301 0.5 -3 0.5c-2.66699 1.33301 -6 3.33301 -10 6
c-2.66699 2.66699 -6 6.66699 -10 12c9.33301 13.333 19.666 30 30.999 50c10.667 18.667 22 41.334 34 68.001c12 28 20.333 48.333 25 61c2 4 13 35.333 33 94c1.33301 4 2.66602 9 3.99902 15s2.33301 10 3 12l3 9c-0.666992 -2 -2 -5 -4 -9
c-0.666992 -2 -2.16699 -6 -4.5 -12l-5.5 -14c-16.667 -36.667 -30.667 -66.334 -42 -89.001c-6 -12 -16.333 -31.333 -31 -58c-14.667 -24.667 -27.667 -45 -39 -61c-6.66699 -10 -14.334 -19.667 -23.001 -29c0 0.666992 -0.166992 1.66699 -0.5 3s-0.5 2.33301 -0.5 3
c-2 7.33301 -4.33301 19 -7 35c-0.666992 4 -1.5 9.83301 -2.5 17.5s-1.83301 13.167 -2.5 16.5v9c-0.666992 2 -1 4.66699 -1 8c-0.666992 4 -1 9.66699 -1 17c-1.33301 14 -2 34.333 -2 61c0 14 0.666992 31.667 2 53s2 35 2 41c0.666992 10 1.66699 18.333 3 25l1 9v1v3
c0.666992 12 -3 22.167 -11 30.5s-18 12.833 -30 13.5c-12 0 -22.167 -4 -30.5 -12s-12.833 -18 -13.5 -30v-10v-28c0 -18 0.333008 -32.333 1 -43c1.33301 -24.667 2.66602 -43.334 3.99902 -56.001c0.666992 -13.333 3 -35.333 7 -66l3 -18c0.666992 -0.666992 1 -2 1 -4
s0.333008 -3.66699 1 -5c0 -2 0.666992 -5 2 -9c0.666992 -5.33301 3.33398 -17.666 8.00098 -36.999c3.33301 -12.667 7.33301 -25.667 12 -39c1.33301 -5.33301 5.66602 -16 12.999 -32c-1.33301 -0.666992 -5 -3 -11 -7c-4.66699 -3.33301 -9.66699 -5.33301 -15 -6
c-1.33301 -0.666992 -3.66602 -1 -6.99902 -1h-1l-2 -1h-3h-2l-1 1h-4c-0.666992 0 -1.66699 0.333008 -3 1s-2.33301 1 -3 1c-5.33301 2 -9.66602 4.33301 -12.999 7c-6.66699 4 -14 11.333 -22 22c-10 15.333 -19.333 36.333 -28 63c-3.33301 13.333 -6 24.666 -8 33.999
c0 1.33301 -0.166992 2.83301 -0.5 4.5s-0.5 2.83398 -0.5 3.50098l-1 5l-1 4v5l-1 2v0v2c0 4 -0.333008 6.66699 -1 8c-2 13.333 -3.66699 34.333 -5 63c-0.666992 13.333 -1 31.333 -1 54v42c0 4.66699 0.166992 10 0.5 16s0.5 9.66699 0.5 11v9v1v3
c-0.666992 12 -5.16699 22.167 -13.5 30.5s-18.5 12.166 -30.5 11.499c-11.333 -0.666992 -21.166 -5.33398 -29.499 -14.001s-12.166 -18.667 -11.499 -30v-11c0.666992 -2 1.16699 -6.33301 1.5 -13s0.5 -11.667 0.5 -15c0 -2 0.333008 -8.16699 1 -18.5
s1.33398 -18.833 2.00098 -25.5c3.33301 -26.667 5.66602 -46 6.99902 -58c4 -30 7.66699 -52.333 11 -67c1.33301 -4 2 -7 2 -9l1 -3v-2l2 -5l1 -4l1 -5l3 -9c2 -8.66699 6.33301 -21.667 13 -39c11.333 -30 25.666 -55.333 42.999 -76c5.33301 -6 11 -11.667 17 -17
c9.33301 -6.66699 16.333 -11.334 21 -14.001c7.33301 -4.66699 15.666 -8 24.999 -10c1.33301 -0.666992 3.66602 -1.33398 6.99902 -2.00098s5.33301 -1 6 -1h7h7h3h4c1.33301 0.666992 3.66602 1 6.99902 1c3.33301 1.33301 7.66602 2.66602 12.999 3.99902
c5.33301 2.66699 12.666 6.66699 21.999 12c1.33301 1.33301 3.5 3 6.5 5s5.16699 3.66699 6.5 5c2.66699 -3.33301 8 -7.66602 16 -12.999c7.33301 -5.33301 15.666 -9 24.999 -11c1.33301 -0.666992 3.66602 -1.33398 6.99902 -2.00098s5.33301 -1 6 -1h7h3h3h1h3h4
c1.33301 0.666992 3.66602 1 6.99902 1c2.66699 1.33301 6.66699 2.66602 12 3.99902c10.667 5.33301 18 9.66602 22 12.999c10 7.33301 20.667 17.666 32 30.999c13.333 17.333 27 40 41 68c10.667 23.333 20 46 28 68c6.66699 18 13.667 38.333 21 61
c12.667 44 21 74.667 25 92c4 16 6.33301 25 7 27l2 9z" />
  </font>
</defs>
</svg>
